<mxfile host="Electron" modified="2023-09-07T19:09:09.336Z" agent="Mozilla/5.0 (Windows NT 10.0; Win64; x64) AppleWebKit/537.36 (KHTML, like Gecko) draw.io/21.6.1 Chrome/112.0.5615.204 Electron/24.6.1 Safari/537.36" etag="K-LH699vazC8ooB66af_" version="21.6.1" type="device">
  <diagram name="Page-1" id="9k9-6IiNouOBaRwhd7dO">
    <mxGraphModel dx="6840" dy="2615" grid="1" gridSize="10" guides="1" tooltips="1" connect="1" arrows="1" fold="1" page="1" pageScale="1" pageWidth="850" pageHeight="1100" math="0" shadow="0">
      <root>
        <mxCell id="0" />
        <mxCell id="1" parent="0" />
        <mxCell id="1WUHZMDPjOboIiei4zQ5-13" value="&amp;nbsp;" style="shape=cube;boundedLbl=1;backgroundOutline=1;darkOpacity=0.05;darkOpacity2=0.1;flipV=1;flipH=0;direction=west;size=110;fontFamily=Courier New;fontStyle=0;align=center;verticalAlign=bottom;labelPosition=center;verticalLabelPosition=top;horizontal=1;shadow=0;comic=0;fillColor=#d5e8d4;strokeColor=#82b366;labelBackgroundColor=none;labelBorderColor=none;whiteSpace=wrap;html=1;spacingTop=11;spacingLeft=-95;spacingRight=15;fontSize=20;" parent="1" vertex="1">
          <mxGeometry x="-2900" y="-320" width="152" height="353" as="geometry" />
        </mxCell>
        <mxCell id="1WUHZMDPjOboIiei4zQ5-17" value="&amp;nbsp;" style="shape=cube;boundedLbl=1;backgroundOutline=1;darkOpacity=0.05;darkOpacity2=0.1;flipV=1;flipH=0;direction=west;size=110;fontFamily=Courier New;fontStyle=0;align=center;verticalAlign=bottom;labelPosition=center;verticalLabelPosition=top;horizontal=1;shadow=0;comic=0;labelBackgroundColor=none;labelBorderColor=none;whiteSpace=wrap;html=1;spacingTop=11;spacingLeft=-95;spacingRight=15;fontSize=20;fillColor=#d5e8d4;strokeColor=#82b366;" parent="1" vertex="1">
          <mxGeometry x="-2820" y="-300" width="150" height="333" as="geometry" />
        </mxCell>
        <mxCell id="Ryft4ogu60xsEV0VgYLz-1" style="edgeStyle=orthogonalEdgeStyle;rounded=0;orthogonalLoop=1;jettySize=auto;html=1;exitX=0;exitY=0;exitDx=0;exitDy=121.5;exitPerimeter=0;entryX=1.008;entryY=0.461;entryDx=0;entryDy=0;entryPerimeter=0;" parent="1" source="xrLoLxtOEFxqN4fUCkvg-7" target="xrLoLxtOEFxqN4fUCkvg-34" edge="1">
          <mxGeometry relative="1" as="geometry" />
        </mxCell>
        <mxCell id="xrLoLxtOEFxqN4fUCkvg-7" value="Backbone" style="shape=cube;boundedLbl=1;backgroundOutline=1;darkOpacity=0.05;darkOpacity2=0.1;flipV=1;flipH=0;direction=west;size=110;fontFamily=Courier New;fontStyle=0;align=center;verticalAlign=bottom;labelPosition=center;verticalLabelPosition=top;horizontal=1;shadow=0;comic=0;fillColor=none;strokeColor=#82b366;labelBackgroundColor=none;labelBorderColor=none;whiteSpace=wrap;html=1;spacingTop=11;spacingLeft=-95;spacingRight=15;fontSize=40;dashed=1;" parent="1" vertex="1">
          <mxGeometry x="-3015" y="-320" width="540" height="353" as="geometry" />
        </mxCell>
        <mxCell id="1WUHZMDPjOboIiei4zQ5-22" value="&amp;nbsp;" style="shape=cube;boundedLbl=1;backgroundOutline=1;darkOpacity=0.05;darkOpacity2=0.1;flipV=1;flipH=0;direction=west;size=110;fontFamily=Courier New;fontStyle=0;align=center;verticalAlign=bottom;labelPosition=center;verticalLabelPosition=top;horizontal=1;shadow=0;comic=0;labelBackgroundColor=none;labelBorderColor=none;whiteSpace=wrap;html=1;spacingTop=11;spacingLeft=-95;spacingRight=15;fontSize=20;fillColor=#d5e8d4;strokeColor=#82b366;" parent="1" vertex="1">
          <mxGeometry x="-2748" y="-289" width="150" height="322" as="geometry" />
        </mxCell>
        <mxCell id="xrLoLxtOEFxqN4fUCkvg-25" value="&amp;nbsp;" style="shape=cube;boundedLbl=1;backgroundOutline=1;darkOpacity=0.05;darkOpacity2=0.1;flipV=1;flipH=0;direction=west;size=80;fontFamily=Courier New;fontStyle=0;align=center;verticalAlign=bottom;labelPosition=center;verticalLabelPosition=top;horizontal=1;shadow=0;comic=0;labelBackgroundColor=none;labelBorderColor=none;whiteSpace=wrap;html=1;spacingTop=11;spacingLeft=-13;spacingRight=15;fontSize=20;fillColor=#dae8fc;strokeColor=#6c8ebf;" parent="1" vertex="1">
          <mxGeometry x="-2170" y="-320.5" width="120" height="301" as="geometry" />
        </mxCell>
        <mxCell id="xrLoLxtOEFxqN4fUCkvg-28" value="&amp;nbsp;" style="shape=cube;boundedLbl=1;backgroundOutline=1;darkOpacity=0.05;darkOpacity2=0.1;flipV=1;flipH=0;direction=west;size=80;fontFamily=Courier New;fontStyle=0;align=center;verticalAlign=bottom;labelPosition=center;verticalLabelPosition=top;horizontal=1;shadow=0;comic=0;labelBackgroundColor=none;labelBorderColor=none;whiteSpace=wrap;html=1;spacingTop=11;spacingLeft=-13;spacingRight=15;fontSize=20;fillColor=#dae8fc;strokeColor=#6c8ebf;" parent="1" vertex="1">
          <mxGeometry x="-2100" y="-320.5" width="120" height="301" as="geometry" />
        </mxCell>
        <mxCell id="xrLoLxtOEFxqN4fUCkvg-31" value="&amp;nbsp;" style="shape=cube;boundedLbl=1;backgroundOutline=1;darkOpacity=0.05;darkOpacity2=0.1;flipV=1;flipH=0;direction=west;size=80;fontFamily=Courier New;fontStyle=0;align=center;verticalAlign=bottom;labelPosition=center;verticalLabelPosition=top;horizontal=1;shadow=0;comic=0;labelBackgroundColor=none;labelBorderColor=none;whiteSpace=wrap;html=1;spacingTop=11;spacingLeft=-13;spacingRight=15;fontSize=20;fillColor=#dae8fc;strokeColor=#6c8ebf;" parent="1" vertex="1">
          <mxGeometry x="-2030" y="-320.5" width="120" height="301" as="geometry" />
        </mxCell>
        <mxCell id="xrLoLxtOEFxqN4fUCkvg-34" value="Detection generator&lt;br style=&quot;font-size: 40px;&quot;&gt;" style="shape=cube;boundedLbl=1;backgroundOutline=1;darkOpacity=0.05;darkOpacity2=0.1;flipV=1;flipH=0;direction=west;size=110;fontFamily=Courier New;fontStyle=0;align=center;verticalAlign=bottom;labelPosition=center;verticalLabelPosition=top;horizontal=1;shadow=0;comic=0;fillColor=none;strokeColor=#82b366;labelBackgroundColor=none;labelBorderColor=none;whiteSpace=wrap;html=1;spacingTop=11;spacingLeft=-59;spacingRight=9;fontSize=40;dashed=1;spacingBottom=-386;" parent="1" vertex="1">
          <mxGeometry x="-2230" y="-350" width="410" height="330" as="geometry" />
        </mxCell>
        <mxCell id="xrLoLxtOEFxqN4fUCkvg-39" style="edgeStyle=orthogonalEdgeStyle;rounded=0;orthogonalLoop=1;jettySize=auto;html=1;exitX=1;exitY=0.5;exitDx=0;exitDy=0;entryX=0;entryY=0;entryDx=540;entryDy=231.5;entryPerimeter=0;" parent="1" source="xrLoLxtOEFxqN4fUCkvg-37" target="xrLoLxtOEFxqN4fUCkvg-7" edge="1">
          <mxGeometry relative="1" as="geometry" />
        </mxCell>
        <mxCell id="xrLoLxtOEFxqN4fUCkvg-37" value="Image" style="shape=image;aspect=fixed;image=data:image/jpg,/9j/4QAoRXhpZgAATU0AKgAAAAgAAYdpAAQAAAABAAAAGgAAAAAAAAAAAAD/7QCEUGhvdG9zaG9wIDMuMAA4QklNBAQAAAAAAGccAVoAAxslRxwBAAACAAQcAgAAAgAEHALmAEVodHRwczovL2ZsaWNrci5jb20vZS8wZ2lLQU9jUXVJJTJCN2NKMzdtbkhIUDhOOUZveWZSRUdyS1hZMnZXbEMyQjQlM0QcAgAAAgAEAP/gABBKRklGAAECAAABAAEAAP/bAEMAAwICAwICAwMDAwQDAwQFCAUFBAQFCgcHBggMCgwMCwoLCw0OEhANDhEOCwsQFhARExQVFRUMDxcYFhQYEhQVFP/bAEMBAwQEBQQFCQUFCRQNCw0UFBQUFBQUFBQUFBQUFBQUFBQUFBQUFBQUFBQUFBQUFBQUFBQUFBQUFBQUFBQUFBQUFP/AABEIAeACgAMAIQABEQECEQH/xAAdAAACAgMBAQEAAAAAAAAAAAADBAIFAQYHAAgJ/8QAQxAAAgECBQIEBAMGBgIBBAEFAQIDBBEABRIhMRNBBiJRYQcUcYEykaEjQrHB0fAIFTNS4fEkYhYJF0NyJYJTY6KS/8QAGwEAAgMBAQEAAAAAAAAAAAAAAQIAAwQFBgf/xAA6EQACAgEEAQMDAQcDAwMFAQAAAQIRIQMSMUEEIlFhBRMycRQjgZGhsfAGQsEVUuFi0fEHFiQzQ5L/2gAMAwAAARECEQA/ANhqFJsq7IGG+Boq67bMo5sMfNpScVto9HXYvPSxM5eOBS25t2PscU84naoLsoiNrqwA37WOA7isETyYVHpxbcNbyrbjBhUSdJVKarHi3PtizGERrsrsyoVqhugZ9tgf4Y0DxBkT5WxS4WAEBb3Y2+o/PGnx9sHtfZzPL0nqQvs1qKFquomSKZUgivtGOLG1ifU8ntiMlBTQNqlmEjKDaEeo4ufXcnHUuVOzzTTVrsZpKeOfU0sK08Rs3muCBble9uP1xmGpWStnvFJKLbx62BHoQfS1sO3tTI2DqqqKjeGJE0ldQHUbVff17njCSqwdnkRkDiwJ3AN72I5PNu3OKrXPYqq7ITU8esykszH8TOb6Ba9h9/4YE0rGSSElFH+4NvvuN+Odvzwze5YA7WUBmI82pbEqFBVrjje+IyMI0uq7EabKb7874WTpZGsMyzSzqyse37VXuNRvx74bopJXk6upp0YMLSHfVqH8dvzwykm8CX0bBE0csa3J6pAsb8dgLjDMMKM14VDyW0kAm2m/Bv8AwxTKDVtAoO7otRISWVSukEEgLtxbgb4HRZrGkccZQykEoF1gsy8Xv+f64VOkvcbco5YGumldVWnjtGARqIB1b9/zwooalMWtEaFrMRfUCD7+vbC7c2DhWNGVZmkSUt5GOyi33+xxNZkjhaNNILiy2tYDaw/PF8XttMl5ofjrXMRRpAIQg1Odrm22/YfwwdIW1rokUSbrrj4W4OwI5H8cTfSyBSGg5DJJJuCxUFxuNvXsP64U+Z0yBGJKtybANzfbf+/vhFdqmNEVnnXUSAnHZSvsRfv339/bGo5wsqayIxGzrZSJBpuNzt67j88GKTkmwt0V0B6z/wCoXaMEFbDYWuST9j+WC1cnUqFsSChI1DYAEeUfU2/IYumlmiuqJJMs08egPGSumzIL22tt68Yws1SXlkid03BuAG2vippbaaJzyWBzORoU67oqEgSANsWJ2H9+uK6rDnV1FEiMTZFAH6emKdP0qgOWCMsMcU5GnSZPPb/ceeTzjKwRxRs4ZQzqu2s3Bttf3/lbGlOSjaJnoXjldF/ZaJdTXEbE77Duf5YtXnCGIQpMsQjFm0Wu1rX24ueBirmhm7yMUVTNO9i8iJfWYmXyLc8G+/Fvyw+KyKmAAV2Rm1k6dj7ki/FsI+Pkj9iwpsxWqDskgiA1MFsSCbfiB7Dn9cTVelJqdi+qyIVHF/54iklUWBfBL9rURy9RhESblnN+BsNue/viQhWqDhUcvH2QFQbjax78YaGGP3YGnSJqgBFdzazA3HmJ2+2JmCJiGCCNnBOsLcqbbj04/hgb23YU2MQxuJwKaljEaIPOW29AbDueN/fAa6FHgRQztrfRbTz9b8YLSk8i/BNFSRVGhbqTug3BGxAH2vtghymadHnIVA/4b7AEG3Pue+I1tyhmVr5NIsUrSynVqIKxrey9gT3J4uPe2MPQ09A7JTp0GYBi7rdie1zz/wB4Te5NporTaKurl6sY0uYZHHSdCW339+5B/XHkhi+YrKWrR1p4EZVUJZup+5t6dz6bY0PMa4ZbQGjmXJoXeWm1DVpKixub7hjidTItVm0lU8QSG14+uSWJuLDb774mFTBdDa5hSw1Sh2lYl7BVQhCbbc8+l+OThaSiirZXYO0MzLcOoB4NthsALm1/XBe5OhJPoPNKsai4Kqse9xyAQD9AP4nFbBUfMaZI4NDBrrGTYfe3fnBVKmyKuWiEucSq4Ejwq4XUSPM9+xsD78C+LmDxB0oES0DWHMtwPvb+WHk74LMNDdHXU9QB1FLFvPbUSmxuTt2v/PFgaiCky1pJWLyf/ijVDd/ffgb8d7dsLK0sCw4sQpJIamPXIFQublSLgEeoHqLf3wQxIsyrLHqdGJCxpYsPtvY3v98JzyWVcrIyNMySBXZNK61Zh5dO2/5C18QZUdgDctIouFOkEWJ3I5HH5YiTt2B4dkISleiQhlkWNrXXa+w4I7be/wCuMRLpjldoFVVsD1JL6jbc7e+2+DGNSrgaCcnng9TrTTuejZigJbULoPXf7XwxHJ1okdQwsDcswsbHb69tsXNtgunQOoqnpnvKBHPIbtGEAY97evf8rYVkcq9ihkUrdWdtOn02vsOcGKoa30dzpsw1RdGF1kTcEX839cFkimqItSaVQdx9MeXnye4x2Vck08UgLFxvuCbE+/tjMNYsmsKp1W0kE877YuSTwK1dUAqEctuSosP3rd8ALkMtxpIFvw3v7jFNZtg5JrKCyA8Adxv7E4FPTfNxyAsAo4One/qMO9SuBHHGTnviLwW8a3pApW56oVd5L/iv9rdtzjU6aUmJ9UYgZGK9KQecra17b2G1t8b9DV+5FJ8o835mj9t2uBw9SaElBHFHGo0AkuwBHB7D/i+DRpKwZSl20BCxGw2/F62tb+zjZN07RzGyBp3gurLHGYwEVy5cE78Dnj/nAp4zHHpgYLY3YixJHr+Zwu66YrdcCsUUlNGiSRhpWJcaxe1gBt+uCjL/ACpGU1XIOu91FxYi3YDf+OLHKkFPGSMWUqIUYnUzMS0e9x3HP8OMA/yXrSgU4TQzBdbdiTuew29cImnlg4DGkMcKrIqGONgx0vtuLbi3of1xOlYQo9QHmaKzW6VyNh3PYW2/TFmnBxixlaDwZnMsvUhjWImNVVQN+P8A29974sYq41FXEzuYygBYXs2kjm3rtg/kI6GC9N8yFjCsXXzEkkHuSf02/riT0QaZTJGAgYMF1m4Nt9h7m2/rijEeAWkTSpMbxNrDqXsxIBt7kW3OMiJRoeQuyooFwlgVBJGHSzgs5IpoNda+g7LqIsQd+Bf+98Bljgo20RgGVSQS7cjuP64Lis7SuVNjtNAVleMK8aRqPLIQb2Ivc973H5YYR44ljRXAcEiRha1ybj9dsVpbn+gUqYpNWIGsQDIWe5JuUH0+nJ98DmrmilIV1eW2tVA3JAuBvza+DJukkiZDytVFh5FDBLq1wR3BuB9vzxXTx02pQ8au7ao9BQ6gf3u/G3HthmkmmSTplPmFCIlLyFZShDFADcgcm/cbbn9MLVlFHqDrAY5XdiyodybHSbeliB+WK1LmIt3kEKB4laYyJFYbg82te9/W3GMxK8U7QvwyjaFvpz/e2C5OKaaHeFkWMCzzrTVESOjNZDItvUhr34Hr64ddWWGCK2yAxuHW1rmw/SxxVG3L9Q4UaYmyRBFXroshLC8T3Gk7W/TscFEMUFMrBnJWy2Y7WsLbethjTvqosl0ic9Mkjwv1hYMyBf3gwH+3sLXwSR5xJIkaokZ06TzccjnjC4UqZXeCFXWOYjp/ZzMLBWY32PG3vhqCctGqT0plGoDWpIuRcnvxvsMUyVqmFW+Rs1SBjaMdJmKhghte9x9tucWENS7MUkjM2ncnsLnyk+nbjFm1OKsiwy2UU3RRnc3Oq+wNrbG/oO+EousAU6YKoxtobZVN7G/54rSXIzWUhhEYSBBdmIAUnYRjuxtyNsElC0kiksbsFKodgAe1u3PfBjHalYy9gMkeuS6Mu3A1WF73Pb19fXBnjkUuZxukgsSb3bkkfwxbXpaQrVj1KgpwqyLoKx6zKwFgTf0+2/vjLANFqjnZoyPKt7K3exPp/XEVxjQafIaRAI0kCDUy3IBIBt733+n0wpXiICMRhrEgELa7/wBL4Eoqk0M6asrDSLSiWVGkaQEjr76tWnnUe+9sUzdSjRo4CypI4LzSxDV2JF+/fzYlW8gu1QOeb5bRrQPGup1RTpFuRcKR7bYqqmvjkjlPUnlDedmY6QvfYE3A3t9/qcWbWo2glhRM1UD1OullAuRbcn8OkdrYZgy7ptLIzMxiKNcgLqO5C27WNsB6l/iKuRSsrUKu7QGNUQAsSdIBJIX0O5P54rlmad49EkUINyrqlyVHA2O2wwyj6dwXKlkGGVTEYmLK7XJY2AtzYevG+BiQFhP5iFUksdgbm5JHp6W9cWRpZRLzgtqOoijiBdSg1BniQFQAOAT/ALhxi1hr4ZoERnkQDdSH3QggXt6Hb8reuKksuh06E6SrNFIzoWlZtdxrv0/U8W/7w3BURvD+0lR2XSem44Wwvcc3Nu+GSb64GjzkkZIpi/yxdRKwP7yFW9SG39NvbBJakwVJjeZAvS02HmJJ9fT6YFuUqQrWaIxQJ8v04ogpPdSRta4C27+3tgrwyGFbRjp6LlR6k/iJ+42wEnwWL04M00USFU8rtosoC2DN3/gfyxL9hOzkqF0EMFEl2B39NsKltVXkrjlMTp4HaU1IaRUey3tcE7njtv34w2sEB6Yi2TZrafMDuSLjj1/LGiLcXkO47tmWR1FFOSYBRzxodWtCGYX/AAk25wKhnK0zKWuVNhfff7c487Jtvg9zh5Riej+ZYsrMWckXv2xWf5Y8JMYIe34gv8LYoi28shP5GaSIrGg0gW1HkHC0dCySLrF7b6Xa98K9TFNC8ATEuoFo2PmIN7X237YjdETUS27abDff1/TFiUb+SNdM8aXqpdW0ubt5h+H741PxJ4INerz0jrDKu5d0ABPo3e2H09RQfBj1tJakWjn9YlflVW0M4Doq+Uk6VuTa/wD3gyuYJxIsr6zsWU3snNjf+WO3Ga1Mnk9XT+3Paxb5hK1V0P8AvM9zcHY3499hY481ZFKvUpbiRgRYEg3v6Hb1P5Yj08ZK4tLkdpppGkWOQ2aXZdQ/Dbv7X3/LDcMBeMrRyiVyTqkRb3AHG/t/HCbUmRVLAR6IoIlksrupuwsDvtYc22/hhKoiMiQU4MhjXaIhPNfsL/u7DfDxUUshSsUky9pSJIklLgaGkk/CNrHi1ze/Y84jS5SLIjqSFW11BYA7gG57/XF2QLLyMwpPT0vWIN0sGl1qCdypIv8AU4xrBeWSXUQxuzX0nRwLW9vT13wuE7RNqWGOx5jT05eJCrsykl5Tzc7XXvzixgq6K5BlleW/mAuvltc7X4xXu3WGaVi8lRRz9S4K2tYqu5U27fbv649K8UPRtM6jurA3Y7je31v6YEsZYrxlBHoIKioMyKWVkuHJI0kC427X2GB0kdPESxc3Yt5T2BHG+/0wibf6BVPkdNSpiaNlcAEaGKEG19r/AKfkcIT05MjLYKJLlkUtbkd9rHa9vphnWUgZsnTtC0z6VKSSEaLEXIsL+v8AXEG6tW8hhsVADmQk2Y8WPvtb6YsStp9EsiLhXkJsdl1I/lvsdvz4wUwq0ZClEZmYrZiTzc3t7i3/AHiqcrTrgDTkCJZnctAApBP7RePU37cn64Xly/rzatFlBOt42ta45J29sVRi4q1yTghPArO61UrvIu4sQxbayhe22KWXSkrqNMxK3YsbsfYD62xfba3MaXVkZ1IRZ3Yhl1EKl2J7AXAG3tbnGGqWCjWLOh0OCxa/qe//AHiRpN2D5CQ1KU4cKBINIuiA3P8AS9zbvjNXVRpGZEjnMEhIZStiDa4422/PDuGVLsVZCROta0giKidSvmIIAGxbb6dsSnoyk5WVWeGNRp31kWvyL7AXP1vhWvUmGSppIz/l9U4UIhMeqw0xaf79sZbL2SoQvdo2VizKCRcHi4++A0m7YWntGIKwIuqUlldiLvwtvTD1BVpOenGxkS9iWIYk+m221j+ZxZgUcLywVUZlYyIdIaKQ97bqPpa5H3OHKW00rSOWkaR7MEUkKOLfXjFcI2mid2ONFEYQUFkVTYnbv3x7pQoZHQrIwFm0nUbgcWwklTpjWRF6gIoIeQN5zpAF9tj+vfC7QSqj60SWIlSrILXNyb+tu33xdeKRZxkK0AWHSocDyuVkN2I37dhsPzxCapnkDRIVhXVcMWHF7fzGKpOVNsR2+BSU1axASFtRIIN7sLC59rbfpiJlqArRxkudQcdTa9iNif1wVPFCvgxVyyQsh6b1QdTdmcKo4IBB4P0/lhd6T5uASMTKQCqhjcL9/T6e2ElNqVoKbtUU1ZElNCBLIygksbArdTa1z34H9nFNLL1tOl1VgdYlQWW1+Ae/Fvzw+9yu+Bm8jtHNUB44eooVxcF2u7H09bC/2FsWkjSmm1GOSMlbozBrMdxyCRv2+mNG1R6J+hXPOfnWkqIVaFQAsaqW4vcW99/zwlVdOetMixQRxN+FLXK7+nP2wq3NUCSpYBzQtIzExlEVf9NbW0+m3A98EpIoStSNIkGi5BvsT2t9j/xhqaRIt2DMiGRGSRIiQHF5NaAb2LW4477YhlsCiVJW1jX5y632A7nvbn64MFhtDyvKRY/5k0sSxmWSQIChmlNi3chb7Eea1sHy8mR9S2+YsUYaDc3Gw3FjwMVybTsLe1plumZKAySzR3DBBfa55sfU7bb4PU9KulDCIRSRgnym+q/e3cbd/TC32uRpYyMHLZJVuWWNiQpWzc7dr7fbGJ6OoRejIGAU32AZdQ4HN+xxG3aFlikeakMcayv59KE6rHgj8I9Nxc2/ngL5W1M0brHIEYklCQW//YjsSf5YkW4NyfI7VKgsiCGM+QeRi1lsSw37e/8AHBIpvlZgQEUSE7WtqYH+At3740we6txWuT9B/ihkOQ+KNBhXp1zXAlRbrcDhv64+evEvhWr8O1TLURNTMRsWUgNfuMYvqHjRjqb4PB6vxdR0oyKelqWRAoQNKNuLAjvb3w3HTnNGKM0cCX0gSEKWbtjitVwdBzoHUlhKp6BKILE7BWPH8sIzITCjsqoL77gkff7YqkqyyLKRARRTRltSlWN7qd9+3v2wm1OSQyANpI8pxIflusXlZPRxKqkhrt3VucTmhZ49R232sL7emFc5RiK3g0/xL4YjrY3uzrqBNg9wSbbY55mWQVmVTCSmcOgXU4jUM49L+nqfbG/x9ZJ7WcXzdDenqLkqYczaEdUbRgEkttqvYfrfB4ac/s20mG1hGhfseTvz23x2JJ06PO0PUtQ3V0NTlFYnTY3Okmw39cWsasqKjtLGCWdlVLtpN7A/T3t/DCLhsCtuw9QakRQ6Q2p/MFjsGIHNvoPXC0smmFmDXsgCqx06rngc3sfS+2GdNpFidoWd6ppQ5VVNh+I+vJO97/8AGDRTaZ7jVIFOho0YgOe9vz/LCuSvIm5rkrMyiLmUSKQqgseLAk7i3fnApYbRprZlLKLaQPKBzfvgOW6K2kbshUU3TmQxnS7KSzCwcDta/wBB9sESaNgURmSU+ZgLG42Fz7/198PCO52xki1oc0oD0wfIPwjqeY3BJ1W7ccYNZ55FdNUSyEANf+J9cUal2DsDG4gbyh3uRck345A9tvtg0mmRRKSG2BBvvzf+BxIy2RsloHVZgynpuHkCjUBFbZRe177c/f74dVRWQEhGkeS2zeUD8jvfDXbbDut5ASpAs6q6xwKBZVUlTY2BA27WxKSSPqWRg730+QgC5BFmv67Hb1w8pNpdBbCUrSWkWSLRMt1PUsL3vY7d79sM1VOAAIdG91uDqs3ra/thE01aC8qgT08rA2mWJle7AAtfYjm9r3/TAkjczxs1P1LgnUzhbgeg7g4TuytogcrjqlZn0Ro62JbcMO2kf3/XVailQVjx6rxXKa9JtH38wG/tb3wd9ekZuhJ2lYOKcxMSocFYreYEj943/Xvj15/lUYBVJJclWHcAn+OLFU/V7EatBly6RAPMgQWIDPuWP39dsOilFVFCWgMLlfMQ19JG2/Itc9vYYfj1CsPHpWKURQyFjsX2YleTYX2JH8MeFVL5EFNUCRXuNI2Y7Eb82Aw3LyHrJ56zpVB0oUA3IZCw33/iDhiFXqmI6jAudNxHp9T5ftimUduWyNYJnK+nPLI0SRvZv2jEt5bXsfz+18Yp42pej01IeQ31KunVta+/bbnA35toS8j0060rKRKDtqZgQ2ra3cXvicWYJHbqS3W1lRvLYknf+uGi7fBJPbgdpK4S1EmosY0BFiott2HftgxcTIZFXSe72AuDwL9uMBp1TGTxYeFRCQVcx6RuQfKByG9t9sRnqGiqOlo8oILyR82FrA+l+1sVbngbqgXUJqXL2ZvxJf22ube1x/1gay2WREKrHHqKjVrLD0J+thfsMXuPROCMUL1DJdmZQQuuwG1ub4hNH8vcQs5DseTwR3+uFirZErJvVIYmdYIZAjs7iSQi/ZQBxfn05tgxnjljajkOoPGCy3seLfi+p4Hr7YWUHJ2WrbHgo62h6jToWk6RCpd7d+1yNhtwMUs+XxFSvUYSNbyx7MxG9jfYYrU7wVW2TgSoopP2kvQLMQzMAwNx+G4uO+MZhmXzQWFZlURm50EkW/4/ljUsqkDorpOt1WUymOdRdGKgNvuDv67Hjg4JHKQIhIoEABYsAASbdjiacqqgXQICdpXkWJ5Iw2sxkk3GwW3t3wGirAZZzIZQLs6WHl54G/8AYxa2n6VyGKzgPFNJq6Myx6/MpdEsdI+3rg9dUvUAClQxLGoTSXbUxHLb8E3P0w+mknbNCxyZGXTuSyUrNsbkkrZTzYAWPpbDaRzJSQz64gPMoiB2twb39r/mcVzWnJ4BKOLDdRah45Z01kAWRQW37D6fbF9S0oWNrk6yt1fYW32/X0wJLGCt28DMEc/RJM0tzYCVlBCnbk/cm2JvSVUcvmkQnUC5BLPY2ANvzviuVtjNWlZmepSjhuQzjUFDSHufYdv6YwtU0cKaXjklQgtICAStz9fpix7n+I0ZZyVxkL5g8kZmiWSYiMruVX93UTbi+9hgktSIVdeiHYAaHuNR9d+3fD76SxkCltZ90eF/EkM2WU0sE8zzSMAYBGpsx33Y+lucV2Y+Fa/xdnV6uvlrYwjlTPGNK+gDA2H0w05vW0qj2egT2S9SNP8AF3gWo8MPIDHFYgEyA3Ui5JVf537D3xqVJWa30qFLjbyrcgf8Y89racoSa7OnCSmrG6iFpoG3BJbdmNz7/U4qswiljWMwsmkHeNrnY+lhjFNybprkuToDUUU7AA0zlL2LixF/pz6DjthR6CoptCmNmBNwu9z98VKcYxC6IME6puGV7kEEfgwN1kSQruVG+rV5T7Ysb3JpCPJFjGzWJUkXvc7j+mKqryaOaM6XETOCefaxvgR9DTEpVk5vm/guagnM9MjNGCVWAny2A4/M/wAMVdJQ/LRmBk0yqbmWS19+2/04x6KGupwaR5TyvHelJvobpisBTqzaASUYkX02J429sFkzcwTB11LGr6BGRpDG9+ObXvvx68YdSpUc/lmHz5Wnl0kMNJDNqI2t2/MfXCGhNcDrIjMFU212KlTcEgDYd/vgcL5G4dgnf5WWORmG0l5JF2vyb787k7ffDC5kJWZYlJVrDyj8z7fX2wlK8iNoxVq9UkRMwijsAZDe7D6eu3974FUUQpZGAUyOXCEOO1r3B5xIJ6bGrAnUUZiUkRiONj0ygBsNyASObYQCGROo7yMAepaNiLj8v4/bjGiElzYE8hsvremREQVKuTG/cC/07C/I74tKTMEj8ynWEItfZgD+I/fm31xQ1ncxk0mWDVvUULE66/wseRfm1vt2xiFZPlGRyunsyN5hYn+FrW98CmpVQjWccBEkfoaQnVYNY+Y9huff69sRjqFJdVjYFrEKX8pCkW5PPPpgr1p2RFj8xG5VahmnYjyyXsPYew7fnhStmhpqlz03u2nVftfhrW9ub+mFabSsZ3QWCbr1H7Zuohv+N9wfXj1O23ODfMU4j6TCyjjbcAEWBI9eDgQSpi3aoxGY4oJC7oSTYhfUdvew/jiUUUNRKTpeOIDV1CD29SPW/H0OFV3ga+gxyt6iAatfSSy3Ubi/Ye5sd/bEzkzT0kixjeRQNUi3J9Lj3wzXaHZQNkzw1EpnWUoraUkABJHt2tfsMQNLFEqBwsQRrEBNhc2++5xIxfKEd1QjV1bFFYOI0BKjpjVsOPTffAahXlAcF0R/xgG55HYfxxftbyBdh6dFE6MsICKbeW6g7b+543Pa/wBcZheSt6xXUSzFoyjG2wtb35P5YtbTaT9gylwiXyxklLNUmLbUQ5bSOPt2vv6j0xa5UzU8pVpF1y6g6NtdOwPdmPG1sVL1pxYyaC1dQlCkcKpAY1HAY2A7j152+uEq2ugkUxTL0kvcvuCAdwqn2Iv3wj03L1WJKugMNSoS8kbFZCXvIQfLYXuT/e9r4nT1S1FRKr1ZtyukfvHn77fxxZGFNtAfqZcwVKwKGe0/7iuWF1G5PH2t64jIZKhBDEny8RA1srA32v8AnsPzxJSW2i1cZCz5hEqfLx/smVyVVRqSxYnk+pv9MAleuqhoVYlcre9yNrXAufp9cVOmr9iOuQopqtZXkLXdI7Ash2322P8ALHklTQBGGcx8qp0r2Nr/AF5xdhq0KlatnmrJTITJDGLAbq+x3sPvv/HAp45hCxYEhiSdR7d/L/DFMrTwROgb0pmnlIHThEhtdTbbj/rHjT06NOyKxkuWCs2wsBuB6/8AOHcq4G4eSCzAxSq8jo0i3O9zcAWAF7X/AExVGOcSyDXrja7N1fK0RIF+Le/PvihtPJHkjVQxLEwjURMGIvvvv3BPcX/hhZ4JBFJECoYG5JG9hxvzxvixN7W0VylStC1QqT0wlmldKgObR6g4tc76j/HAHlgl6RZ26VybKtiSRtcHawt7friyFxaTCnuyLy0o8+ks6swsLnV9rdtwL998WcRjicp1dUz3/ZtGoBe2299x98WXaseCTkEjRmMUMxiULdiyHkkX8wA3P/G+M0WXz12rprIpkZh5RuduD34F8De22XtXhD8KV0MISokePpqyqEYElbkkG3fnvbfAYb1aA1HTCkBiujWxA3Asp2O36HnElGLnSKptvA1TdCllaMU7RuwYrNJa2++3oTfDNPnFPGDFGyyXUuWUaURr7sAPW22IpWmSOcst2roJKZTJIy6CCSrk32ub++/Pf7YVSGesSUq7Q9ZSRqOyjbfj09d8BrdJMdq0ESnAYBZjMwWzBhYnYg7nk39MFCGFNUqGFSCpSQX1X4t3++HSW2yvaroWYJIyfi1BiwEROwAv9SOL4lHLTmESaViJUFSzh799zx3v7WwYx7uhqtnfMozOTpp8vVMrIPxar29Qcdd8BxrnWWJQf5xLQVROppECsoLA+YAi3O+MHhzm5qN1Z6vyFSUksG6V3hzMMuy9KM0g8R0wF1LrGj6gN2ueSf0xx3Mvhz4hiVqhcjlp4mJK67Er63Yc/TFvn6copPb6veinx9SKw2axUZZNApE0roSbAW02B52Bxigyz9r1NRkAJ2cbfnzjg6lpX2dS8FrPlUsEMslNGJdG4ijsQbC+Bw9apphqoXgbu72FjbtbfvjKmk7kJaeRVcjR9XVQXjPlkJ1Ftt/44pM0ysUraVRmQjvtb2wdyi38hjnkoZNKnYA77seRvzvgQCiRtS3AF/w3sL7YudSFZKooY54lIlK3v5tgSO/9++NI8R+G5ZYjJBpZ1XyBt12P8cXaEnp3Zl19JasGjUGglin+UlI1dS6lNrg2Av6b998CqYzApO5LMSrNYqLbEjvb0HfHaW1xtPk8lqQ+3JpiU0ckckcc0lo41F2Uay3uRbntztvtfEpJEph5YnJPLKt7nv8AXb+GL3TRVZKGrCxxmMqQX0lGXVYm5JN+NjYYXY6VbShsLlEYWLNc7EcX9cNCKd0HbY1l081TJCqqFYDQ0bPcC4vceg2/XfB6mGkaR4+qrFWuI4XN13uOefT6YjSklY0VSEqynkahkZIz0yQLFx5yO97bcYSWSKrZSIyjHS4dT+73F/Xb0xmSdsVJpgnoWkkuDqBJup02YXtYkjB4oAro4mR41APRBGw9Db2sb9sM09uSNZocWrcy60sQg0aiFIFhvp/LFpFNAIIXmnETuNVhbSTwVP398GwSaY6JIoARdTbVcpcH2A+5theRoFqdCOyqfMQU8pvbyt9PTCSi2tyYbscaNNAcwhdTFAyEkAD0xgU1PHCxZRwbljYN6X7gYid27DyAaKZ+qynpea2pjpHHt2wTpvF1WtbWNI0tbbb8+2FeotuBXjglEiBv2jlza6GwtHtuPcE2wx8xNEVBYRWsHU7kKdzxgQl6rY1j7SFtLIokueb3O9v1xmeqjWNljAimNwoDWX2378nFycXiiXgI0ClVSRzUIouVsCuq3G3a+KmoyfVDG9JTMuldL+XUvI4H6evGKVdhrspo5oad2il6UrbqykXF78b7+m/O2FJI1ikdna+hxc8u9gN+NgBtYY2cL4ExdgZ4GlCnV5dOpQtwwOrew/n74dizClgborEsB6hUuykqmxP4vUW/XCUmS1JYG6mmfWEZXHUBkLagxVbbbdied+B9cLyUcCSksVqaggSOJWJuR77bbAYV3VrkiZiaYtC5AV//AMamDS1he1r9xxharaKXpJMWkRV3MrAk+U3Nhzc7Acb4DlJQ4B+otKq1tTG3WWOCUai8jadAFtretufp3wM0iRywssxmXq3Cg/isdhtySdsGLtZxRG2mWdJLLHKEsyM4AQrYkgW2seB74sZRHNESUSTpAW82hhvYmwPt+uBtVjvMckmdy10gZuotroQAtvvz/HBBUSRxGV5OmLNdoRq3vYCx35G9r7HEUPVfQHfRKrq2hBYRMxVQpA2vc8KBx64wlEY31yOStgmqQXDEcD6jDttcDV7k9pZX5UXC9QDc27gg33/TbBZaESMAhLMNiP8Ab7i/rv8AbErcrFrNmJJojDKCBMrMS2k7Le+wHrbC6TQy0LCORggOgNYXUk3P2v8AxxV+MXayGWchKR1eZtLFiqkJGVuT67nEDUNV6esFlZiDqcarkDbcW53/AC98Nti4qwldW0aLI7EEuNyoUEBSP6+pvirliiqYnZahfLeN5FJSxJ4BHf6e2BGVppErBiTKukNT6VO1kEg8xvsB6XJ3OEaagqhWWIZdW5SOzajb3/j9MTdeGBKh4ZZWGqkjKhZFjJkvGGfTYFQTfb1xZU2XvSIgWgUAuIlR1FwLWuf7vf64Kdq0WqKTpDn+VmhaKRozK41LoSVBffa59e1h2HG+BipMYV1kB6gsjqtgSG5/27cHv+uJB7gyw8FUFilUp8wzl26d4VupN7n19SbdtsM0YFD+xp9CdTZJSCZGBHmPO17EfbDt+rJXFvsUnEMLvLHF1ZipvISDrN+fYfxw5Ezh2l6awIdLFpAVF9xwP5friQvN8FmJZGKdpkTVI41hizsEFmubg/x7YszdIytPNKxOwYFSVHfta1u+HaTA8nqUxRVZ+YikBkaySPfVvzpsR3xaJTxtD0kVtuS/4Vuef0xHiSiXRSrIGoSOaIxrPJfcuNO/l329u2K6Y0nzZhLAIbCRVSwA0/x3HP6YCeBZ8WjsNNVGko9YCx6bJbp2sL7n8v44uqLN6jKlRoSxsbq6uV03HPqccPT1PUn2j2coKWGd2+FPxYlqGWlzGeFQQQhKkHUeLkk3x2DMc7pYssWSO0/VFtKD1/hj2fjeQtbTt9HB1dP7epS4OW518PIsxWWqp6VaSqOrVHruJO4/l7Y5tWZVLQ1h6iPqbyOq7EW9ceQ83R+3LfHhnS0dTctrZiWSOmvJCmkE8C4J2/XE5Io8yUpKdEp/dAIv+WOWsu2aBAxtTF49CxBrksg3JHc+2KLNY5CFaaxiYX2AO3bFUU7yWrk1eviUqEQXQbh/b/vFWJFVtBJK86dx673OLnlEfug0ShX0s2nWLHfn0xmeg+ZU/s+oBwqkgA9z9cLNvkX5NR8T+E3rY4ZFV4yl9B0DbbhrcjfGi5nllVkNRBFXQNIrkrG8TlkKqRYn0NzxjqaOvFJRZ5/zvHbf3IgpkFTJHPA2jVq8pJ8vIJP998L0dDPLLIalEeFlVNLve1idl9O97+2Opu3M4m22w1VTmIsEQN+z3CozbHe7Ad+fe3pgflmpWTpiV1O0he5sN9hbYG+Ak08EjhisGY1FJOI1/wBJVuwtdd+AD6/0wGpnnkLGaNBv+JBfvfff3tt6YvwNeMBDWwiHoUodtJA0E6B7g+/P5nFeYphMWjcTFf8AcARoJ35PbjCReGmKpUWMMImog8jCSTT1GmVwl/QAcsf6YSiT9rpjJDMLXite21yfS+4++DNptUM/knTxTQ6mj1LGxJ0qm453O/HY274LFHIukmRERCXWJl3ttc37G9sC64I6/EsIJqiohRixBYW0ltiOdv77Ys6Z2EzBmT5dRcNYn6cexv8AXFLnswLhDiQB5Y3ckNG9tJGkFQNycZlpW6LFkVZbWR2Ytv39j2wHlZDT6GIKWOOwDBTy2pjsLd/6YxIYZAqyOVBV2s2y3223P93tgbaVk45MihgMR0qC4B5Nxtzf32vb2xBI0jl1al6LAsluVB73/IDbDUm8CPDwTg6FO8q6whkIfpkecm9rk8X3sO2JyU6u/U6aFiBcg3uBe30ubj3wjjwPJdjMMgqZUeFfIdy2k3UD783wVEGoQMSA4GpdZJueSN9sOlVDXeUUcmTRRwCVZFcldTGOxTV2I7+nPriidCK1rqmoeQg3tYW57nfff1xc84QlEXMmlpDC9hqXqRmwJFvuee3pgLXmjLvpZkYRKpuq3ub8bAWI73PfASawLg9HBS08paYql1bRHpN2YWA+59MPxwQLfSAti2qaQk6SRbSPXnv64KcnfsCHqASRGoaMQTxtArBhHp8qoALXPJvuSB9B7rS3SfUbKoIWygFmuPTtsdu/GDqVwNxyBhZY5ViCuGSQqOqtw55sP+cQauCbqSNJ1G4v5ib39OcLBOUWic/wMJmsUiJ5ypkYMxbk7WP2/pg7V5eK4IMxAEkyxnWw4HG2A07TGksUZgzaJzGrMblSAWIFl27e2LX58SRCOGzIrhbltWn0A/45xG2lgVO3Q1T1iq6B5l0KmkS31C9tx6jnc74ZimZ4203sgP7VrNf0sO4+vOI3eBqMRSr1wuttR3BG1h/TvhzTAnT4mDyKR7n1P9cW5UUgrgVqkEIDyDSqMwdm2tcn8+1vriuE0BqFKdH5lQFUMT5+249rd/fFEbbaYOh2SrmQtpj1ki7XbSH9h/LC3RraaaX9oXjmKgsGtpA4JF9zufzxJpUmgpFhKOpD0Yy7R6gdJjBsynykj8z33wrWZVGtEpYM08ikIEUXBJ7A8E7d8LhZJdCkNM0krySQNJHciMldid1P89/bFhJ4cMyxiBArG2syOdgLXG+5G302xXCe52JB5tmKXJ5qP5hpJIIowPMIRqcbDdrbG/8APAhDPTQhizTK7BYlMZRmJ9vpz/zi146NEY9mQKmOEFIi0ag2OseW19/1ta2K6uqUeOFZDJG7IHnVDeynjgbAn7m3ph4rc8ApXbDzUsEbRJ8uYdJGlbnysSCTz7C+FamWpp3jCQKYkG73F3a9jexvYCw+pwZ5dNgecDsEVJREVc9UsjS7GAN5S3YBhva++CVFSlSzyC82uPSxIOhQvCgc7/TfDRUuGuARv8UKz5izyRin6UcoUMpkja1u5Y2sB23vgsdW0zrFMEMII2YecnsF25I732Hphk7TsaSxZbpAlklndoidgAwNzxz9MEinakVYgkjwm0xdmuSCSAOfviL1DRy6Yg2aiokj1RiNWfReMm5NuW4G1vfDMPSiAkO6sfJe4bnv+WGjxSFbwzplJUSVFPIzyCJb6WKi3mHcE22welavEy/Oz9SFQP2cg3Y35uDtcY8zu2s9y3lDfzlVT1ka086BANZgFwzbmxve2O0/Db4i1rGGkzJj8sTbqMbMp/pjq+L5f23T7Mnkaf3FfZ3XKWpKlYqmGeFtRsNLX98KeMvh/T59TXvFFWAGwQ/iv2Prj0Wt48dfScOTjxm9OVnDc78O5jkVTLDLEqOp253Ha2EzB+yIZuo6Dgmwx4KcJacnFnahJTVoUmjWsjHWDxnsVazL7Ypcwy2UMzEEoBdjbbFOVhF64NYzHL+tISgMe17Kef7GKaamZJCshIG7FT2FvzxE9ryPgJSwfhZvYAnYc4vadIYURWZizkduPY4u3bl8lbtMslo4Z4GUqdQ/DdgN/S2KKu8MJL1UWBZOoCCthcD137jCP05K3FPDOTeKvB0vhSkSamLVuWi6aHUiWLcA7DkDbf3ONbq6vr0zRUVLMfMNMqrY3FgePbf7Y73jz+4t3aPJ+TpPQlgQqIJl3VhHGwuRrs2rubXPpfCHRqaqNmWQywtbS2q9r/Tn2xrg8Nsxp5IdaSmkuCViMd3cKbKbgEsOLelu+IzKkU+hupOoJVSw02HNyThszVBumYhkKQOki6pDdApF9Qv9D9Pvj01ICbvq0EgF24JHr+gwqw6QFHsKskgjYsW8hKn/AGqL7bel8CMjioVkAu2zWFgVIAvfb678WxJLCbI3YQSyFUstjwCGJBHpfv62x5GaeUNr6hsTewvz3G+J+KJllxS6pKYGNNMhUAIzG/P6bXxYwRlR55kI1Wbp7hmvv32P0wjSlbI8qh+Cn0KVjqNDD/cpNh3Ox233++ALBXxzbl9J8mkuP3uLA7ntv6YqSapsCiNSrPKrPIzNIhtdgGB2G9xzawwqS86xGaoBk3GkptfgX9N/1wHv67A1boXhppI6qaYkwwxgqXLbcDsOd8P0SCUiVyCSvlZ7i53sL8bXO31w8VudjtJjEFOI0UI5eRb6Q58tiPfB5IUDsom/GQ7AEWUfU2FrG/pgytYK3gIry0sYanPl02OwO3fnYX/rhaRql5jK4jKaQu9hZjvtvvxbDJVn2La6FwssaQo0dmlUyCEC4v3+wPviuzI/ME64wz8CN7DYDSWGnne/thG5N4F+BVV0xLAVQNq1qz2bUtrH0HpxhSsWBopDGZOr+FYRIF42bYc9txhm6poU8JacqBa7EC7yyaQANri/JvfjfbCvz8kGuESGSFvxAKR5jvsfp7W74eUqWAwIJXiIMINJT8QdbXsOPvheRR+w0xBVkcMCoJJ2tfnFVN+pibbbZPSIlAl2ANghsNr3Fj2H9LYE5ZozpFiCSrhieexP1vi2EfYd4PSZZJNC7RoySINIJuOSLhd97g/rth8wtRrHohKalUGV1NidX4QPX3+uFvI9WtwkYJIbB9KPbZXvYAm+kEA+38cNwVfTSQuryGzG+i3e1gdth/IYdtzW0qodpq+dUgljOm6soSOME3a4vbtbnBoqZKF21h3AAUIXuQT6gYFbWGLbNjoI3rEvEmmJLuWchQfYA7774BUwP1vLpeO99Wu2/a+2xuMLKW5WjRJKsCjMdbsFZSyGwAv+fa4wWaNiulgyoDqEqJ5ADc8EWJ4thY+rLKueCvneKnRWkkLaCFYhgxY35AFrHfj2OLrJapqml+Y6TQoy23sLb27+9hh9Onb9g0MV5ipIB0wnW1d0utj6e5JAwChEsMZ6xR3jNjMSLbc7Hjn+GInSaY3LRmevqmp0EdMP2aMSAbBAFFh6E2v9Dj1K1TNTxu0oVZrEhkuRtYAX7+44wErukSgEEcdIkixTFwbM0g3dt7DVvYDm2E5v/NqEhoG6Ii20E2YMQb7cnkkkYqipJ57LnlUiOYukX4LCoeMr1A5Ft9iB25Nz9MUmXZXNNJPVQJLGJGs054t2sDzt6fnjTBVbKq6HXWsodSTu6KWazM1mcm1gPfk/bEpasvMS0hhgWMEyMyqX7nTf62vhJS9WQxTqmITrLGwlNVoEhsQfMSSbAW+ttgMM0ganQ07Syo5YAMSQHbne38Bi2N3kl7XbCV0EgUFg0kit3k1dRjawN+STiuGYTR1CmF3Wc6mIDAELuLtYnnc79rYZYA30FnzGpFRItOzyqfwys3+38jaxOHvn6k6SrJO7abemojueO59cGTxuY0YuUiMtSKcGM07QOy+dkNi1jsAbH6eu+JtOZI+rNFKSlr7gkEk8t+Y98Im6WQOfR3uSKmqpIxK0sdUBYoFugN73tt+WAwfIUJ6EHVjqZZCbFi6uBudj+HnHm5KUpJo9z8FhUViNI8CRqkiJ5RIQrE97/wBTj1JmjxOGDalHmC/useLDucBZW6yt8G9eDfiXJlgRZT0pALiBhwT+8P13+uO7+FfiDSeKstiWWWSnq41DhYV8xI5A5v2x6T6d5Tf7ubOZ5Gl/uRb+Jsvy/PaNErUhjmJAjeVwrlrbEf0xxvPMgbIJm69Qkt38snb2wv1Txla1ofxB42o16Wa/H+2GlQWYtYsRYfbCdTURyTLHIx0WsUHK48xTs6ibKHMYzTI8rRPJCSFDqtyL7Dj+9sZTII8w85A2sNu/9+mKJ54YzxQlU5ElKQSRpOyaxwb9sVSSilk0EFd/KOO+JG+w45LKlTqQswkKFfKrXuSPTFhSLLMCvWWVXFtI20/X14xbVYQvZWZrlUPXjqHWzct5Oeb/AHONA8efDzKw0mZ+HpZYalk6kmXSXbVz+H09cX+PNwlzjsw+Xo/d02jktQscyiIM0MjEkhDqKX3bnuOONsQo6NpOidHRsp1SODtsbbdzv/PHpFVYeDyko00i3UwxAwNvBGAxO4LHa1/XFctLEdaRzOjOQA1gxG97em4wtOWBHlgZsopawOss7dVfw6XKE3uObc3HOAdeKBVdA2tfLZjqa99iSebWviUycSwCigFaFYtNAHNk1AMzkEm/qLG3rbDsGWRw1Ea1DPKpXTpc97kk2HHP6e+BN9AbyRrIKegqWEY6oYgg+g9u+98LkmJwIIUUAG5iU39b34+3viRbSpjXQSKtghjbqdZnO7OvDbbC4787fwxd5VmXV8rBEQ30nUBYAev1/LCOLinJ8ArFjFDmPSfpSyRytIC4RGurEcG/97fXBpEeUqyo8rMwVgH2ay879t+3t6YWSuNoH6Dl2p10KAXtqCkEkA325te18ZjMcqBVQWZtILoVNxv/ACP54jTkqvgiy8idTLIoGue0PM2lDuCePUj6YTmaR4mlCSVBa41dlH8NgR9vrhYLa7JWR2ghnhZpJIwJWb997sNrb+23B9sM1M9SusIHDN+GN11Eg8WNu9vtfFzay2R5ZXVGt7WCqStjfnY3+tsZpqksJlkRmJ3jVm8gF/5Ypi9z2k3+5lpiVl1uI4GGgOZPbcgdr4TdIVFO8f7ZFS5GsFmYi17nsb7Ysb2LbEgrmL6otYhjp+mpZSj7he/Jtvxt64q6gwmNPlqmWMRrsShawsRufrhtPNtoakrbFqT5lZuo9R1ZUYNZ0vtY8H1JNvtghilQySuo0aSSSASSbkAe225t3tiOajHKFtrolG0TBUAjDKbFtX/rvvb7YLAUmiiXqxyylvMd2t6A3PbDNvbYYvpjNXlbSdYlqeoklUMik/iG+wPfjCnRkWfp79Qi6kC4+gt3OBp6rWWFljRw1MJjWGndQEKEWJvubg9rc8+mMTwPWOo3jPJLL5WvzfuB9R2xU/XlD527URXStRJcNI++oE20DvcWAPp9yMBqII4YTvNN5QBYk2H0HYXti+OHRVhsIzJJCyklJFBseAo4Five363wxT1U1OpCQKXNlA3Ztgb3P64rlLbgnDwW6rV1JhkIYEEDSoYcg2Hv6+198ZimkqFWN0luhuJJhZTY+o3A32vvzhK3elFsW6uRNmWOkXWWY6tLNH3Nzfv9MLEyMifLzzMujTuL97n2vY9sWRdJ2LGW3+JXyZZJWyI0kqxtbSdKAd92t9d/uMXLVZy+ExoXk6TDToXzFv8Ao4DlSyPdoDIaqSQSwyyPa8jSPGsfT2vpUdzc8YtKeAU8QkeoXWrA63IBO5tftuePzOCpYqiVSFZsxAi6DyiaNLkFVuGN7d+Nyd+9sD+dmZkU0pkYKx0yMduwAHoDc8d8BN9i207GXES0KAQkSqNfkJbUPc9zv+uACq+ToIyadjFJuXUaXPtfntex98Itt5Gt1ZWrUNmMUsFPTyUrEE9Zxe4B81ubEAH23wfLlSqp2gLSRxr5Qx85J5N7kfli1tpkXuxiT/zY4oWkRYRupYecm297cWG1v0wDNIdcUCU8DobkgdEMGI9/oLDfnCqpPKLIu7K5ctr6isWMukFj1TIz6Sosb4jNTKryF5fnNHeOVgoG+4Ufx9sW7rXpEafYrOsrxGOLV+zQENDc6bAXuw5N+18HjhjeBUM3y6sQ2oixYWIN99h+fB4wkpMt2WDlpViVVMLgsNNlBLXt5SQL+t8PR1M8GiGIt0rG4J8w4FwOBex/PF3KS6Cm4txQpP04TGVVozGQxDyEAnkNcHb0/wC8VbTgqA0bOdJuZJWZRv3vyBz9sNCOXbKZKO7B9IVInlF2qFjYH8QUHvx3t2398QSOcXMMeiTuzX0sO1r7n648qvyqXJ7prgxTCeaFTKo1b2LWP6+g9cNstlYSTRysqBVVBfQDwb33OCm6doV1wBp6WWGSjdWkqERw3UU6mHra/wBDccb43HJ/E9RllWlRSyVEZjIGpFNiw/dNwAdsNDVnGdx5QkoKSpnVss8Vp4kkiFWRO7IrWCWLKDYnc7Y3qDII8wplPyVwLG8hBABG1vX7Y9FC/KT3nJ1P3bpHP/F/gWTImkmjX5iO19S3sv29sc7dBNKrAJphcksw529AfXHnPI0Xoam1s6GlPekw9PJUrIy9SMJawUjkd++PTEoHeBSqq24vb8sZJYui/goq5a6VmfWkS6eJE1f9HFDXZFU1Ko9ZWoRCb6obKPW9+/8Axhd7apIfDyiT0jxopjqXOgCxdQRb3/PHqSYwSBmmRZASC6Bh/LBUmuexsUXFFXpXMy1MgOo2HVNuL4QzLLmSoE0TEFVurA73/wCOMT/dZVXRzPxv4Ry2ZGrIKR4q8nfS4WKW7XPlHf6+mObrNMusyRvdVFkW4Vbn3t/3ju+LqKa2tnl/O0Nk9yGXp5nBMxEVPHpOlRe55H24v/3gFLGsTLEQJBZjrlO5PNrcXHP3xuadbkzlpk5gFXpNannHPSjuAdzy2xvzf3tiKU+tEQ9VFCDe48p7few/XCScooMlkm8TLE8amQzardQg2+pv/Lb64jT0UUaxmRuvUsQCunYDn8I9f5d8Ksp30FpNAE6SNISeiTYaV335O+++/Hvj3y0CSfLoV0NGFve5O9yWN/TGhNSigVQu0RrJHk1g2YoFk1cW4B9fp6WwTqvTFnZ1EdiobVZyovYDv35w116UC7VDQzFo0Vll/BcGnIuoFx/Pe5/5ww+YSuC7OU1EksDYIP8A1I729MZXGk0xUmiwaqFTNMXS4kUWa9zsL20jnkj8sWMNVHNysiyjgljvfY2B9renPtiSjhtD/qQEkDo3nSONLgIRc2A2N99/77YhKwEiaL6pASGUabAgdvS4vviuOFchURqpg0UvVjaG7blb2UEbfU7YE0kbL02maZNmIIuLHYA+2Lm08jcPIt81A03TbWmokksdP4SNh9QDgEzqwQhomjv5XBsvspO9/Q4qi74Frs9VfLOoZQgbtHfULkbkDgDCvyEcJ0HV09W68DcA7egNhhpWqyNjszFDTJEOrGrVAPlJXYn3H0tiUdKGXSphmYjVrubG43NvT+mDGTli8Fae50wHy/kDOyzMw8to+B3+guMCkpoxC5/ZsrhiTGdLMN99u9/zwZSpUxrvkXXRECsmmUgWuRqPFh6DufrjDRiiYtGQVTjy3BPby9sXuV1EieWTSrE66m1sm5Eii12I7Htvh7LTFT1hkBsH0rd97dztfb0+mK6w0iyNbh/Ma99/l/OCi3uR5ri/97cYrDmJnKao5UkWMo+nYfXf6ce+FjGs2PNtAXr3EzEwugI8jMBq3J33/P29NsVzsZ5tLJAQAD0Y76VA4sQO/PrfGmKV2yv4HKRDDTO0SCMaeOqpJG2x78YZpqoxS6YknWd+wOxGr1tb2wk2nyLJsuqfMIXoXaqlaKKnJZmMgJtcDn1OFmMMtQtpvJ5QiOS2ob31N2HthFaygSb4HJh+wWOR4UVQziZVNvXYdu35YDS1csIRXRAAp/CQ1yb2U+nvvgadNNsarpl1C0MKkPAnQBOxIJN99r9uMRmzKOnDpFHGEPMjAHYjgAenF8CTTVD8EWzCZ4w0XSadgAh1ABedwfW3OF66gR54pZquMuRdeoVueeAfUXti5OsURST/ACDPTJHVooQIoTQLL5ZFG9/TnfBJKhqajaanBlkR9KxqoBUA+3P0xVzK+gxgnRBjG4EUiPDUqCzjSwB4HIFj9MJVT6iYwQCSWCq9wR33+nbjA05KrLNX0vakAo5agylBGlPdf9O1rpvYED8/QYsVkjo44I7qZHGzIwsfbTff1/7wG05Ohdu1X2DesEsjLHGxljJtcBBe1zvt/wAWxF+nFHpUsqNGsIaNyLBR6D1tziyukMnSKCaojinMLOHvdVu1y3fk78f1xbQUlNHE7RFLWGyizkEW5te352wmlHpskccg6oU8hgiGoKqWUE3TcX3tx33JthKKONVuKwoB53jksFI53PIPFsM1hljkmwjSQy1MAEMYAJ26pYDnk7XPG+PVGYKsryTGIMpBbqJeMC/A9zta+LEn6Spyt7kyozArJDqh6kjq1ydXf+/p7YEs1RPEhHlW3mF7q5/9fffuMWpJJ2I1htH0gIGMO/SLRjUY3JsRfjjAlWPogrJqDnSFic2U/vAb9tseWcW8o9230TqKKOSMEIUWAgxs4vq2sb25P2xLJ8wWORiYoflLH/8AGwcn1AOEn6YVIDurLKarpFcxhGjnYX6iDTc+l7gj6YrpcyFKrU8ljcecTTajbbYcXHuMVxi4LHBFVZNkyjMZKKOmo436ShQyM+7oAL2B3/K+Ox+GPijNWUxpKyEvJ0x5I5jqYAXP3PpjteD5K0pbG3kwa2luVot63Oocyp4qWmqKuOOZgGo6dC4C28yg8g8b35vjW83+HtNmNKZMtdTWxp1GoS37UAm2rfn6A42eV437SnKLuijTn9ppPg0WUT5bUNAYVjnBPkYHUfrhaorCN31Bl/8A8d7i44748xqXBUdONPCIT5hDV6Wjur331GwvismVkPlRXUjdZDuL+x3/ALGETDxgrcwSVF20hQL31drenpil0ESBSWKj/b6YEuF8DEoql4ZTZyq3HJv9sXVPnjtCiyG7WOna+3v6HEz3wCqdsrq2FsxLAxogsSy2v+uNEz/wPSV0U7GMpO621kk9IX7jv/3izSk9Ce4o1tKOrFnPczmr8mkloa9H6dl0SQjyMLltV/QDket8Cp6i8w6MHUCMrlXQgNsLgEnHpdOamk12eP1dJ6eo4MsEyt53JMmhY9kCLuvPfuf+MNU9C/XjaqqLmMgr5SFW1rcf3cnFrdyVlSC1nQSTS9PLLKYwGYfg538vFgMVTzFqoTIJUZNgpG/tsfa2KNisjjbpB2EM8UjGKLrbDRK+kNZtt/T2G5xWVOWJNEBFAXkOxMZsNix4O+4+2LIyaSXBHbA1A0UxAM1ktIFLFNFx29L/APOJmoklpVeqLyxEqi9XfUR6X39vv2w1ppi0xda8QSu7O5WUE7Hg3uSe3YbG4x6mqaipWaJQZlIP4WLOiqd9rbLYbnjfnEivQ3IK9OGWEeaJTs2iK41qSytYrbbY8+mHoMxUHQ5Z41cBGY3W9gTuO3bY4CeKYsmx6XMFlJR6QorKAwG1wdtRA77fxxAT+eSHp9O56bLINtNvLZu3PfGe2m10KnkMGQLJFJK0jORdS9yDa1z+YOBpTxVJ/wBVdLqSijgAj9bHB3rOB20yAp5IRTq66kXU2/Hvc898YqWXQpaGKSQftN1ABba30+uE00oq2BKhWqIACKC7bnSnZOb9+98Dj0PaQI0YlIvtsbDY79+2GuUuCW7CupqLKFDWkIRz5QRbk33xmnp+kHSQOACW6gsbDgflz9MSCqTTGigEcq0g09dzsQQF7G+w/IH7Y88wkTyQxMzNrAZCL2BsP1xZt9NsraaZXvGIyiyyKqEtZdd72PII52I/LAoKj5UMrK7F2srMbfUcWN7+uHwrQ6VYIUsrVNSYXXQ5G0kgFkvff0J3tb0se+GaaOSOISOwV9RXVwFW/IPrbfDQbSojauizEsc6wyGUghSANgx25BPe397YhKqxNJ0buNd1aQh9PlsANu2/riqMnuot3XgXaE/LqsmuNwza9TKdGw4/79Dg0NJIUTzq9lNo9rDi1wNvv9cPtcU/kRxzgVZ2WX9nFGGVCq251WA3+18TWgEiuAYoHhUCNohbSLb8/Q7d974eXBKt8BajLxRwDWoUHZeuwAVRbm23tiQpIoYWaaWMRSKJAkLm9+De3J3JvfjCrPpBGOMlhRfK3kcyNIpuypGL9RjvYjnntzthkVYmezWBQBRGVAAIPJvvY2OF2u2x08oOIqaTTdNRkNjoe4B2/vb0GA09OhnGlCyg6W0SaQwO4PFz2/u2Fatugt5oYlX5liWUK3bUARIN7e/N/wBcL/KrKI53kSIkaQrbafUAn0/4xZJppMmG8kHrUpalkgn1XsGW5YrtyBwOP09sWiV/y6x9Nh8wX6iKFXz/AP8A1z329LYXjAyi1lFfUZoFYo9O0rMQDK7HyAbtwbW81+ORbHjDHPM0ixvKrHgm9h7Dg4RpJUmSnKV2BaobW0iRPqCbaY9J0+gNtsIPmqouulnafU3lVlHl9mJPvgKLwiySwHos5i1tB+xac3axiNgdySfbcYnWf+VWjRUAFrhwqWG3Nh9dt/bFz9DTaKaawLSxojSWiCxs1zYbnYfiPbi3a5w1FUQUUMmhLo8Q0RaxcLfm/fe2/pgp4tDpAGlmklEQ0Rw6TYl7kknbSB2FufpiNeIwmid1tYeclfM199xvbATe6iOqyVslPBEpVV131eVmOw9gdt8E68UxkjhmaFnsRHHZhsfMLn13B/TDJ+muylr2ATTJFSjU4L3KlFHmBsbC59f+e+FlprRkqd9Oylr3v2t64s9SQztcn0f8iJXmYvHUI6g32CIt9iSeRbv74Sako6BtVExjKIC8MaAx3I5B/ljzMXueT3b5LCjr4pOoryxFtJBuhOk99u/pjzRRdFVjB6K7FL6efRf6Yk/xClkJHlUSmLZU8oA0NqJ7c7e+LD/J1ZY5I3jJPlLkfgHPI43+2M05bpL2BhImJJaFNLnV5iF22U2vuPTDlLX0UsaTu0izFdqiGNQ7223/AOcO3VTXQnJufgvxTGkoocxZKrLprAifZ1bsAwt7/rjv/g+mp6GmX5ad6ilcXAmfXpvyAeces+nShqZfK6OR5UXF0a9418L5X4maSSmtT10d7yW0qT6cb44d4h8N1lBWtC6lBezFt/oRjmfVNBKT1IcM0eNq0trKCanSmljklfQluVTVbe1x+WDyMGi815nOyOtgLc7+++OA8xOjduysqad4SepEAW47XH8MU7IRKo6RVCTqtz/xgX6KZEMS5e0QQEG5ANlN9vfAaikMDDUSLrc22t/ZwXTlVgQFZWp0JU+YepG1/wCWCSNDUUxZwrG37218Fp075DdcGteIMhpcwp5IXjRl3IuAdJI7emOZZllsuWVsdPHRyOFG0mu5bc/ck349sdTxtVqonH8/R3R3x5HKCSSOJ4YojCiDSVJDDcbm1/rtgzE0oCFJAQ2lTsD7m97Dtv22x1sVdnnZIAbx/tIi8upQrMZbgat/L6gYWpmsRIXIuGHUKi4Hc9ue3oTfCSwvkWnaKh4RFVtIHJjYgqA6/s73vxze1ve5xOOsqmQE08hjZWEQK7H+7d/bFkY4TkHggafrEQSBSr76HazXF9yD3wCTSiKryC6kbnb17W9v0wHFZoS6YVflZgQFMwtfkKyG+9gO1+2KeqVnmKpLpDaQAo0WUncH24JvixWgr1ckFpqh5X6gLstl1KSqggXBt/XnFjTU8mXCGVFB1tdhuBH2BAA2Nzf+mFby0Tc23ELHmGhwoGrSHbrF9lHpzYG//GLs5qsixqdeq48xOzX23+l8VOLSwJWbBPUwpeMC7rbUWUtf+n9MLOSzeUhRrAKsD2O4A7flgpJDbUTSm+amtLUELHZCSSCSb3Nvrp/XDNLQRxqAZQ0xW2kG31vfa17E4kpLCQXyNmNYacyq0gdo7EC2+++w+uPLS0zxxzSrKjSEMYpCPLxcHFU8U1wwOm7QGrghiuqqsbFlLDf8Nj5SRyd8RREjhtGoUAERrJYgA7MAORxfDRVMC5MRyLEF1MGuQGVVsTfgXwlVVM76rRuQxLDSuzDi1r8Ag4bcm9rJaSpAGgb5ey7OpCoHNthc8HtbAZqaonc1UgaJjYERnnkgbbevrg7ubG5YWKiR2kZELtxZtmL2Hb2uN8NS08qUiwTAQ2JuqsGYk8G1uBwb4eLqLoCqxZg6+ZVXfyiTlST79u/GCR5dG4bVLI7tssfUIDbW1d9/riq8jJ5GIqCjo3OnQukFDK7E7g3tc7C97cDnARHqgMimRE1+ZLalH+23pYfxxc5L+BGgYiq6ioMZn1WU2uoe7f8AVtu1sPiFqWKMNILEspAQ9hyxIsRvwPTCp0nRIqsk2RqipWKo6K0o3j1sDdrAiw7f3fBgqJMRCqSLKVQxqCdXHbvv6YDfZZeDM8S0bveSKS7XRo0JBF99ja17i3JvfGJq4Ro0THYEHRoVmLfu7327d8B3OPpFppi0dTULoVWhj1uVA6gBvfn6E9/bDqV0lOiU8eqOqDatLBWHvb05w0Eksk4yZidgDIGKyITokN7sQeSLfXB6d0nqelPMJmCFyqXsbX3Ydv4ffBknyho+phWiio1cBxSvqOltF78kDbbjv7nCRM8s5hBBd7AxBrKtxx2sLA/rittya+CZzFAHpwhgPXKCK4UodV/U7nvxbvbDciTTxRpFHLcm6DRpJtvyeefbFWJZY6TszPLVajFGny0ljqD2Ox3BA/sYqjKKeVQn7SqfysWW4I/sHFiSu0yT92SoY5YptKqg1EBwEAa2/H3v+uJyVMkwCeQxC7kAAem9u/0xY30yq7CUQSONSWF28pLEEXG3H6Xx6tjRKZIowUmjOvVKQqoO4G/BJ7cWxVFJNI0N1ArZ5HkdI4wspdRYROtxcm2/278YXSoijUtKwMbNvZOLG4seAN+MXJbmZlnkO1WkvQYxHW11/EBc7i5HfbEhHFLCEMW1vO4O68Wtt64ZLaqGu8MLEoiqIi0L1SOd1AAY9gLD898KVULUqhmiG2kDzXIPYX5JvcD0xYsNZI1ao+lKqCOpp0gEcT9NSoBs1gex9vbFXHQ9BTHI3nY+RUUA24AsNj2x5bdtdI9yvkDNHHCgWGUU4uTpa19V+APXk3xiNwJ2FQ2sW31HSQRwdYIsB6Yt3JqkNzkuo3qHMTxSrpKXRw4fXe/B73wRXkjgskjyFgFIkOjSfa4+2K6T4Il0h+FxJQqWJRWXV521kG/GEWonaZgpVdMmsQxgAC/fFSuSxwKrDU1UIlVKlmVlb/8AGtr77G4OOoeEfiRV5C8aO6yUrEaIeoNZ3sbjtjb43lfYmmjNq6a1FTOiv44yrMZoGioZ2Yjd4kGi/v3O/e3OGs3Wh8VUQjqiYmsGVilnuBxf+Rx6Wc9HXg4x7/uc3bPTds5H4q8HzZfOrsomh1ag4/229e3ONeWCKodXSGaBVG1uW9rHtjxmrpuE3GR1oTuNoLT0iVEI1gyDlRpvb2vhSo8PCKPVGLqzbKSGYC4/UYpksKQ6k+zMuWCJFYK7bG5AubW9+ca5nidLzp5xsb8WHphm10MlfJQNrqHZfwlr2v5dP0wEZfK3m6mnSRaxvq+2LurCkrPOilWUNqt5Rfce+KiqymDMV01EUZBBA23+xGHjqFTinh8Gq5tkdRl1QscWloubafMRYgkWHpYX+mFZPk5ZWjUCp1voMjnyb8gc9gfyx2NOcZql0ea8nS+1LHAp1CsTGnptNMXIAAFiNxyRcbd8IS1siTMkzGNhZVZITpUkHYng7Ak29MXNt2mc+UXyDLNPG08VOQr+a7rsTccenI3wpU1cElErLNLLMylCOobFd7KtuP6YvjJuFCJ9sTaSQKyOjpIy7MxDAb+vp3xKpo3Z3bqaiCituCVBAN/rY/pg7aJ2RrESZ9EJsqMXVoL3sCb3v2PP3wKIrEI2ERVQlwTcamI4IO/JH2BOK7lF10D9BtqsaR1lQyIPIEvfvxbC01frn0LrkcA2iQi/px9dzhqtkbHKOvoKiTRVMEe4ZSYdtIBue3oecMLT/srGpL3PljjZQt+d/Yj73GFabCsvJ5qxqWU6f2pZundxvcjYlh3Njv3thhamKmcB2L6RYILNovf173vhNl2hewU860svUXW6C2ltS/kfYX7Ybjq6lpSuxcx+QshseDe4uADf274m1LgZqsg480CaQsIaALcljct2G99vriK5rTxB1jYSDjS99jsOe+/riVja+St5B1NfJoaEQKshTUryMdQN7abW29dvTEoZY5NZEgC6b6wbWsu9rjc3t+WLNsUrY3Q5TRqVDiqXT+J7ea/rt62vgnzIjCsYV0aidyQALXtYc4pSuQUlQ3HQy5tCGNopFBbplv3Rudvf37YhAk1JWgNAXEilUi1AKd7X/l9sWReHFlrT22KRUcu8jqyhGCtZw6338oFtj9+2IVMCGVkAKygkdNV1LpU7XIJ9ueNsVR3VsZUk+WA+SLQq8YMhJJRXFvMe4tbj++MGeGemK9RCNMVlLsALW/2ix4O388WjCrPW1ElNDEha+p5dYAVP/W/HA9uRg0kDu6QwxSSI9zYnSWN9tVtgOSMCTa5BLoA1cmXssKSCMMGAVdrjYkkHg7/p9cGhrJRDIZkaSRG1mMix27WtbcH12wZ3tJnBkGSfTqUooa9zp0rsL3v3Pt34wwK8QwSINTatdmi8rE3te9tht3xIu/T2WNdkJq1qjqLTaolF+Tqcjm47en9jGaWlMxD62cgkBQfxet19b4qgn2BNyF6uJ2fTJOWqFaziNdNrfugm47Dvb3w3LTSmQFgsbWubEagSPUH0xZWLQXhDtI3UpYVkmDTC4Yl22sOw7fzvjNXPHSJIzKFmW5Q6gmo3725+nviZV/I63JNtFMauKaa8xZBINIZ2J73th+WeGnh0dRZgX0kxSW1AHn2Pa/cYVPawabzbJiqp6eK6JZZbgxsCyo1v3Sb27b4YpM4Sacr1VijkAQrpNxsDc2O2/fvgKNKh7p5GswCyyQx3Ilc6RIz7YrqqnZGCnozKY9JO402+ne+CnTwCXqE4aaVFXSugLZCSDb19f7vbDMchleSNgwILIi2svA3Jvvvv9AcWOSeGLGNsI1Cfk5NKqw02ez227729sIZjSvU9F5GLJpVUjFwGXfcEg/x74FVUkSVtbUIvl8jgkAEqLG7KhB29r8WsfrjEdCsc7v8AKWbgI7WVfyOLd12K1gJI0kNRZY9IRSEKm2o+o3+v6YLDE3WS0LAPYi/Yd2sTc/XApqisbdY08+hFKnXqZzr3/wB3ruB+WKydw8dyqSudK2BJvY/X7+u2CoNN2Ok82fQcsTq7FOqsDH8K8Adr49DTpdSDuvJLEgm3It2x51OJ7h2ZaKnq91jjVkJswUtY9+NxgMD0FLO3UpwhAVWdlNmBJPHH6Yq2cu8BzRaU1VAIFmpNEMJYmMKdS2H1HseOOMClzJwkMr0413ACxS3DfU8YqaTkBcjc1SASrsiWQ2ubnsAee2Kalq3i1iprNba/IrG+j0sLbHFy9CUUHNYGKmvqLq6zi6LcfsrmT3W2/fvglPnk9HG0yKCJCFAKjXbuPVb4RvdK/YmHguMl+IlflzJJSRmKq7NIthYfn3747B4E8aReJ8v1VtTPUZsqtJ8kp0nbY29t/wCeOz4etSUJdmHX08bom/pFT11EtKaDqU5Cq2uPTfvcMRvv/DHL/FeUx5BmopehHpK26onUlU2O4ttuCDvi/wA7RhKC1KqjNoSae0pjRQvfpuvTa3mUmwHt74FDHLTsRa6BrgX59TjzFUdSxfMCnRGiSNQDZtIFwT641yupVLlZWPTIJ4IB39MNavPAU7Kyuy3TI5VQvqw3NsVstHJ57AOAPN3uMDdTsfkAaUo6SHzhRxe32I++FJ6JmuQoEd7qDY2N7/mbenbE3VYtNPICeNm2kRHkG9zv+uKjN/C/+ZRh8uVaWqUFpIwbLKfy2OL9PUnpy3Iy+RoR1ofJz6qlrsrlkhq4Fp51c6ldNFvbe+319cJ9ZoJVZ9EjMw0l9lJttYdr3Pf62x3dznlcM8nNOD2sZatiSVkqkKaH0tJEx1Gxuu/C8/wwvWvTT09SixgHUAWfnknkcm1/fF8M/iV4eCnqau0rEmWVimsggAAbHctt345wIVTETmWHWrNqJVbsWFr2N+1vQ/phm6diJNMJHSQxuIVjeOZrhX1Kwv2+x3H3wyJOjJF0lAmLaSBGfMLAgGxHpx6YLlf8B0rK8xQzwK80gmeW5ZnX8Snm1jz35thcGOkCuEFnVdxYbWuBxsBzbuRbBU0kC6wOw6kl3S2pSVZhzve9/wCXfDCVUVZMYNcsMpfyiSJXuF/Ew7jc7em2M6bsFbqCzpUtIzqJHjBASUDbj+Nxfc98Qgp3e50koArArYetyd9ufzw6zwxuOAlPHCJdDBnBcecEG7BtrG/b22/PFiBOVRYHtIw2NrBdr8/3ucLKTugvHIk0Yp55Kdlh6zGIio6N28pNtzsBfnnHpaGneQxKYpZA7CV43uFBFxv37be+/GGapOQWqVlqmWqkaa7NMll0KeTzYki4HF/W22ANQGoJKaUaOQxiVxvYbjbjfnvgK26fYnzIwiiMiF3hjTe0khVil9yDbv74tYf3QQzBjZpAyhgL3t9WtuMBurjQyjFrAeL/AE4ozeJOozHQNTk9vYDcmxPYbYhPmLD9oVeRmGnQim4F7AA87bbj1wUqS28hbawIfPzfK+enSACK69NTqtv+6d/Tk3tjDVBllVQW6h3bqE9Ndt9h6dj64t9Ii9TGJZZKalHTpmIZ9BkQhBYgXuTv+XvhLNYo6e8hidpdlS73F+OTseeTiuXpRFm0RWxSYK7usq+SMHSNVweTa/14x6CteKN1FOhk3C2bcgfbfc8YSTuosL6K6qMdUj9OJVkkQeaw23ta1tu3ubdsey+OulqJiZQ0RjWxjUAA3HYnj87e+LJSilTC6X6lm1PKKQU8tRD5ComCtYsTYk+hPA+pwWaCKWKF55LOJDYkkKwFuwFz6em+K4vNot04uXJXU9SsW5jgdVYkzAnfzXve1+2w7c4amr4poZv27NGQXYRnSFUA7Ftrna9hgqVNxYyiqpAKXMoI6CCZkEckoIVJDfRc+Xa9wdxz64YaukpxTlYrsfLpXzXe9iR6gepvc+2GaUWM620Qq8xniiZWjcjWNJQLoAt5rkcnjt7dsVOYV8latYYI5J24Ck6bHsAePXe2DhAbaWB+GOoip3JiIlYXuqXaM27Lze4O3qcWEtOKSOJ3iW7jQetYM5UXJKjbtipxt4FUUo2HipaSomV3WNZGActH5lsRwO3fDdYi62gikcWI/wDUXsfxH142++HukhJSor3eKoUxJ1+kttZO+9t7G3G3bvjM1XpQJB1ItF9JULe4HJF+Ofrh4wGq1YSnglM6pMju2jV1SbXUccdzf6c4sad4oUAUmSQ7JaMAq1t+OPbk4SablSJH+xiqoaetfozCWy7liT5trm9j9OcRmpaaliNOsTIqIY1MsjEr2Nv5n3w0tySingtUkuRCppY4I6dYUSbazMxO5t+u/r2viu0VUulZCRIzFSsYt5rXsDb9RgJ1KihyV0hun6qxkEDqEa1UDUb251du22IvHLI7yulSX6OhSGsUB4/p7XxZJvh9lij6QFRDFAYutUDTIb6SLtzbcWF+fzx4ZW7r1VZJVIJRV/EOcWxbqmVrmjtsbZs8ehmpoyFF5FXzNvzbj9MNQPPHTzdTVMwbaQ2sPsB3+uPMN+n0I9q/dBQsdT+zeEAtYsSdN+/bthqjytSi2aN0jU+VEGwv5VAHPB3wHJyjYcoDUxpYRFJI7tdmR9h3PsfXAJljpHVoEEzt5yJTvb1P684pWeRkDfNOpMxLjUSFVmG17fu4aXL2LpPJK1lUX19geTf13t98O3seMirACnpFVnXoqx6hYvI5sGHFvQWwaopmrJDWRwxozN5pDHdmNiCN+d/XFam6prI1K8iEYXLNUtPNGxk2ZHHmuLb878Ysss8Tz0uah4tRn0kxzxkDQfqe/wBcNHVUJpiuO5Udh8IfFjLY6qmlzA1d9AijWK9rluW3sDvucdBqPDgz2rMyVNHNCSHEZYg8bBh6H1GPUw//AC9PbF2/k48k9GV9GseJ/BVBl9Ms8dVHS6DYxSMFBuN9Pe2NaaamikemWVJpgt3j1gkD3H8sed8vxpaMrWUzfpz3RTaEHX9kZo4+lquEBsQRfnFVmZSo0Rj/AFmBJCcf0Ue3tjn10aI5ZTyFYtahj5gCVJFreotilao0VAjFmgJIAAZmS4PJ4A25PthucMdmZpIyWbq6drXK22+luT64pqmIhroh2Asd8WbVwh6sEja6ZPKWG+9jx9MBDiEEjShDXBa4DenHfbBduooRYYtnPh6k8WQf+ZGpnjQIlTuDGSdr37Y55XZBVZVWSQVxZn1eTSvke3B2O6jG7x9XalpyZw/P8e/3kQbUK1FU0ayLCiNpklddQtfa49x9e+BTUMCRmpnkaIb6ig1FfQ2HqBx6fljqwbSpe5wBGKipoQwimdpmJEBkDeZtiQSB5eRz64i7UwdAA7VkYLNEiAX77bWtsd/c+2L1TVPsXlmf8tp5XinjiDARlxHH+K9hy3BJ32GG1ljMymBWp4ZHKhRGG1AKSRc35IN8I04uhli7KiXLpJ40pFdCdIjJ1ALfYb33uN/ptgdTQTUupPlmBZGFwy2VTxxydu/Yk2wz2SyB7bsAMtqhCwD3VQrLZfbsTx6W74bOVfOZlTVFSJUmp08sOk2QE7ttte4F+e2KPTdjJ7UGB/8ADRXDuDcRpqIPNzdeee/vgyUTbMZkjUXWOIJfUBySR9T2xaqSYjTG4EigmIiUPGR0CC9rfvbX5vYduwwya6akYBjFGNFhDTrci4F732uT/HFS1NyRGImcVSGoVkvEPKJTcmxJ0j0tc87bYlFrpo1dqVFR7uGFrkmwu23P19cPbkht25ZExMqSSRxBwxKgSE21nbkb9gTzzbDEte7l443Z1kbQdrktbc/X377YeuKK2hqjNPHMyDpqjX0rpFhcWPHAA/nhjRFBBL8tGyxKdEbysSRfjY/TCKVWqHTwNxz6UiBp+qxGoiQjTcji3fjvziFYkME1Qi/s5LMwjBsQ9uwtfbv/AM4O2vxHpNZIOtPFOkk0jwBZDcyIRdr7g9z9PpgkVJSwq7CPUbnSwYln2534HAOBFCRaihFstr6eNJOtFpZfw9MNv/63977249cJFKtqJlaa0aaQXIIX2IJ++x3xZKSaoaMLyTjqCsRiaH5sldLu8gbe1wb9uN/Y4aaZ5o0ojHEzKtzCjkqB2XY3/s4SUUuAukhNqBZvl5JzBCkeu8CSW0gABSxvvcG/bgYzR0by1EpDadRC6FbQo2BF/pt+mJGpJ10FwvJ6PM6mot1VVIiuoGJdQuG3817W9/vhlKpTUyGKOMJGxJZXfU3sNiPttc4EorT9KLYIFU08EMep7Oj7t02LgKe/GFqfJ6ZDP0pujqj1LEXLEbm6m/bYenGFVqdvgDT6MBFWpjYOjXQlzOuynbuDqJ4Gm2FVoKhkiVHjfy2MsYYC5OxBO4+nfElGuASzSQJ4Y6GkDvUSQxhrOHcaV23bVcWF79uMOJSA5eKhAK0g2iMOktbuWtwNz3/ph07XAyjuwQpav5Ev5nZjdV0hVsOSt7eh74jTZswngDFAzkkGRQWYWA2uT6DthHF3fRW3tVMfiqnzPqvJDThgOWfSovbffY/84ElaJrEqqRByJB1NRHtf6YvqPDFaUmQNYzQvEs8vOoAyLpW97Da2wtthjL6mKaZtUMhBj02cjgb7ji/0wqjtbV4ArcsFl0wEhCO3VIZgsRKKTz+H+xjMVFKJYWd2lBCKFR7ne1ztuRf+GArxJl7i7YZqN4FWnaCRmMhk1GQeTk6jffkbDnC9Ktb80gUWVRZFchjfctc3Fue/rgp3ZVKLukOSZdEjxxtu1zdlILXPryP5YlXUmuOJWndlU30hhfcW59TvsLYO+ug/bYZIqeKNFhiUNIdeiPSzt239Tt/HFfK7/NKvTVnvqljmYt6c+h247YDlmx5XBUIXYuT1IZVUjX00DhbX1WP5DfvhilzAB5GZBpNjpVbadW17++3Hpi6HOWURjbuzuLOrIFeO5LbhdtgffDUHSCyIzQwFiGXqXJGx8pBtvx9MeY6o9xROKKlkBE6PbUVUhTz9ri3vhR+nC94Jdydgvl0+t8VXeLGGYK+MXLw6yvqCL9rHvinzKtWKSKJJeiz3PTJNyLbW27fzwkJU8htNWBgZHKIsX7UWN72NrAbXwzTVs0ioySAxK1tLEliePt+WI3K8EawPCoVg5lVEUbKzm+239cRkZ4qeSZ5hIii4LEabe1sT3b6J8lJWPHNFHPDH10O6yFLhT6k9t8QoopainQTmWOZTfUrarkH0t+ROIlFqyXbLHM6inpo+pHX1ETwLdo6aHUd+F1NcBsbx8MPidmE0Ip2oxTRalRqiaY9RrDbaws3Bvvxjf43k/bm2uyjW01KJ16k8IPXNHLJNTZrB0waY1khknJBuPMdr/qLYovEPgGVK8TRQlWIBAp2RiW2BB72/Pj3x0PL0NScN1fxMmlqRUqZp1ZXQtIaaCr6UkTX6TwnSQDYgMw7Eb2xWZjVJeOFVCTubB2YkEjcn0x5+cErN0bXJW1U7VUYjLaZDuHC+Vv5Y1+tpZqZgzP0pvXsQDthNzpUWVYstVJb9ozsRzc2sfUA49GsLamW7m3djYfXDYbYzbXAG0gQxhF6eu2obnbt+eANE34gyqNrkjfF0U45oElbEzJKru0cysQbjXst8bJT+Jcq8Q0IovENCWKGymFi+jYi6kAb/ANcM4qWVyLqRjJUznXizJ18MsXpKxszyh7jrRr5la26SW4J2G2NaoJsmztZWeYUy0q66iBtLMRqJ0gEg3J5a+2nHd8TTlrJZpnlNbQenNx6JdaghEEceYo/zF1aOdkLaRbfy9rG1vpvharipYYHElYkgWxOlm/Cb29x9PTGryNOcJ7Yowzg4ypGTUUfySSCbW0bsyEKqlh3txtb74UeSHpyKdNQ4QtCquQVUWIDbbEk/n9cZZRk3T7E25yQaerkAlkRY5m7lrhQNwdVzv/xhc5dIFXXVIGU3KB/Nq4N7/UnFjcYrAJK+BhYypDqeo6NujCyuOLkjfsLYkYjI8LOkxNj++Qin0PF+Cd/XCJpyySx6lqVqJGCDoqw8hZFUhT3IO/Y+2+MyPHJGjO8i09tXVYWNj6X4PNjbAWZchpck5gnl8zORYoiqSVO34bDe4OBJG2kjSBEj3J1kF23vv7b/AJYiXpGsNKjmkdI3WBQgDNYag/YXHY2G3qcLVCwx0EEEc0iMPOVQ7Enmx77+uI5tRr3FFJ8vRXCGNxxZUOtbjftfgD9TjNLloZmdGnkSI+ZXi0cA2te1he+EtrgMY3kJ8tBW1B0ylGvrRVAUXtazkjkWPHv64L0tLQiKUDSD5BuSFX62G5/hiyUriNJpIXFT0FqDeTWXUrHHJpABO4PNzx2vzvi+pqwieNfPEwBPlGrUACbX9TfBUrragxdiGbB3qkjkDo8VlaWRt2LEEbW7Dvho6IpgVqkkdY9KaRcW7i5O3BwU+QSVEWqoH0aI0mk0hAWDliOCPpxt9Tia0QzGKmikLPTwSM4pI20xBje5PBJt6nCNy5ZFNxv5K+uoBS00gadmcjUFSMlFIv8A7R22GKUzfKpqqZuvIBpMAZgVI3C37kd/W+ApNNushTsAapqxvJdYVOoonDHa978c229MWKPNBTTq88U7K1unEhBJGxJv9h7WwVL7bXyXOkhuCv1JOEkiYlNKrEOW1XIAtzz34HOE6irjlhl68kkQiF2VWvc7C1+30w7i5Mpc6jRmnVz8yq0s1OpNrJUKGRQdiL7Dc/X1wGKlqXqFgGrVIApfQQYzubKCfMdu+LHW+3wPBt5YQlsvSNRPFNJGLPCXGoK3qT+9+m/Nhj0eZpO0aEANKSIoS2y++rvb2GK57pRwiyrsjGlHXZrCDB1HRvOkMNy9tgWNr2Pe3piwnpVpqwMx+YkLG0aKNNh62sAfa/fEluwmGElutleKWWreRZwkbm942IGkDbSOxO+54viGUwSQpOaiUyVLx6Ujka91vwGHe2+2DNpRpC6iTlZbtRxOHliZZIyvmRmIFh3N+2x+2FkyyWos5lpymoFZFj3t3I9eeTiqLbsr2tvHBYSpAZBeUK2pirRoHUG3ra3G+F6XLXmleJ7WYhCJJAb+9rjkb7Yshuq0h9qjgfhyES1cqwoZJCvlk4AufQHbvtucZkLUK31CR/8ATBXgb9vQW/7wzvjojbjTsJUV06UhVEiRjtqclWN+1u/1+mDU8ogidSricr5gI/Kuwtf1PH5YZNRjufIqb3Wxh1eoy68lSVYHqPNIAgO3cem/b22GFIay4uIY3IbUoPD2O2/YXGBFPPsCUn0eXMJI1EvyySosjIIipUMexYjc+tr+2KlKjQVVVZHdPMJhpUm+5Pe9uPTbFi2csjk2Gy2CDplpkkkMwsY4yY7c913JOxv2wwcpeqiBkhbS+r8INx6jV622wu7/AHIfbwkjrkNQA4RpTpdbhl278H2xaQQq3+mA0tjfUQRbn7j3x5uW7fR7G6VDcVQ8UjID0hZdgSBtz7EHB6qaCsnVp4Ea62B0WJPYk98VqOcrIRGqpI4F8rtAO9rEfX13xVVLrGdTzrIQN9Nxc9ufTFSSu2xlxZmkpqqtjepjjeJUUqglIGo35A5OA04qdfmjDFzqLg7arb7Ytk7dcCrKJrB87JIlfNDRxxWcWkupPYEcn6YtMvy3TBHHGuinWzJPyQe5I9PQYWalarhjNpBK6mamn0dVbooJYN6i247flfFTmAqGs1NUCB1RVHnB3tzqP9OMM5cqgNdi2XVJhQwhxPKHWV5ABdSTcgG1rj1GL75pj0HSp8mq5ttffdT9TvfCdJ9h5RuXhrPkrJKWSaQSrTJaGWEWaFiLaoyTYd+2OhCkSmp6PMfmXr6SOIq0lQWaZmHrsLfXvtjv+PrPVjV8HO1YbH+ohmWUVPiCeJKOgFHRalElSyxEKLG48puBcfmd8aXnFHVZSL1UcjKSSv7IdNrG2q98ZPJ0n+UFyWaUs7W8lV/lgqkZzIUQsSFOwv3598U9ZRKIpYmlMpPlDcheb7e/rjkztPJtvJrVVlopQUDPGPxMQ3O1r98VvWaJB57FAN2sR/1h8Xgd+5PrdSMS3urW3Q89tvbEbEqWJvsTvuMXXfpYueQDRiNrEsVLXO+2MvAsJADEoeCSPrbbEctypMBCnnNPKsqusB3XUPf1tjnHx/y2HMvANVVU8EUdTTzRSNNAiqxXVpbdbHuMa/Fk15GnJvtFGot0GqOVfAWmyrNc4anzeNqlHk+X+WWRo+UY69rE2Kr3tvjuNZ8J8gruo8EdVTM7auolUxKHawGq/oMdf6pq6mj5K2PlHM8bRhqpuZU13wjy5mX/APms0VRcqFRSobTa/Ht3wJfhBG0MjU2c1aysdRaSEWvYjjVwLn645/8A1CadOKZc/Ag+GFrfhVUEFYc5kliOyxNHva3BN+dubYSb4cZ3SQy9HM6aR9vK0dl1b323PFsL+3xb2uBTP6eksMQp/BfiyNJetVxza0taKXSTbfuOTxhmmyPxLS0UBalEksZN2SQEMPU39SPvvjS/M8aVp2jNP6dNJINMM/hEv/8AG6epexQAmwHrewJJbb6YWizLMeu2vIZ44l1X1qw2CkbkfiJ/n6YbTloykmpFEvB1E+AlPm1dI9hklamsABREbKbk2G47AX+owalzGfSH/wAsmh0hkt0SZGBNgPTf17Ya9OLaUiv9k1V0SpK+cR1EslG03W/CyqLrxyPYX9vrxhuWajWmBeOaMKL6VS9xYG5PYnm3rihuo3ZW/GmugEniGjDStHT1KnWgB6dhbyg/X7Dv9cEqPElKacIKgw+YaVVgpY32B9tjv79sWxg5KkVfa1IK2hGqzrLKitWBqhZAwFyz2VDfnYd/T+uF5szymnqlmjminQ6gJtZDsT2Ha3c/TD7ZYVFO2T5PSVtL1VlRBOeod2UgGxPJ9LC9z7YPHWNVmwYgC2p2bSo83YA7jexwZNwWewNtYRaU2cCMqq3dZLXM1gzG9yFHvYD1GPNIJhTo69CIA3AIDFuDY373/XBXaH3ZSIw5mHUTqt4Y7FWh8zWF7j3O53Prh+WrppadGESiR9O0+wswuTb14wLWfcZclZX9Ony8dKlMzNLqZNTQpI1/vt229e2Kqryp4qeOUuivpDLJJIWKspPJN7kg2vawscVQmmw07DtSyUMkl3aXWLpqeK1juCNhZR9dzgNfSikLESATPFcK6sm+oqWbt64dJMZK4uxNaykiqVjkCoV8vX13u48twO1ze+JtBT00E8yzgSEkuFGkDc3O/bbDTbhVCOK4PfJ1MUqXpIaZlBOuFTKZdtRtvcdt/rhqSmkjqpZUjaGJTrfrPYMwva3pb07gc74Cppoti0ltZFZLVMKlZASNLv0hpmNuLbE9+ffDsMkFIEMzSyzoSQ0aiMbncWHPYYRyeFEtUXVoyZah4VNG9PTB7xtNOm7PxseT6YXqYJcvjUIjTuWB0gBgZP8AaAd9I2P3xHP1JDbEo2zEWXSw0Dx1SLGzXkUxMWk1d+TsOe3GGMvqHJJgSRQImGgKF5UgAk8Hg+1t8Nti5WmVxitthlErU0QleBVmA3QHUGtew7AC3J5JwaBqKd1nlli63TJbqWJsDawPA37+mF+1iiblYKejM0MRCuUbYB30A7cgA+mCSKYS4dadl6JOnqWMvNz62579sXwW2Nkm1RhqyVIiIKVYhJdxaQ6mJ5sx/D/DvhOrkqKzREsCTqDaTqiyiwuW5332+uDuU/SZ3csMzURV6JEFkaNpLqZDpLFSOBe1sNUrSUyu3VfUbLZiLb7bevP8cIpJ2l0RXHkOlVFVssYpWkJF31IdJbe33O35YPP0Y4rJEqTqQrMrsQDsWPoOLe9sPuULVDtp4CTUpZyI2YxoCujnRf2tyPb3wME9TU6NI6RkFolFreo9bYVPdJJoX8RKurJMrUIsLJVsgMb6+Pf0B9sV+UPV04qH+Ynadxd44JWEKgi26339d/54sg0rceCxPtHW8hzB66nSSVkNOfwoTwPTVi8pZZoWchHKC5VtOoAemx2t744msmm4nqNDVWpBPsuo2SpSOokSwBOpr78c2tibr05/2cyyx/ulVBtt6Hj/AJxkVqNs0bqMQFwXilkXdrC52UYOcippIFL00UgZbKJG1az6AcfnijnId6qh5KGloQkoi6EZATppsot3AGwxCpoVleJonjiZibIy7fr6YiVveT5AwZDFBMJp2gJ1F2kjWwXa+wHJv9/yw1JHHCsKoxMRW97g39yR2wGvTlgi7yVReGeoeF4gVUjSsZvc+trb4h/kkMsjfLxN+EKQstgbb2seN8PFJFgvW5dHRwKsvVZSxIUyWJ3B2b054HbBEkooVLO0kkTMxjNOu9uwJ7DA7eSW3wWtPm9A0w6OqHSo8zNdr2/22va/542XI/E9RlWYpUR1AdBb9mz+Vh3IBtf09e2LtHV+01JYRRqQ3LJvMVUPFI+Zo1lgqCNDl38ibg3CLybCwPtgn/wqqz6SmiqZpDYBhdbahckkq3B4Nthj0bX3fx4Zz932sdmpeL/h5nWSyxFKZHy4Jb5re4+qnj6nbGlzRTSnRIirJckLbZdtiR6+2PNeZoz09R7lg6WlqKcbRr+bwN0pKySeILa8nluW32tY/pjnvinPq/JKlP8AxVRFYERT3uw533v/AN84fRgpLclhHovpnhx8rUSnhCOVeKRnmb100sIoqeokDxxUKM0NOb7qsdydIHa5P1xvjZPG1e9NFmFJPGGOmsZ+nFKo07qGsw/ENrXx0F4n7RDdp/k2avq/09ePOMtJXF+3v8/qQzjLcuy6sWnpM+y7OpbBpBQNIyQn0ZmVRf2F8VjxrJ+Kyycex25xztTSXjycG7fwcDV05aT2yVMBJAGI0jY/utuBzucUXjHKRnfhXNqLpWeaklUIptc6SR78jFkZqMlN9MyzWGfN/wAD81o8l8V1jZlWfKJ0HeJCgMTTD8BkJ4sNVjvvbH1azGRYgfOgtJYNa1/7OO99Xh+8jP3WDneI2k0YJPU3BuwsN9retsSm0qCQAq3JIG/8ffHns5kjpIg87RdIgjfvwcITV3ytQaeQSaiWIcxs41X38w2At34xXTTaK6bHoghYMqnSVuDbZtufocTTSIm07nlhp3I9v6YXbuLHlEQG1NZULHa3Ivz9sSREj/EL+XygE29MXwi+X0FZM+Vzodg9gARtcc/pvjC06szFlNiLMx2+lz/e2DGmnkOALUkHVCmJSdO1xa4739sLPQUtPHoeBVVje0Udxf3OK1dZYNoIUtMYVDUjSrr8jRFUva12DDi2K6XIcqrox81kqBhspmuNrne2/r+p9cW6Tnppy3sqenCbpo8nw8yF1mf5K73F2LlbH6A/phGs+GOTSAJHSr5lcOrSlBpPIsN7bji3GNH7VrJYdlc/F0muBKX4SUE80q/Mz0l3MjQJOXUXAB06t+wxOP4VUny3STMKyOINt02A4Ftrjv3A9MWPzdSqaRn/AOn6ViU3w4mWoZVzqXWLMgJLMqXvc3AFycIZr4HzSGnp1/z6C4a5+Z2ut97d9Ww9tzjRDzE8SgUz+nw5Q1J4Sz6lh0w1UDroaNtEZaQqdxYAgbED7fTC4ybPstj6iyLVFpTdnTSylvQHa3ufQYP7Vp6jpoo/6dbuxySk8QRrEUkSsCMNfXOjfg6fXYnEsuGaz5myf5fSUUSBZ5ZxJe37oUjk3t+Q4wkp6bXORJfT5WlEqqzMPEdDWrHJQU+YRW1gJGQXbfbUdhyNjivhzLN6tnklySaY6dBkRVvyeBfv6j0PrizTlo7bcqbEn4Oom9uSyTN5KacJUZXNBMwAeqkh1i/cC3AI9+3GAPV1ddlskVerUkhLaVMdwVDbG3Ivft64tThJcmf9m1byi0irgsM1HS1ViGQkzKF0R8tck3A78YVq1jie6yCsWZdckUZGlFPfe+/Frbd98JG5W+2T7D5Y3l+YU8Mk6SyLJT2AQq5a5seO3/WM1lVST1csD9KoVAoWTcbX3tb0t/A4koONMr2zhweppZUR6loxJ01JTqTBid9jYgAE9yT6DGI6SolMVUk8TN3j63Lc6jbc2/K9vTDqPqcqFdt5Gmy6GmLQqYeqxLalksSw38wvvza/6YaShmmEsdSjx0/TI1Gxve19r97fna+DCkgTVJKzFXRLSRxxxs8rDeSRgNTk72UA2vxv/DC0VHHSxGm6Kz6SGIZbXHpfv/xhVLolxiFOYRmQRIjyygaCVKk8XsOQDv3wxHUS1Ee9NFCbAESNc/awtx/DAUdq9TK+eRauFeKfVYTaTqHT8pPra/b9cBlnmy1Y3FHoWVi6PICBIotc3N7Dfth96StYQU2/4EKWeTMasmRYkpQdLsFuGI4F77c/nh5qaCUtJpCiIaQYg52PYW7/AK4Kpt17Cye6rImijkQmCpmVXGs6V8p9AL32Ft7W39ScO0dNTQyPao1GWxCqLDY79r32+nGLMNU+WTnA5UVM0P8ApyuUdrdRIyVbtsb78bm2BTF10xxB6iawGykXbb3OxBHHfDJKPqHnGsooI6XMJKnovGUm3GqR2Cg2BtvfgXH1xZ9WdAwWKMsygtNoCAcA7HnhvbFijGcaBhYQOgzKSgnIY6QBqjVGJLWF99vpzjb/AAx4tpquaCRGmTzaLzsSre9gf198czyY7k5I6Hi632554N1qc0ytyixz6Jn8pjckhm9rYcg1nV05o2C2D87+th77Y5UotfoehjJSqzFNSTgkykJEWuo5IG+1+cXEMz/LBHUSQE2Aa5sfUf364Ti0+AuuC0GXmOAuYSCliVIIa3Gw774FPl1NmD/tJF6u2lQwH8+cUL4BGVGKaj+QlvNPLNqJQLq1m2+3tipp6V4NZnXquAT+zQqgBO21zYj+9sRTp1Q980Vv+URiYvBGKXWdeg3svsP1O/rhetnqaaQSwvChjARioN2HsP8AnBU9mWixJMR6FRXQhmLiQy30h2PqbHULj8+31xaNFDTJI8rhWRR1llUqL9gDq+/FxgS1M4BTWSwWr6ixSFElFhYrMugi9vKxNxvycCqG66a4pIpnQkLHqDXN+L/TFOrbIqRZeGPHVR4dzFZY1ngQ/wD5EBN9v3gRb0x3vwd8TpfEkf8A5E6U8p2K9LSbf7rgnHo/pnl42Vg5vk6KfqOoEU+Y0VmVXjkTRZluOMch+IXwj6MclXldzbfokkkX9O+Oz9S8VeRp748oxaGpskl7nE/C/wAW/DvgnxfW1Ga5dDm89GBHltPUMOikoazzSkAmy72UAkkG3rjj3+Jbxtk/iLxFHU5dnn+fVlVF16+ogpTTQRTEkmOJCSdCroAJ32N8ZY6WnDw0opbu/k+ieB4+r4vkx1H+LX8vf+b/AKCnwj+JmQ+CKOimXIYa3O6erFWaqqlaSOSNR/omL8NuSWNzwNrbn/xE+I8r8T+N4p8tyA+FpFpYpajL4agSxR1EgDs8dhZAyMnl5Bv9BQvtaWlUU1Jd8/qv+Ud/7Or+1/fnO1Tx8dfxRLwplrUOTwySKBVzjU4LeYA/hUjti4YonmOnSdj5tv1xxHBOVnjfqGt9/wAqep0ZvGZ+mvm2uurbf1vhdpTYqBqVV2IvY7b/APWK3BN2c10z438bZQfDvj+tp1BCJK4v/DbH1vkFUmY5Jl9S0gMstPE5I9Sgx6v6tH91pz/zg5XiY1JIeLGAgvd7+X6fl+WIka3ULsh7rvxjyTTZ1D06BlYSLr9GQ7+/0PHrgfRZmCGP8jYYjWbJL3DySqGB1D/cPNtgQcqSR/qr3F7j+WGU0n7kTMpPZTe4A/dYXH0t98SYurBva9jhnJVgnyejYRmLzNduTYj8/XGAh3AJG2pbi49O59sVR3QkojtnkkBVdQdHtdR2PO2IyTa9TOFJ4sRfULcYuqKAsAmQ1sEUnUaG3nUBbAW4uvPODwKkdOokkWVr3MoXTc/rh5KM0pewrVcEmYmsa5RgtiC3nBtwCP6friLudKcufTVa4NgRjPmKk0HugKSxqTGW0G5HTFyTtfc8DftftiRhVCFimJdWuSFufzvi67SGV7jEVQoMkWlwLhbOOT7e1sEEepQXCyBfw6hrH1/hxiKLi2kBU+RerSLUsrlNKDzM2xA9j9cU9dmNLWSGnjEc7A3YKwBUAcEdz2xXp4tkdLCFqanNVXl6iWQxR2CheXa1zewsQB6d8HpoaQwTLJIxmlYuxjOm4Nxza42sMbHNbml7FeUW/wAvR0kZCp02P+nqbWyXFtRNrE4GYafdOsjMUJUKbEeu3H/eMlNXJjvkDHT0dTOZJkRmkTXfWVBAFrWtxg0ojgjgGmRjGwKxxG6/cnsOcXpyaUmwuuhSphoZKws1ODM0Wkmb8HSZh6ct6H7YrRkOW0MjJHSK6Km0xiAW4N9+97/oMPGTUqi8FLinygWX5flldSz66GOaUCyJGphP+3ysbe/Hb3wSs8O5MT1ailhjWKJbJBrIAv8AhDAg33/riyWrNZbElpQfCEJvC2SSyrqLrGhISOPfa29+5NrbffA8s8P0GX6yoJVn8jLGx2Y7Kb72ue2LFrzmnkpXj6a6M5h4DhrM0knlrpxHLIEWLpMOdr37Ae2Cr4Np8tidIZp6lQPJ8xOfNa4ttbue574K8rU2xgqpkfjabywL+H8tFQsrVUsLaS0ixu1h6gEg2H3wzLk8tVDpir3iYHUiM5YHstxtsPyPtiyOpSTkUz8TTuhGg8O18LzyM8EkjswUMxNgL2IAHNrbXxeJT1wbqJKqkKSSYSQtx+Eb8De5O/GH1PKjJozLwdyyxWofOlWNY1gby3Y2te5t/DCNZl3iCtqetVSwzsgSIfMSE/swLCNbCwHfy84K1tH8WL+xSjaT5DU2UV75f8uWorvKImhVGROxJ182Ptv9cBko87o/myaJXjZBolMildVyOQdhhI6umni0Vz8Fr8AtVk/in5IPBlT1PVARpKZDKo9FJXsed9sFoqbMKaKF8zoKyjR2/wBS2kB+4sQLbcD6840LW0ZNtSyVfsslmg9X4xEEkyfIzGMKrXcANY7WUDm++IUfiulkKSywtTq8giDuukWv+IX4Hb77YuxJWmZtSEk6SM1niXKdEyws8Mw161gBuhLWsTxubfbjAxW08k8KNUqrr510tdva+3F/7tiNSg6KakpWywqabpS02uC4jSxZCBYXvZtu/wBO2F4YvlJQxkcGWYKsb8d9PHe3P0xTqYkXQwjbMszdgjIm4VfPJ+8bjcfrjaaaocmJo0kMpUXjt+IW7E83+2OZq6bydzxNRNbWX1PmLTUaU8lK8UiKBrqIwoU33Nr3++LSSBKmCMRyan/ENN3W/B2tjnTWMHQZcU9Z8hCTUzU6xxA6ZncAKLck8YNT09BUxpWI0RU3AdSLXH23NzfBvG5Ff6Hno6cM5QFnAAY29O+3fC0US0wIjVg1yTrWxsO4t3xRL3HTFZYKH5J3equ51AkEuSb2N/zxrmeQwoiQQM0pvdF2AG3IsLYfdTdj5srOhIhSKQgdVN4idDLvawI7+v3w7lma00Eil6Vq6IAxSXW4JG1xc2/PscNKpIsp1Za0ue5d8rL1cpRal10gAWW/8r+18VVTOK2QRqbFiPLHFYbbkAC9uOcUOSV2RKuQVKKiplYqmrcWVu/qRi0ocwrcrKyQS9OVTcupAC27c8YfTkllCzjF4O7fC/4tS1lPDBmJWYllXXcX43P8DcDHXJcySKnWZY3qHlZfJGhfnbgdr23x7zw/JWvoZ5SycHW0tk66PyB8f19RlXjDO4alZKavWrlhqVk2KOjsCv0vc/fGnNmEk/4rhiBqPrv+mOdovGeD6tLXjKK2vpf2Nh8I0lZnOaQUtGoeR3ATUbAnvvj6t+Hn+Higenp85zbMVzCsYHVRoloo5N7XPLEc77Yza8UpYZm8v6lt0/sw/Lt+yKTxJllbleZCnzOIipQFmsdWoX2N++K/paluDZwbeu3rjk+RJxnhHk5KnSIOBGQytcAkhr30/bCr1FPUPHCJ4wS3qFJI9v75wquUWBcHzr/iPyT5TxVl+bRC0dRHZyCCdQPP6/rjtHwxqlrvA+RXIP7LQAuzMQxFv0/THpvNlv8AB0pfp/Y5eituvJe5sjOkT+Q2Rr8nj+mF1pJI5iRJ5FsbE3BbHmpKW24nQTomrNpIdApB0ix9vpziDHyrbU1u623N/W3POFtUWdnpYo5SbXULtzYm/fBkUEAuynQSX81z9d8Vq1dLBEiJRWSV0Ybblix39bjEUp5I4FYKSm4LFSoxZVLkiVYJtJLHGdTApa2nZft9cQVkcEoNTWO67lrcj0HOFWpuwwgOr0OnJGkkzrsRGbfXnnAqqplZdZVKW4Pnl8zIb3vbvcbYdRuJGr4FIs4Ut5qyKS6qykfvajY274s0lW5EpCFfJcAgggHfA27RODFQHiMZSIyEg7k2A+pxkSSqi2RNAF9hexv2vz9MSSqFjr0k2GgxrL5mtfVYEjbuAecZWo87GNkkKgqwkS9rjkAcHC2k06K274PRx6akSsSVItqAJI+ovvfEmd0kf8F2GwUc3+vNsOtVtV7ljSfZXZjmFHGscc86GUXFibAEC9txyMKU2WtFEpEj2lJW5swNzfawH598WLTlCLfuK84Dx5fLG6okU0isGYlfKD259d/TbCVTMKWUzTRGOOElGSRgFYncbn077Ym9tq0BpEIK3q0srUkVOLoGgjtfXuLnjbnnAYM2qTPUUhpYY5UW7JTWC3v/ALhbUdh7b4u2pRa5FumGhE9ADEaosNTSFprszAkXRbcWve+HK6vWOH9rIemGuytIAE25JHtiuWegqNGZJhDRdWFuuXsA0TkAC9rAnETKJL9J2Vm30PvpABsABzgqcE89AymKRLPWRLbXTu4YXljGtRfmxFl9RfvhiGCSCJFqapp5gLEIAoYdtgLX3wVOPFchrsWek4Rmmhc7JrqGBN+bhFsP4YnSf5hSIzJSKVFlErVBdrcXN+31wyld3wLY4yVFZ+GpKul9yt0v37i+3ftikfK6hpzUtmk9W7bJGqhY4gTxe3pbk2w0KpKgNXkMFzGaZ4KaSIGynzzK67bMNQHJHrh+SFI3XdARtIdZFiPUg7j6YjkuKyBRzZGWSeFW6bLHEqktZdRJHBB+v54JRNPUISJjMVNrSDa3PAHp64FK77GSLER06uCy9RwdgwJN++1vX+GASywqem0i2BsblSAO1xba+FlFweM2PdLIxDTJAGdRZgLA6tvbEtAViJY1S+5Avp/PFVtqiVQWKplpZdVOzJcfszExFj37jBaWSooa4VVO3TmUl1ldeoynfu1+xOLFcvyA8YRav4rzNZPmJKlVmuNMjQx6xtwvluL+3rgMvinMKpHWoningkXSyTU0Zt//AK3/AOsB6eljbElIrq2ny3N3W1KiSWGsvGAWsdiBbYe3tiHhPwnkeW1zS1GWRZkSLdGa6hbn8Q3Hti7SltTyVy0oSeUUs8iU4jVXUu53BU229hzt/HChnDBUiKSMAWBUX1AckHgd9/fG6Ss8euQIaeneQpI8ShQSjKCxFr/a97ev0xf5DnyNphkchmGoCVx3PYD098CVVTLIarhOzfvD2byCMdN0ZXAAIbX5b73Uj+O/pi5pZaSJyydVnuAIkW7aTfsQPTjHGlpZ9TPTaU1ONxLgTrWxaOjeMA7uLagebDGZtUgZXqFEYO2kA2Ntht9MUSiuWi5Kw8WdGnmEBp2ubWlLsB7Ei/Pt74RaoarD21QMpDFFe4Hff0wihFr1ZG4Iy0UoqKeWWVpEUEF1YEn3sf4YjV5VVvDqjikmcWa9go9hYC1z/LCNNJ4CpcFeuXV8AtLTDSSb9RLbdhcbflvgNRHVoTrbzX/Cq2EZttsfYYKdrbEZZEoahYE1KxmkF/8ARXv9cSrHqWX5iON6cAgluLflv6YKj6bGw2RpDmlPvTvThVTX1JNOpn+g5HP9cEp6dXHT+b6Lxx6mfph0c3sSOD6bb2w+P9otZD0VeaIv1JZC3U06hYFiPa/uOcb34Y+Jub0D01MuZV8FLGwZksAxFuLkHbe+3tjX43ly8eScf4lGrpqcWqNB/wAW/wADaX4i0FR8QPBxvXxIGzehVTeU/wD95Bb8Vh5h3tcd8fFHhU0FP4ny9PEAkjyr5iNavpgghSbX9bepG9selhFTcow/Vfo//Jt0PJktFOX+3B9eeMco8NV3hSTPsnqsoigyxqZcrpaJ9E8SG4eN9Iswvwx3NrknF98OPHLQZW7TSWufNvjFHQmtNqXKKpThu3p8lb8Q/Ev/AMrrYOiLiEnXKu59htjUqaQRO6qshjvu7C3I3tjl+Uo70pckUlJ0HmLCA6FuwJ1E2IH9cVzVkyyiJ4EWQg6HNzq+o07fnihJfkB5eDmXx/yo5n4BllvGvyEyveFCAqtsbEgdwMOfBx6qr+HtGi1SRrGzogA8wF7jfjvfjHotWal9NjJZObHHkNM3T5cwuerMdTnUWBJBH9+2GqeJElEikn1u3mt2vvjz/wBzhPg6KVoPI7tIpKlnt5FY2vtv2ue3OJMxYMEh6QW4J08m+xJvinbX5BrIMS07v/qBVFyVUg6sReoQsyNKgufMtxqFz/tH1wI4ck+wk0qFUsRG7sBZPITY/fvivrs7fL6mIfI1UsYU9RjGx6X17C59MWwptJsDdAZPEUZQySJVICSC2u2kD/1AuRizy6q/zOhSeF+pAx0h1UC5/iee2ItNx6wG2Lz0YzSGWB5VMUgKyHe5P1uCN9++EsvyvMklkFXVq0Ideh0bhgoH79/U4F1GpLJFdl1JEUYawLKe4G3qbffA5mUq8ckvVZwGIK2W1uLjDxjabI8BIT8uJAqOSbEWu2ruOe32xmeepkiAiiUMLXLx7MO/vt9MV3GOGPisilblMOYxdaokkD9kQgLfYb3It25vxjOUQUcRqaelqZJWazyJIt9J7adr9vXe2A3uj6QfoNmpj+ZMB0SMq+Y2FgQNgbG4O/GFKhVX9q0oRHZUBCmwJ2vf7nDOLw0CqwmBmocsoqVWq1iqH8w1IgLWbv8Af15NsV8niLLMs6JlYrSEkK8KkmwtxYbW9xtfGmEXOk+xW6bYagz6LOsvWropnWklLBXJI6luTY2PPb2wnUOA4gCmKN7jU516jvYDe9zYnt3xTKMtOdPoKx6mN0VP1ISWaNLbKdl0ne1gd9v1wxUMSvTd2C7amhi1XG9he/ti5yTxRMUIVWbstTGKqDVE5J1qLBRcbk3sBgM9VBmKukOt1fzdaBtSlb7W1D/rvgrTfJMdEopROlKVkZEUDWk6G7C4Fv5+1sWkkNdTKj1FReIk2jhsq2PBJIv+uFlG2vcFYFxGkM5SIMZnGoBALNc77k4wjjgnQjuA6psTbe4ZQNvy5xVP057JbZYRRkOeoY5RJZ9CM17jb3AvjE0Qd7EKoO6s5t7belsGm1QtJFZWZpTFzKG6gjF3Cw7+2/6+++LOnPUgRdDLIyXCCMMqrbfUCeP4YucajZGrPVjQUadI/LwzaSqpJpQsx4Nr329MV9OIdLy9eOpdSbyJYXPofe3r+mBFPY5Pkluw4pEnCGRWQAgnpgXA5ufqbYsv2YgJRf2ZBJUmxA9R64rl60nVEaa4FZswahZT0HqY32RViVQBvcluT3xVpQ0FZUmqNFpe5OtSzMW7b/TGherAzaaosDRxS0phQS9M3snUNx/+zev0wUUgSNJLSBu+uTy+mKrUVROXbCpUxpIDLOIg90RHN/yGDV9etGyIkU0skh5N7KffbYYEZdsnLoB1upAAYwFO/sCRfnA2d9bHyKttQVQSR7c7/wDeLW6STFsE1RUHyxyiObjTay8bdif17Yi+ZVERjMsyu62uVU3uOe/H8sGMUsIW7Ys4jeVGdZIj0/P5LgWG4/r64DNI6kMilToVwvUsCSPQ+35XHrjrSafpXZ42LXZX5hUzqzv8u4URgPMmlwTx6D15waWCN1maGW9R5BYcbbWB5sLjj3xXKL24WRtvsbd4Ioa6vjRKR5AEZYmWwILd7HbkEY6fQeC6ijpY5Z4nlln0npQuWKop3K8XO4vvjnyVq2dnxVKMS7/yWo+RkC2ERs2qV2bV3K9je9vrgFLTaYNbULt01CAECx9be+w/rjBrVwzpxp8EGra6qZaSkpqei1EhpZjr7erWvt/DGKbIK6uoZCtNVDMU1EOU0U7AntvuB7jbffFFrYqLFUXkXoRmEVb8pVNEZkOpdKc7XPO5Ue33xsMFI0kN+o5qSC0kaOC9u1jfbnC/lwC0mTgr6UUTdKWVTGNJSZSLNwbHv+eNO8QopkvJM6tYKr6gwPNzY9/bBUqVjQw8iCPJTxpNHIApW7Witc24Ppgfz9TUP5NAa4TUW23729LYkswtMtVLLMmnSFJWeaSWRgNCN+FPcC1sQln+ZXpFJzZBqBcX09yO2Gjut0GrRXRAfOBAY6gJqCSw3U6e2r1IOLXL5ajQBLOapVYhXJuAu/ft9L4ClSpx5F7o2PJMzlpswpui8yur2SIOSGJ2Atxudt/ywz/iO/wWZRR+Aa3xLldP8j4nrGT5qlOk0UBJDWQBbh9rFgdNy22PTfTNPUlCU7xH+vwZNTV2yWnX5HDPhf4JrMkvlubQximmcKFS1jcbgnHdvhz8BMv8SeOcoy1BJHTPJ1Z1drp018zcdyAVH1xo0tV6utFLsecNmi2zZf8AE38D6P4fZpBnGTw/K+Hq9yDBHtHSz8lRbhWAuB6gj0xwLpB5JFSRZrbkhf72xyPP0/seQ4t9/wBGTQnv002LT1UEZ0NIsclyvmFlPuTxhOWgaOXqKGdmIZdUhPHoOBfGRekvzdFD48oJMy8D5/SXJEtKxAIuRY3/AD2/u+NJ/wAPNeJfCE0RmRJIaoKVcFl3Uem3bHUhPd9OkkuGYpJR8iL9zrEgRSo1WOk3AjuL3uLD8sQZwySkay1jza/F+/B7449JxV8m68CNTUOgcoriS12cnQDt6nY9jjM8kkqmRUs5t+JdV99v44dtcMRch6OIqxllKKgBBAp0AO1+SLj7emGJWTrtIq6rNa7rYel9+wxQ0pbWWXWWQirIJtYjKiRQRYXuL+v1xJqcyOGu6EWJW5AYj2BxNpLTVkZaOnLmRlRWLDcGxb+/5YPDJGirpMVl2DatQN++2GurG5wTlWER9UyJIEtZmPB+++EqipCqZEYOnK32J3598WRVLPLFXNsBFmBq5GjIdItekS9z3uPW4HGG/m4EhMLTwq+xGrZt7dvX+u+BKO2WOAMBVyJHG8hq20lRZ7GykkAW07nFejVkaqzTLI7pe73CuAbXBH4e59cM42w4WS2afoxICjSxbksGBBA7W722wWoSGalYz+ZBuQNywPsB29MK4VyFYK6npqCknMkACyFjdhAyszXFrEi/vf2wxUVEX7ZGYGOw/Zyrc973ufMTti1btt8jOPZRigoaiZ5wZBK13FlYqpA2A3733xKClFNeGekRLltLJZmt3BX7cHDQbSqfBU0uQUVHRQ1WgVPTdRbQ8iqLH90g8W9jucHFNMx+baa0IYm8VQri/HIvcEYmpHcg/BHL/k5nE8CmqDtZpAnHa57E4s1oY80pSvykXTVtv2jCxVuxH97kYRJpJyfAUvdieaZPQQRNG8v7N1KsjEubNc7XPN/TC8Fd81UIZsvmgCaVQsiFYxa9uOLfrgJuXIUryNEfMSIymMRbuSCeoTf1tuPvh6GCSTQYiIQliWCkhhvdf4Ykbc8kT6MVNLaIA6JAha7TXDc7kaRfYdvbEKfpxQLGEM6FiSrrqO/Ze4AxTPdbVAbp0LCZIdEQvDFvcxuqk7X1e5wGtjWf5hXQyQaQNaubr2sCOfqPfGnSak6QroyJzKjKqmoVQI2SOzWAJ2ANyduSTitzSoV8wSKLJ6mUsB1JI7jYHkG9ufztjQpuTYGkiwhyB5xO9QGtLZwjlTdrn0HbnnnvgsNFFTzM8UEXWLBdUl9Lcdht9L4p1Jv8SLI9rcoXu7rf/wDGoGs79jfC71TyzDqwxsgsvTazEgdieOb4jw1EKXLFY8zp6gsYggRTpEkKtIL+lyNP5HbDuTyvX005ilpwEewYLt9xfnFktPY3kKLRlj6AkGpXPOna/wBvzwnUNBUG7RqwAAIl8yqeb8WxVH1Ogv4ByVhWTSZYqh//AF06iCNrAiw+29sQErPGNMek/iJ7m+LHBN/oVsE8piQqo6ZLaTYAb9tjtbEFqZNY1AaB/wDk/F6j64aELy0SjzBiT1JG0XH4GI1em3fHpYaaZk8hdh5SL7Ee/bDqWMBi2lRXSVrRh0CdZdksG3YXJtffTzzgE+YwxOgkW9Q27LCpk0i9za1zxfc+h9Mbo+7PHRhbH8gjGbvejQ1RAAjDAC1ybkk/X9cdO8I/DOasq1aehmqVe20mnSpBuW1Ac7n8vXGTU1Unzk36Wju9R3HIfBdD4WiNP8lHJC0ZU9RRIv5Ec++GM3qafNujQiWGJE4hCgLp7Bf3cZNZyUcHT01G7RrTQU9DUJ16UdLWQWDDy32vbk/bDlcaYRiOnqVjEe2nuL83/PHNty5NWKwVdE0zTCKUrMSCRL0QSR7C2GocvraDSY1kEcjkW1bWBBAsODvzhvdMQn8h80ZJWpHWbSdUh4HuTxbA6uWGhptZa1QlwskYDsfoBz64rTt4Hpdick9OEUPFdnjJDJGxJ2uSdtvTFZPTUskrKY/khI+hZjIAm/obG31OClX5FisVzKnnyhFhqEeviP4apSNcXcXAFiNv4YpKiOKeFni6sbAtpEgAU7bbDAlhUhkxeOanpqSJn0O2oqV5It6n0vtgk0n+ZJI4NLIU2YA31e3Hb2wItRTV5IvkSgoVpJAS0bsST+zGw52tvxvbDC1E/RqI5aITDSUSeGcrYdvLwDff7Y0xa20NJNcG0fC3NYF8Y5Sk7dZ4JVkdLFmZk8wBA9CAQPbH6C1+WUuc0MtNWQJPTTrZ4pVuCPfHt/o8F+yt+7f9ji+XJrVi/Zf8nHs7/wAKnhmaSWfJKifJJZAbxACWAn3Q8fbGkZ58DfH/AIaiWr8NVMFTm1N5qWohcR2ccEhjx2INwQSMGfhT0tdeRo5prBqj5kdWOzVVP3Ou1eV1vxX+F+YZL4jylsmzqam0SQvpdEnAuksZuQV1AH23B9/gfO/DVZkeYzUdZGsE6kh0YaWVhsR9jjn/AF/RTlHWjgp8SW1OF3RSJlokm1SnqkeVQSNzaxPFrYjLTeQo0Ki4ttbfvjzOYVJuzrL5EKiiSWmkRzrWRTGRbym43HpxjjPwARsuzvxbk7WTozrIovfyglbX+4/PHV0L1PE1oPqmY9ZJakDsVUitIWayu9yCYySTcdsAmo2pyFim/aSWZdItpPc+18c6SpGpRvIKOGWGyM5B33BJ/nv2w71YwjkBmkWw2BDHn8PY4SWopq0SgU8jo+poGp9S+XWNJt6+4374rpumw1mWO9r6p/MfoCeOf64One2hsVkegDsvk0EIumzXte369sHErtEFKr5UsvTa5+liBv8AoMFPfELFUrDLPeQfLEX0h9PmAPP09sTkeFvNqUKBbyrf6n+/XGZxal8B7pC70ktUzMskjBBe3AYW4YD6YkkCdPV1WVHAKsm23p+d/wBMX/crAvJ5cvFI3WSSdJXDXsyWI44INtr+hxAZbTIj6NU6JHvqYBrDa1+Tttc+mLF63VA4JR5dBTPGkBVpGNzHCDcA72O1vf74UkySnaY6oZqaPUWLpJ+M/Xm/fbCSg4O0OpKqZbZdlkcMASJj0l3AjHltfe/9O+A/Nay8Zhnhijv+0uoDG/It5r7DbDSylfIm6mYDxFTEKglNreYuxN77gnjf2wRVWsYi4WNVJLyev974mmk4j/LF2+Wp5yzuJZCOE4K9jf8AvjC0aUebVDiGqdNA1AKbpGN+WIO5v64dWougNXwRr8upooXqejqltpJNNqMnAFwNrC/88B0SQVMEEOqCESKWVIwOBuLkbC/pgOVJbnkHY3HHUwONCvUKW1sHMa6FvfjY3sT9hgGazVUWp+pVq0g0xRUYCnnc7/3z6Ya01aAqWWKVWYGhpoo55ZyNj5wNVr2te/r3/LF0k3SpUBCza2NjO19K2ve1hfuMGlK2xrroG/UWeRDHUyxxDWCgCh9r2AJsfpgIq1pIUCmRHk4Q20oN9jz62xUoU2rySxWpzX5SOKKItJUSXCCJlbfk9/a18LdappZBoVKgk6pCpZun7bnt64MknabA2+g9TT1lMhlVtGlfNriUs2+4AJFttrnDQh6RkRupTxsuprRXbV3vbZT7DBjWmrrIjVqwEkcUKqFeW7ggvp0nm1r7X+mJIZpqIigaFJ0a5ZhfUeLHvx+WGjK8obD5MzzypVoZpJb2tNGrdQj0NweOTztgv+cr8vI9LTNUCPbpxRhjsNhzz64eTjWAKm8cB8uraes60KvaTYuoHmBtsN+PTCBzNKGpldzIBqVGmd9Ci/FgefrhoxzV5A8UgojjEbbiOWbyrE62DXv5wO3qMOUlLNQw9GIX1gbxFRzyTsP4Yk3keqImtGqRQDKYtmBk7nsQeb/yxj5rpXjkkjhe9i9vxfS99+ORhItID9kBrquGWl6S9JlFwHUHf6H2GFoi0wDB5GhRQD1SLE8H3/TD8W0IxqGNSBoiEaW5W+x7c73wtVTtE6olNOJrDpaQSVO97+t8X7knT7QYptjAlMNJC1RTiaTv57MRbclRz/1isqc0hV16dkLEFnItpBbYW/52tiuEd0lXAzrg9LSJpEelmnuCSoFlFj2t7W9sWnhLwHmGfVKy0NEzhnAZkWyANxc22G368Y6EmqdnldJOcsH0p8OvgZReH6h56wrVVJAZkG0ak9xsL7cY6VWVOW5SkcJeRHY6h0xqYqP7/jjItKOnHfJ2zpJf7Y8GreIs8qMwUiJAiDUYzIpuSeLn1+mKGjzWriVQBGA7WcqoBawtbfgY5+vNzk7WDZCKoBJDBUN1pBHI4ewve3vY8YmW1PCnTJTVfqqVUBbG/pf/AKxl2pliGaWipXlLCTQwOkhG3Xa/8sGppB0i1TrjpVYlllkuQNhq24vz7Yojak0xuVglMlHOqq1UaikQHQxkJLeqgd/vgFPQ0q1HTnhlRVsbBiQD2I9PpgP8qsl4oYzbJY6SGOQxl0N11lipA32IH1xrc9TS0NMhdoojdU0hzqN+9rcHDOXQbPRyJFIelDMNVwFjvta/btt3xU51PHHBppo2jmW5IWElrDkgEb4O3fG4jJCkeWSZjTRySRfLUpW/UncEn6KNz/zhtvCiZYt26jRnZrKBcn2wiUW+SxCFfQwxtTxCphhEjEJG9gzH0wzCxpQQB5L+YEbKMW36rAzdfhvRR1XimCreUQrlmmunMai7RIwutu5JKgAc3x9v5RmMWbZXR1sJYxVMKTIXXSbMoIuOx34x9B+jRrwU/wD1M4nmNvUG+cesMdkxEHjW4ewDDvbtj5Z+KHgpfGmd5zmgy6h+YSplp6uKKYSGBlOmMycaWZFEm3+7HP8AP0lq6NNXWS/SltuR89538P8AOsviWskptdE41xSwSMwcEHcW3ttjUXsZAG1+TgEWsdxf+OPB6mjLTe14O1pz3q0wAICmKRI1cE+W2y/fj8vXHJ8u8P5j4a+PGYzT0k1JQ59QvNR1DIQkpGksUY7GxU7c42eJJKGrB8uIuvTcH8nTHmMp6YjCk76ix1bGxIt/f54z8o+piPO4PNtwbY5SbaNTe0mXlMQ1xt5RdrLa4tx/fphH9tVMVBmhBvdi5G+w9dzbDze2rROeQLUMkk4FfFqYba1N7el/+O+JQ0lKpUdESE8Pxf8APvthU0ngnPA2qaSkjw3dexa4J9/W3OCLUU6IRO6R3BuJbaQPY+vGBag6oFPok0fVpyOpG2tLftUD3+txt/1jWszqHpcrokd2TS+hpGcgX/dBI3HGH0au2GrwP0Nde1HJO5mMdytOmkaT3vv3GLCKleSOONpXmI1OHMZGphcglQbbe+JJbn8AaE9T0say1UzdMaVu7bADa+3b2wwKZK6kJWNWUnX5jpJ9DbYnvixYphTTWTyxlJkEHkQnUH0keX6H6W5w6izI0jqsckdtFzG2od/X64ebVrsiyqZiorOnGzdNJiz3cDb8h/f2wrQzyIgmQS0Y167m2oHtbci+98O9rhnklbWRaCCKE6IBqW5cqgW5Pv3/AL2xNJYvlwXc6FIBVnAHBsAe/wCVzhIx3J0SqdCzaZP2kEQd9OlGb1+hH8cKUOaVNVsYYkUABm6ehZCT6j74WVXkbPR6KojgmqGanD6m8xVi1zwR3AG2DQzzTKqQgCS5tHq1uAOxtsP+sUyVyysheBSlqf8Az5+k8ZYqRIrXBvyQDa1hdcRmanpqRpKqSoYyjqKdVwv1IHF7/wAMbIqoCXXIpliajVMrVUjcM0kaxg73CqLkn69rdsN1NdB0HqK1TCAGZA7PYhRcG2/Ntrbb4qcW2Sr4JZbUJXtIZ5eiW/aSGW9rfXknC2WU8XXZhNFOHbyxU+pjYfiY3tsBcfxwzhU5prBG3wWEVXT09UtTBSUxnLFFqpD29Lcb/bvg8GZTVRqBMYIukwQIYm37i/8ATAm1tyTBhpZZkDyNFMoa90SwHta/0wtrEDM6vFTObbSmyhjzxz9sCNtUgywiFNTVc7M8kkD6GNwjdUtcnf29TfEJ6XSOqQsqqzFhSxhQptt3Go87b4KbXAFyEo6anVXlicRGpIMscwKX2408rsOL22GAwrS1NO0cdRJTrdrLHdSTY82Iv3xEnjIjfQ1Q5tUfL9JEBsShlRPNp33tx+u/rj0dLFIyyTASJp8r1A2B2JNuxxok4OVBTD10zUz3RGlGoEmN+B9B354wGWvBWN6WQSsdiAhBjv8A7iwGK27uTJ+TAmjatXqyVQjiTfRBLZmv6gX74PQlXQrR/wDlKxCkWLOG2tf07/cYkGpKkRrIzLSGYMFhsFsNZWxJ9AfrhHR+3MTgEsb9mJtzxa2/YYHLpcAtIMJTSROssUjaPKJCG1Dgf0wvJmcZWRI3i1KDoAc7777i9/5YuVS/LoGSrqepIA6h6kJ+01PMBa9xs1t97cYZjhjLwf8AjLLI6kXdmZUF+3rv7++H3NKkPhH1D8Ov8NkL/wDnZ8QLCxo7EFt9tTbXH059cdmGU5H4cy/oZZTwUUcJ88UYARdrjb1x0Fpqcd81+hwNNOL2o1vMfFiUTJHQJdnBABsQb82txjSq/NqiU6apyR+8qttb0Prjka2t/tXB0YQSy0VwzFJ3UwN1lFowBMGu/oTwpwFqx4nvJD05b76bEj2Nsc9N9lt3wDWrSoAkLEoH0/tGso9x/XGCYqiPXrMlOCbgOQLdjf8APFM7b+Bs8DlJmkUVOZ4S8ypcqrDUu3J2+/5YWTNPmGK62c9YSi8huDz/AD4P3w8sO0HodGYVBllSohaujmLBJ4lSIrxYNxY2PpvbFnDUU1L0pJqZnqNyEL6rjk3F9/8AnC2kmpEoJ/m0ssMas5hgkuUga1yOLgD09TjXa1IqOpIli6iXsJFbWQDzsBb9e+KkkxkeekgqVQ0Ek9KHPIQIAe1yThCKHOtmpnWRQLBkCtfcgHkb/wBMO5YSGTRcZdlee9T5qcVM05Nwkiqihh3BAJxevlU88YkrqSe7HU/muPt9vbFe7dmsEsToMnWQM3yczRfu60W787ew5xT5hlaV+ZusWXzQuiKbTO2nvbycX+mDF5dDfLDfD+onpvGlPQLDI6ZtEcvfpgak1MH1LYcjRa54x9b/AAjrc7rPDTyZw1M8bSrJQtSLpiWmaNGWJe5EZLR6m3YoScfSfoslLwarhs43mJKfy/8A4NwnrxAbL5m+uGKaoMygsNO2OztpWc680FMmlgD3xzPOaCej8dZzHLBQUfhauo1zDNauYFZZXQdMBCNuFXUTxZbfiwkopr1L3/saNNrKft/Xr+pwDxd4loBkMlA2VGojIKRzQ1GhStzYaQObe/rjhufx0UFVM6U0tNAwDAysu23cjHh/Knp6jW3k6unpy0m03go6ihjSsZYXQ6rcnSDcXvvt3vf3xrXxYqM+8P1vwto62KnjyWtrKuqpqjVqmYD9i1zewS7tp41b+gwPE01Oc18B15bYpv3Nzz/wl4g8HmGnzfKqvLjOnVhmqoSomQ24J2O54+l8a9VZlBl8qioZQd7hXGn6+w+uOVsr01k1JqUbTtAnljqAGjnQqLlWB3H5/wAMJSB6nXpQuCSPK99vp2xJNJVLkd8UKZVlc1JWvNV1ckcP7kDg7Em97j8sXdU3Hy4SUnyDqFlB53vgTcd26II2lkB8lJWz6XjKg8lzsbcEjtgzZe9HTAOsWu3be3oTc/xxXcXdPIUm8CyySFrdMgWB1IfL6f2MS+W/zOFYmUsjHU8bnWr24sNNud/th3DamrC3WD1POkUwpU0w2URqXdYkvwDvYXt98H1JUx3SFiHH41byke1hyd98WuCcU3wLfVk4upH0SZYfI28bksAL/n+uGadpOmoR1YjdW0m4tf6WA3/PCKO5AtJZJVEQJCyNHFG24Cqb8/7rm+2MPTLTzqdcqIgIRySA43tqF7YF3gsVNYIo6GpS5vKedwNgOQRidZRwTQMCGaNHXUgs2k3uBfv/AAwsl6b7B2Vss1NTMyRM/UV7hVUAEn6D+xheppyJFkaIXa/mI8zHtYX5+mGU+hv1ICKBF6yho2JLc+W/e/qB6YIa1pYP2PlikBGqMADj6/fbDwz+QUrFZKWODUs8kiSWIErPq1bdgPfv74nTyhKuGndOlLoLyFSAJADyWAF+dhudsHbuTQrY0aereORqKkop9SlVLsYz6gcci+E6KSqy+gSlfJ5V0iw6MolFy+rzdxuSb/TDR2r0SvItW7JKtUKmRkobjSbJVOqgNfkkXPe+MSx5jXUqpKkWhvPoYgobb+l/zwu6MH7juKXAt0qqado5KaJJ2u97hbDtYA9/7tglQppghVVUSRspeN1BYg202Njb29B3xY3ctyKVg9Ak0scKo6RtNoFpkNrX3/CDb9MQqxPS5ksTsWhU3VoXNwu25BNvS3OK5xi1Q1LoXleWreZXgl6aSDQadGVzv3t325wocgpqx42FY4jAuRULqIJ22+m/J+2L3JqKaFrlD1K1HTGGOZ3vt5zZwPQn93fsBhqkq4YkaA05aVDdGHDDchiOB+mEy1UsjRbqmK5vIMsc/LUsQewaQhWBI/8A6Qd++C5dDDSwOscLxqrXbqJpXXax9bc2wux7VTJXyEMkKFiCZGDblF1EnsNufYX3wP5/5iToPBLDrF9TL778cfTfEjGm75RFlGKhZkiZEgnQa76kYJId+QbEDYd8HiaWYmVy6EKp6QkDiPvsALb3/hgyTSTB+hkZnDQgrTDpzkEqqgAqeSWFtzgSZpVsrTPCYnI/AJvLcdjYA3t/HDOFergiTkMpXur6GqdTgqEsjEXIB233wpW11fTzWhjuzi+kt5jc2O2497c4sjSk0+ANcCkK1yyDzmyppKh9C6tv3QLN97cYUgyiFql/m6lQrfhePyEM22nT3Pvi1K+B4llHX0MQamLklWAJkXa/qLC3piSTdbT09MjF9QWLg+o+vuPTAcG7yLZ98ZlmOXIeqIpFr3UIoa7HSL7DcCx7Y0fNs7qKiMdKVtK+XTIQ1jva9uT9+2D5GqotRizm6cK5Nbqapoo443VhJa7CPgnjb0xXTVk08TRx0+pGIvqW9u2+OS67RriBNL8uhKD5cE2OghFX12HF8YhgY1dy9kQX/ZkqbdjfcXwkk0qQ9Uh+GGldpEkVbAaNxux9D2/LEM1omWCnYARQGzBreUff3xJNMF9FW9fTPOY5JRKWGkLsqC3vwcI5alNDO8sUwiTVdUG4QewGJtTzeApFxRZoKONxCJZo5G2WUb39dwLb4s6OtqKhwyMIFVTsxBF8UO6phzkDUz1MtN8rM3UQeYIqWtv64hl1EkqTCZpuoqn9nJa3/wDr9P8ArE9USLgFBKtDUFTRPM5J0X3C8bMTsAScXUE1NAh1wqHIJDq+hgbHa/6DCqMeEwJMXSGtAiaOSSRX2IDadAv69+ALnFxllFXfLxyvmEqM7PqUMSSfXvYAYZRbbS4HwWtImZzswiqg5Xy6qlQxN+4H1wSvNZLFLFM+jsBGoHPYG/PPrheqSwBN2aYfEEfw+zKPxDVUspyqkYLUvEdLrDJeJ2T/ANgHuL9xj618NGnyXw9QUFBMJIKeljWncH/UQKLP9+T9cfR/9Ovd4korqX/COT9Rg4uOp0/7r/5MPnjh54gCkkT6GY8k2BuPTnBYM6noXt03qYz5iqnzj3Un+B2x6lxSwchM2vKsyps3petTya1BsykEMjdwQdwfbHz14g+Kb1nxQ8bfD3PHqIJJaWaPJlYBo52khZwhNhYkfhG/HN8c7Uf25bJd4/odLxtF625p5ir/AJNX/Q+dMi8UGWH5au1OhtfUOD3xVeKqFaapDUpFZAbEpcb78MCceB8nTbaaXJ6DDWRbwd4EPifxRSZZG8yxzyA1Dqu8SD8RueNtt9sfWObfDr4VV3irwpPmuX0eZZ3lUAo8qoZqldMQA1rI4Yge6swJN7gXIx1vpegtktVurf8Ab/3OL5cvWot4Off4uvC9BlWT0mZxZXKMxq6yJIKyozH5hYgFczRxgknSdKsxI/Fb0x8pPFOOsjecEdwDYc3HrbHG82P2vJklePfPPydb7v3UpN9LhV17f5YhXZpMsKxxwpMsTFmDsUXceY221Gw9PphOLNcyheGUyU/yzFmMrwsq3GwUauwBBvbGacIzVsEjYIq6WpK02YxojD9orRE9Nz77bH6/nhuOGYE9EaGvw9r3twD+f6Yo27crJYssfpnKI5qI1hJsFYqAbntivZjEYyGHVIJ0m7Ei/c4CUcqhpcYFWgjEl+lP1RyUtpO1ht+X6YPFCyUy21lb72FtR9B/A4KW/gDzySakp5GDywRPKyFizx6rL6EntxztgiaIVVUiWCNlBU6TYd9gONvtbFibjhgtci70ktdMhUmpjBFoSpF+dzbvftjEMMizjUhDXBcMx0qLcgE+oAw0Htb2kodihMZkd0eBxYoEA3vvq9iPbAwWWsVheRdJQo48pudwcKpJfxA43kXMhDiFdULX2eFm1KD2NwTfEZauMxm7ghVA6ki7kcHY8HBlKmkgXTFqiR4Zo7SEytcAkjc2/jb0w3BHJV0zTvOzIxI1i5Fr22xWlabRaLfLQ0sJaSaapXYBzERpH254/TCclbJC8aQq3RBYjrLo3vY/13wXS9C7I8hUgrJqcPM8QL6tIB1E73F/QWtgUsbxshu88iAKDLaw3vqJHsbWw0Vsdx7FSByPUQVMlU81OkMqWCPHpIsLWuDv9fffEcuqao1BleSCWFiNN1A2sb3cGxN/QYv2rAM2WSxNLRhtDrdtnVx97luN/vivrK9aqkkaLMVnWMhJFUabEHzHX6Db8I3OKlptX2h2lyEjjoqFpqqPTMZLLKxnDHTzp5HG+4/XjFe+VxCnR4II0j8/7Ir1Cpe2o6je7bn1AxY5voVK1Z56GRYZLQiKSUAXLrZSTbe54Nue2HYaUGGMQyrqKgjp8sL7KpJN7cW9MV5cc9DRVclzDSuou8g0km5kF9IHG5P8sV7TBoSsAtFcXlWIEKb8AHb7nCXJ/lwRpInI9OkZEhpWVHOq8Ze1j2I/O49dsLUsTooaKeVYjcKr3Ie5vvfm3YYtTawhHkVqjDFCJkRHL2PUmPlt7KMAgniVCs8saSyG/TTkgjix27/riQTWWycF3l2XmljQ6VTqb9IBVKnn3Hr+uDGplQaIo0AYHWdOtr//ALH+GG33LPZKS5ITkTaE1iULu0WknVvyBthGrgdWKzU8TS6yVQnRpA/CTe/8MLL0k+DzUjvMC0AjRd9grsBwATfv7fpjEs7UvRi+WZHuePMAOxuo2+mLm26Yi/UyJZT+1RSulfKxGktz6i+FZo6rqGZamQtGbBY1vGfUWG5P3th3tWWHkJA6ompZ45AQbqhF19RawwTqTS0paQyPEp0l6aEfa5vt9sSKcMyBF5ZYQQ0E9IFaM3hsTJKlze2wBGCLP/l6NpaKJNJ0sTpFvX8hippp4JH5PoWpzSarRepI7+csCTyTwBb2H6Y9rMSMAgKLukdj/fOM0p72ZqoGamdfIiqDYktexA9v5/XBUgsoRwHN7jVewHtbnnvgSyk0MDahRoyGgZguwvvcD+zjyUrQylnUJGoA0gX29B7Yztq8jN2sHpFB0rHC7t+BHJAUbbn23wvVUWYw0ur5nT5SpjO4tb37++Em74AneCrmyimr1jMtLC7ReYOw1AHuQTwf44HJRUGRQlnlCdVfLCL67AdgOftgJv8AEdPaFkEtdGrLBHVxizASbgj0AO9/riwpFhEaVGqOIAaShXYEc/T7+mG1Kww5XBYvGixCYaTE3LSaV7el9sLU2TVnzK1KVYmitrMJiVrelmvf0O/pxiq7I6WS3lpHm6diqRkESF4yGbuPcD3wzR5ilD1gKaOWPZtUxvuByPTCNP8A3IDsZGbQVMh6lC8dRGgKMGOlr99tr4raqdtZk6LKGHmPm1W/K2GUknSY6yL07VS1HUCPDRqSRb1vybc/fFvX01PXU6wamZy4sfMbfrzizMo4XAXyF/8AiGVSUNT/AJuprctemljqaWS5jbyHTa372rTY9j9MbjS50KTwtlU2WVL1lDFRxxwu3lM1OyDST6Eqd/fH0X/Tc1+yza5vP8jifUNz2+xH4b+IZZ6eagndmEMaKjOblgpK8+ukr+WOl5hntLk3hRc8nYIlEW1XcLqAFwv1PGPV6jSyclc0i6+GXjLLfiX4dg8T5TDNTQVDNFafTeQKbX2J+17EdwMc++KnwNzPx58QFlXMEofDeYNTV1bPCLVkFTSB1hEJOwDiQEsNx0yO+ObrJSdXa9//AGOp42t+zTcpLKTx8/8AzyfJHxepKnwT8U/E+XVUDxIldLJBKeHjc61N/cMP1xoNfntWzBaBiXfdxa98eelGOpfxZ2ISuCZrfxBqvHngjxH4Kz6atbKcoqJnFO+XStG4lC3Al/3XtcdiLj1v9a+CPGWWf4lMjyLMXqqTLfEFDK0GcJDKI6hoo7eaJQG0xnUjXsLFmAIvts0VDU8dQgvxZx/JjLT13u7N6+NXhrJ8y+EOdVtbQDMs2po44YcwjjWKWN9QDSzGFghWzA7gX1Wtj46zLJkpqt1KSoq6VA1eZd/3v049ceY+pQj97Haz7HT8eTlo5dlbLFFXLOqTu/TYgBLL6ix7WxWx+EIBD1WmmjUOxIUsPMRuTub/AE42xzITlBOLRfG+C7y6ljsSaiSSZQbI1vKLci2JzOKQpeWVBIApcknT39/zwkpOeF2W/isGJp4hZY5b3bSRMxsRvuo9cTjj640xlWN7DTYE777+38MKk4v1E5YZns8kRjJ0sUJK6Fb6HGNLRxxkssUim4s4IA7+lz6el8XaSWZLkZ5JEdESs43ChkAYXa99h+XHbC81QVXqTaFaRjpIst2JGkADb29cCquwNKIUyNEVKRspXy3vex9frf0wOCRykpYL1PxGZtJAJ4Fv54aKT4I3gBGPmZFYtfcIuqSxB59bemMpUUcVSIXVlmsbssli3YG1t98VSqSVkeMg67S9ngRmRWAMgYMtu3qR35wlJmUKQ+STyqNTTXukJ7XI5739fbAjJSe2uCKnchaOtE2qCWKnLbsJvw7DbUAdzzbnvi1ino6KnBaqRIZGBRSzanuPw73J4v8A9Y1KP27aRF6mZzSDLYKc1Es0cojKuite+rsbXvtfCFTTLmmkvSQySKuzlyoUH8VgD7D88ZnJ3uqmTC5IKqQOjtKzznUrsA177XtuRY8b9++GZZUWbSAWkYmwXYk+p7Gw+mGlK6QERgieadhI0cW2m4RStj/Dt2wasECVcazRvFGr3WRV0pzwL7bD0GDb56GsWWqm+b6yrIq6OkSsQBDb2vvuLdgcTrcvUUztCSs8q6S4UKR3Jv33PFsWNpK2wO2hFcuqY6FF00sbLcaApRLk9yCTfc3Pc9sEDdGpEFMYnqJLEdRx3O+nbex+9hhFHdN7QcPBW5ocxmgMVHKFdVILt5F9b3sN+b++GclgnQTUzzSv+zQrUNybkmwudsXKUFp1yyL8rLw5GJHUSVL/ACtwrRO4tYW9N8YqVSOqKRjqwoLhLhY19WPdremKU/S7GksYEqtVS6dVphNuBoC6SNhYDnv+eEPmKSeRgYy8lv2fURl09jfnv6YkXuFbSWAyyo0rLTxMzHbrKgOnb0P5XPfFhDTFzchw5byqCq24tsODt64KjX5BwzFaaxXiiXrBBcMiRKwO/NyNhfAHnkpKuJppZpVtpEcEV1+/8ecPBpu0LLjA3RGSR5lM8s2xUNIiqw7jj+OMiWOmLyLI8zLbUDCrkkepPJwZRUse5GD+ZasVhApjkdr6kGhgLjYr6nGZMqkp1Rgro0Yszzn8W9jYAjfb6DA3bVUVY6ecgjVtWSrSxClnextGbAD1J7m3rhpcljmp3WYIkEh8yJHp1b7m9/5YEpWrfIirgGaWmpikMcT2Yk61JUA+u/8AxheHLhTSSQ1Jc08liskhB+uw/jh1qSlGpEayNRxGkcCKmWqpWH4JJDExt3D73t7jGUeSsmnDwNSRt5YohMshI9za5+lh9cGElSfDD2fQa1MdMjAAm4A/9iR7jbGNUesshYE3tpNre+ObP3TM15G4sxgQyh4nLoN1NgffY8nCVfmtTKzf5PT01Wydpp7FTzY/bBiqWSX2DOeJJVRU02mCs0hmiRSzC/NtwPf6YbyBKmYSrUJG7I1+G4+rc9sRtexORuSTSdpGUhj5XWwv3t/fpgRdalUZ3kcHcqz8fbvhJNJZCkeip4kh1FgwO3mO1/tigzbw/UVWZGraulKkgdJFCqq3GwsL798DEGsjJ+4pJHmUQU9WR2UfsUuoCgm25BuSPS2LLJnrlhbrFJmuQWKnc87d7AW++C21kl3ktaGmAiHV0SMoJZf9w37dt8epDNolWcirUtqCybBV7KAPTGdvbkNJosBVRSr0TRzzBEB1snkdTsd/yNsRp4IYYngCal02Bka9vvycM922uiFlEukRmN1iCrbndrH1xKSlUtIkqMY7E6ll3O3e38sLGKqidla2ZaupEUkptBCaS4Kmw9d+fffBICsEyvGk7AsLFSLgf3fDc2glvTeJjV5rTU0ULSqXFwXC7jcX7cgbe+NY+EvjqDxP4LqZEjejooM4q6CmWZCoERkaSFFPGpVcqQOAvuMe8/004rSlBLl/+xh8vT36Ep+1f1sejzyXwf4ipJxIppZJDBUxlgCquPK9vYgb47x4GzmKt8P1kdWiTJ1dSq41C6n+l8ezkk1tPP3mzknwDpPFHgP4g+IKLIcrrM28O0ubVFJnES1MYjBkk108sERa6ssbDX2K27jH1tWyxxU4Mu12CrbksTYAfU4wJSpJrK/t0dbytktTdB22s/qfHf8AiNoKXxJ8R6qSnQmVD0KglLrrQWFhwdrXJ9MaV4U+GFHl0hr6+KMAC4jUWue2PAas3DzdaOm8N/8AGTt+PpVpx3Gp/wCIeWLxh4LqfD9NB83UTSRSARuEeDQ4bVGSLawAQBwb740bw58N6Gh8Y5ZUQUtRSZNTwzNLUQxNLUh2AANw6Eni5JtudsdPwNeK09m6nf8A4Mfmw3zTiuj6h8ReI6X/AO0Ff4fQku0MZ0VU0MctQ5YNeKCCR2tYEtJMx40gEnbgGWikqcvVZqF3jjLtqIZgSDfhyST727e2Mf1F7tbdnj/MDaSgoVBp/oa1NNRZtmUkOTvMyRqQyiLp9M9uVBP2xBJKlKeQxRJKUW+19W3/AO30tzuMcipZs04DUyyTTJGiqkso8hA529u4wWdI6hKUyQ9SQL+N9rkX81u19u2K1KlwMQaRp9wvTsLuHUHvvbVz2/PCsyxrSySTq0il7IIwP2h+vIw6e5vcFtVgTpBPJPoKiNLXCxPrtt3ucWSuICAXdid/MBe9gTsMNpQSbBeMCtQnzkKLUuNfCEMV23B45w5HTvHDTTRupIuihowxJA2/LffEa2xqwpqQJG+dsKmEDRuJrj14G+x2vgnyEfmvKFJN1Eg0ggb3FjzzhE7eBVlUQIiW8ciSPID+6AVvbb8zj1TTwrEytDK6mw1Jwtz344399ziut1q8jqqyV02VwwVhNNBPD1bpqRWKW7g224He/wCuE6jL6WteZdTS0skaqYCrbj6ggAbcWxpjvSt9ASsLR0kNIsdBAjUdPGe1+kRflmNySfrgbUppWmo5kkEAH+un7x54vcf8YDk5PnkVrOBDo0vzKFYiwCag892K2Pob8nFosCD9oS0SMA91UD8xwB+uH1It4iWYojmFLFT3jqJdVPpsE1HUxvfYruP+sKQ0zUtE0yQRUoIsGd2CbnuAAdt7k8du+Ip3FpgVGYEqmNP0/lJxpsz0zlQOLbm4+mG6mcxfMGoVJY1KGLzEs2wv9CCQNvvhIRtNSFaBSRPBTmqetSk07h5AJCm3APF/W2MrG61YqGnkmj6YUSX6eje4tsOSePQYZPdGqJm8C1bWVhpHlSWJolYrrF0PFyTvubb3wfLaxIaX5hp1lKDz/sunpY2uNz32773wVTk1ElItqKsgjp5dUsLyADqH8QG17WJI2vv74BNRRxyKiRtCpsW0HTpG5G4N7/fGaUXG7GeeCJhL1BRAYNRG8xIB7DTvfk3ueThqVIYJI4fmY1IUjTIQwbfc+3pi6MrWRbrkrmPzc2tWBVUI/ZGwDd+Rf/vFXNTy0jyyxK+uYBpLVV7gDspGy7H398WKOySv2A6k7M+G46fLo1jiL1c8rXLwK3m9AWa35DjGw0syNGZWjnjFheOQWIPdbdvrhW222Ft3gVllDvpWKeSRBq6oFrE821EA9sAepp8uhElQjQo7XBqG1k/a+FjLe0o8hk2kHizM1BsI+lGbqJVGrWB6H098BMFW41hWponQK+twTYdxYXB3+mGpxngXFBkoAmkiVTHp2QaiW+pvhuTp6GkQN1LaLIQVAPsdr4DaDfsRaFWjTRGIEJBZh5GbtwBsO+MvFLE0ckcrNc+bYEe1xbkc3w21OO4DwZ6bqdRqCrabhmRTqHv+Y2OIhVRVBRHNwXdrIPp2v62wubVDK6GEm0S6GkmaEabK0mpVX/1vst/QD88YkkZxGrto40ut2Z19D/DjFqtxbYLaO/UtPFEiEurkBbsBySLb/XFisNLBGWeSJANh77cDHPk80jK0rwLPNQS3RzAZXS4iuNdgN7C98AGcZdllO8gWEQ30FolGxI/eI4wn25B29IqKXMMlnzXrR62nblpLjQb7c/yxsUkj1jgq69MpfyNp2/jh5Jpju1yCNOJKsN1ABffqNc8bbAmw9rYw1D1RaORFQGx1enewxRqK0FNJ5K6qaegUN0ywvsSCQfXjcbYievONMs5UBdVlvcDsD+fGLFn9SSXZVV8FPnBKVEzxjWLPE2m1t+R68HD8WYwQfsxURwlVuDI47dz6YVXLAKwUT5/mtLXzuqwTqXAKip0rYdwAtyTfjFzRZ1NCsvXnDzsCRGyFfLxt3wrjboJbQZpNpimhqi5/fhkivqHoSOP174tKTNlWQrZUcAnQx5HqLjbBcWnTCTWrDMyygFGGpQWJAI7bd/05wCtpaRpYZZI2R1JbUJGUN33F7G3vipJtsFZFa2siDIqxRxNISqykAsCd7iw5x6CnZQrLVmQqLMNVrre/AF/phpW1gNJG0eG/Dz51mdDT01QJ8yaZTFCSVN1IOokdhyfS2OlVnwKy7IqDxXldNMkVFnGYPnFPCF0JRzMo1qpvupcFu34rdse+/wBPabWnKb7/AMZyfL1Wls96/ocYpIs08RRtlSyU9bUBel03iQswG2z8/TfbHXfAfh3NvD+RNT5wsK1PVUqkUmttFrDVtzj21KsHEvJs+W1GT5VmNRQ0kLVWdT/tWo6FrTE2A1SuLCNbAeaQ8DYHjGteJ/jdlnhKqlp/8xiznP4wQsdM5ejy+/NmbeWT1Y/QBRcHmeZrLxdJyf8AA6ehpObSfP8Awcjn8d0E0zyyKJahyXMjG5Zibkn3ONZ8WeN6ivp3gorPIeSOFFu+PmepLbeo1yerj6UcyqqRqpn6zPGPxCUMQzHnkHGJKirpsvrI6YxfNPC3SnqLsupwQL7b2Nth74o0tRxnuRna3Ghf4f8AwRmngjOZ0zkRwK7sNUU4dZkG4WwXbf1O2477duzShrc0qYFpJZ444FD65kAjmi50aQ34tztwfW2O55epHypfc0jm6Wm9JNSKHPDV/L/LxU1qdATIrWQIeC2xueb/AH7YpcqqxHSzokNQkyyBUaSHSpt+Kze23PvfHJUVuNaTpMcFF04A5ihj7Akmw32ve+5B+mAplEc1SESpJDiykiyjtYbXI/hiSS/GyyLVZFJqEUblJTITwGjckC4HYn25t2+mFwsQqogJJC4QhdQJKjgk35/pxgKV4GonUZZJSu7WkkZjqXjUONvYd98ZmoRWQoXjbXsygta/rcgd8NHUStoCKoZU1NNEURgqbKnV1Kvp79zvg6ySx3BUgKG8ybn1sbnFUm9TkPGRkPGaclgTIfMQV39Ba31/TEJSrAmCIo4tqbljt2B3wNrcaQcdCIZpJRA9RCJ5raQhs7Wvf01X/TjA6jJC8qs6uJoEKAlyLX7WB4wFGszFSV2QXKkoZoqhZJaeW1r0rki+xYANsAe5tffDAlmCiR01XJ08X0nsdvvi2UsuuCyPLBnrzwtHE69SM+eMpuhtsQbd7frjCzNTPLJL1axGuBocKqC3Fib8jne+CknFRYMWVKmkpwBJFX3bVLJOHBEYsRYhQNXsOT3w3NJC6QsjdCmprtIkga1yOxtY33J+uCptvPIFl0EaNtUgj8rqpMUhPlU2/dT2v25wr0qt6YI0zzxK+lzMAysO9lFrcbD3wNylL4JwO05ijgMUX7KGJbhIyNBb7C/P1x56lZnqISIVFrFlcljzsDfb6YKTp2yNu7F0i8mqJpok/evIWU8XsAO9v098Jw01QuVqZKiWeaZypldRqPmuoF/b1xI1dBrGCUORiNhq6gilI1pI+pSQdV7EH+m4GNggigILSUhU2Kapx5mPbf0+3bFbt3twKgCQvR1E707nXJcgcqOwC2F/75wSMsQjTKgkC7mNrG59dyBx6XwLajTyy3ADNENXB1VRJnX/AE5FYHcepF7emEaNpXJasijiaUEqnXIAvxva1x6Y1px1PTRRJoZr75bDssks2qzN+FgW9AOe38cLLlzxGnlJ1G2mOaQKHHrva/54qU+/YlZwFhnmadVeN5JVYrZrna9ttO29t8MjOvkyxlibqMQV1jv7W3/P0wFUY4HkqYJcyFYXUpK0gcjyrztfVbEpqIZg8T9BalgdX0bsOdu1ycMo7XhkeMonpnjEsYjtvuolIAHc73/S3HfBVn02aRNJA5vfb+gxJNYQq4JLTvUEMCbi48u4P2xhhKEPniUn8J0G59P5DFNODyCVkXlkAYASOoBYtGd+2+42784YhqZap4UWG2pxrk6lxp33tYb4vjztDywsqJA7kFFGxUsdTafr672vgMyLJKkqAyNuCF2I3vv7YSWQq2YjifqavlZWA5INhfnbtgc9A8lKz9Dcm/8AqP5d+Njvv6e+GgwpO8s+l5IEjVnR1YlSrrve/tbAZ6RKlHBgS2nzC5v6G2MMot00ZVg1+HwrltNWJHHTmmGkxjTMS9uRa4279+18GXwrQLIzU0cgeNgGkk1DVYbfXv8AngptLnIe8DdJ4bpIppXZYXMgIM2jcDk2HYYZEtFS2ijq1igQm+wNtttr/b74RSd5C7YIsk6llLOBuWUnzDtft9jgb5iwYxSQ28vls3f1vg1bpksrkrCjAMSVY3JI49N+/fBNW5dJVjKjfcWY9rA+uBKCV0NYKaeSW8lIia0GkarqguBuoGxbY7nCsEElMNVZTQSTSD9rLpsCCDuL4EWuiU0Eh8OUESupp0SIjXd99F+NIPG3piM+T0s+jTqgUkKkyMBfva+5PfAunaC7ZbZbTU9EAYpmtYhmC3G974nNHT1kcSMr6v8A+4WKrsdjzb88DdKS4Bm7GXqVWojSMDmzMnA57nE5VqSCrqrqwKl4zuDfcH78nEdZIJ0lNWU0rt0llgbYwixIN+dW35WwKlMRzJlNOsc4azMGLXHfbi3139MFJOkugt4wd4/w/wCUxVPiyuzAwxgU9KAjgDVdjb6jYH88dwzzKFzahkjBCTBT05GFwDbuO49sfRfpC2eJBr5/ucLyfVquz508XeLV+FFRPVZhldPQu4/aVMMRdQeLdQLax7cH1AxxTNv8TEub5wakUy5plkcbxtSU9a9O09x5SWQhrAi/vj0L1VCo0YoQlycz+I3xl8XeJ8kly9a+k8DeHWewpMucUsLt2Er31Sk99RN/TC/w9zOqzuSHKMwyeuqcx6Cuny9K7F49OoONvwW3DHa3fHA+p6cteCdYR2vFkoOjc4smRK9EmWZKdiA2gqNW9rc397D88WFYpji0QgQQI19DxAFl37jjHgdTV3vbWEddycn8FfPR1C0kvUEM4YnT042FvqT3tb2xVTUshV+nTqHW2uFiBa3N77YzO1LCAn0LKUi0EQETi7aUkFwCNgDxwcWlD4qelhSlqGsgUpeMgajttc+lsbdLW2JIrnp7sl9enqAH1w/tEUKkg1re3Nz68Db8sVtT4bjirJkSnkhpzEGamU6Tv3HdtuwA4v742OO6NoytvsRnywUzRyrJGVF7qHCsVtsdLEXNuRbbbGvVdZJHLPTxNZraEiljF9IN9iDb1HvjM9Npl+ORYwNPVFuoFlZAztHGQzbdregF9sMR05QpGzSEMulVYEt/f19cUqrvlllt4BtUVaUdNRzT1DwwyNPHT28gdtrjkHbaxJ4ws1a6FSs0zNsw12Fh6De/Pf2OLHJ20BJKycahAbnpxra/BYHubbHEpGaSGPWfMRaxG5H5b/Xvgv3GVdgEpxFpIRnv+Ejcj6j+QwtXMtDTPIz65Ywx8tyx27W34PYG2Fcn0MoiaRxx6hFTtKwGlptGll9r7ep3xOm+fp+syhtB4FQwcKe1gvb6nBbVOwVXI1CoMLKRpZTpOq6277X3tisrK75ecoKwdNfK/k1G3ce3I9PbFcotPCCl2DhpJP8AMpHjkaeBEspYhy227Fbc4saKKEP1ikqgmx6ispHHBItbbnDbk0rxRAOd5ugaaEQVMKoLtMiMFa1rWNt7n09DtithRaenMscKr0zqYIWNjcgltr89rHjDwST3AvI3UzLGYjqY6roqtcMLWPHe3OFki/aSyvUIxU6l6ha4va7N6H7/AJYLai7Jz0SZXlBURxz2I0PEpIFu1he+xHPOHaOm6LSzT5cVF7l4QClze5JNtyANj64aVSVdk47K2nempkWkpVkpoYluFlbVZiTte539j7YdqFgJNOjFZFCyFit5AxN7tfnbFDVvGRuFgqqnLvmqsF8xlSnHmmnjvqIBvY7jb6b4OuY9apngp6d2RnCvUB7WbYbqdhtf9MXadOVPArfuM1D1CzrEGZYwbSSu4VyOw1bEc9sIv4eiSeZHctEv47t5b3ubEc88jnFcW3YVaLPL8qSnDookUfhAZrWFr2b0G/f1x7MqEyiCUPHL02BuJCFO+/A+33xbJu1RW+LBBUj1qksqjUR1g1hY/XnftzgsNNT0UoCQyVEjLcNElmDGxv8A1I9MVuKi3u7DweEVZUWQMIoioI3uTv6nnvgkeS0sZkkIS9wNKtYG/e1/xcc4Zq6SY7dHkyakoqrqRwiJYwRrLk2B8xJ39cEFVA1RrJQs5t5BYm323/5xY25YSyhEq4Jz1L1obpudYGlo92+549sV5EDbyvJpudLMzXJvbnnnCpd+4b6G6ehp2jW00MWmxGkab2349P64JUJEXWNpWqQR+BENhv67W4wkt+5WFpdjgijaXpvURiZkJ6bC3HuRb7e2PQ071EBdS2hjsUa1hb9P+MPtbdktUEEUfVJh822xJ1Mfv344wCZZdEjqmopayBtJJ/LbFTbJ+hG1RJAAUKJeysD+YDbi+D0uVsJY5n1VDxj/AFJGPkv6dr9saYO3S5Bw+Tu+W0cr9OeoTQ99fTV7jjcX/PAJ610EsVLXQ1taGBZJPIsP/rsN/pjA20sIz88k58wbYhVmLkEGIqLNffk2A34/LBp8yWCVEMlpHvoh2Ba3pfFbUkFZZUVa1M1ZEj0PVpiokeWR2AQjnyoOeNybY9mNHVSU7fLTqky2OuMXUjuCPW2DTjT9xs2VUlFmFBTKMu6bzzNqeQxErfv5QbfcnC1HDXyJIasLBCt9MqufKAbH9e3GHTi18hpXY3lyTWAlY1B4BKBS31GCVhkRkdIhKdQJhQ2YD1A7kb7Yog027A0OvJUMqGFDI+tSBITGG29Lcb4tKSCodkUpFCGIACDVY97nv/zgTW1XZP1DmgWqldXk1Ot9aK3r7dsYpKFqGEJC5um4KgED7ngYjfsG8bRBlip1Ms6K0xIZypJK247/AMu+GHmpKmNJtJItsLC47m3vgJYyFXyEhcVFMHWYAW0al2A9vci2DUtBJHCl2MZ/E4vpDC99x6/xOC37IVLsclHVKxgFALGwaw/hgFRTxJE7o/7U23IuxIve+KlVjZOtfAjNospzmrV1EPXp1uT++bgjnfucdyzfO2oYwVidozGXMqebTbtpG+/rj6f9FS1PD0/hv+557y/TqSOS+NIoPGH/AIeYr0qfUC4U6nb2tcW+9/pjguf/AOGHI5vF00kUU1LlyUqVBSlTqSu7SMoUjYKLKTfHqJ6MW1Ix6c5Rs718Lfgl4byuhpreDaCRYnMqVWawpNKrEWJXUDvYkX9Djs9TSx01OXhjWN0UKpQBbAcDbt7cYyargppR4Hi5NZPiDxXmCf5/mzR0hFG9TMyFANATWbFQNzfc+2+KVOnmtPTmGKVBOA48hQpax0lSN+17/wA8fH9ZqWpPbxf/ACepg7SNeq8u6VXIqySRzSLZSbsGGxvxYHffvvbC1XRiOnLktfcroe7EjkHbjf3xOH6i+NFYJtSNpdlcNZmKAAW52v8AS2EZZOnUStLD1U1AMqSXI2G9rbe++FxuQb6ZdUWbU1HCEQMXlOkJJpZb8XAt/wAYIufTVmlqdGaKMXAZmcqd7k8Wvv8AljdHVSWxFDhWRiUpUwSSmFJDGNn6Ya5AHfv6c/TFO1fV1WRO7xSrOzGLUNLFgAAAlhzfcDt3vgzzhYFpsyLRqZKzphIwBCxUDU22zAcceuK1aCemqJGqGR9DSBGjlJTTzyeN+18V1SSDV4QnBTopvMrQqhDf6lgR7W4t+mJyCN5dEcZdRYsVJuo9vS/e+Kri3lltdMBKkV1ZlMbqdrmy39N/tgM0paUL14zO50KF3sxNhqF7X/P1wabWGLSs9CHW0bSSSNuAWN77+mJSl4qhzpDoDcMygBr8Dm++GSlLhDXgC6XWRzFa/m0g+UbcXI9txj1RoaoAjjmRGfQsjEagoHJ7Abe+K51VcjJ2zE0CliFYybBiWufy7HCs0K1EB/YzxU58vUW17/X0v7Yfcni8jNA0oujM8vVvI19ZcrbcG1wPrx74ycxroYGCxq73ZI7XYECx39OL98SvS4sqt3YCTM2cAdKZoiQpIZRpa+4sSDbne3GG5W6Qu+iSMpdjpAZdvY/ww0Uk6LH8AVSRmR/mQix6yNL3Vt7fvc7du2FUzDoVaRSTNqKl0jdRo033by2+2A2pYj2D9Ai1E0IJaWnggeRmcurRlRY2473tzibukd5ljEasLiQMfMBe9we3POHwgUJUc8E9XURwVDIJCrh3jA1DYMNXfjFrBUZead3h+Xn6f4jFIjPySADYX/PBcLVrgZWjyVyIBGsi9PUFOltweTzzbbjC8+Ww19E0aTOkd9QkjYqwPvcb/wDXpippqpUK428ijUcdHFDDWV6kRsUidzq03HPvycOU9aWphplE0SJpDaCLgcW9P+7YDg2vTixP1JwUlEZpCyiV9AYKFaw3N+TY8na2Mxx01UJBTyhYmjB0S06xG3Y/r3AOLE23kZy6MPlpKuVkqrBhcCYBB9LCwxCKOaKJlWeKYLpULMGvzvc8/YYs32qkhsUeVpzJpp2DOgBGrU4UE33Hf0w6/nSTrSBGvw6BVv2I/wCcCTjxHkDaArTRyRsizHq6tRTVtt/XbBVr2o9oHjARrOvTDPcg/Xb1xWvVbYmeRskPIHk6ayKu2uQB237AbWFt7+2FpalvMZVRGuoLNbn6YMlcsDKwKTxSSoI5IUdRr6TWZyLcgX2x5qeskj0JI8kat1VhMlhqI3JXi9u3ti1O1QHnLG1DpI5eQxAWEcZFyv8A+zWH12GJmMPAVFQP/Vm/DfCSwBLFjEFIxBXU4Juoa40t6gWwbozSXgUtLNcB9hoVb7C1x6cYqd7kWUNw5bMwMqUjtJYnpFioAHpfnvt7YXWrqKirdKWOSYofNCYiwI9bkcY2w/d32V7snXanMI3paiJKiRNQK/NLZGv9RsPTb88UJqpHljp2qurTygKzdXWG34tfzHbnHMTStFNYyJmJIqWOEIjQxDYKrRKpuTqHvgv/AMopaCJywSVwdwlyF9T6/p2xbe5PIyQlH41mzNTJTZfGCfKOtI13btseNsT/AM3zBGaSKhRQw2i0DVewuw3IJ++M7VZfQc0XWU5q89NeSJkZD+HYNqv6j2wOorjmMSmePoR3I6dTvbc7jT3uB+mDSTAvklRw9JCKNY20nVI2n9O5/ri3p45l0OC0lQTsRYhbgcAD+OEbSe1ADR0U7Fh1Aksh2RvX1t/HBzI0Ajjlkh6rtpKrcD6jm33wqSXOSOkM9UUgaWSWyW51AH2scV9LmT5oA0UlOadPxIxOr/8Aqt/zhm1tfROKLGgpXdXSSBBI6FtIG32OFP8AKXnl6xaOKC5soflhsNjtbntf3xVxTGsP1VUaY4x5ALEDZiDxpIH54jDEK55plbTLYpI5YXAHFgSQMWKqpE/QxFVLlwjhlqWlcjTqlKtsDgnzMxnNNBAIl/GHYqA5vudvwj3OEjDc89BbwZoa2oyrM1rKedkqQxPmclFHoPXH0hlXimTO/CmWZishWSSMGTpHVv8AXHu/9N+QlKWg+OTj+dC0tRMr6nPcrrqsw5hUrBUt5eoU0Sj7kb84cy/wHX5Vn1LmWU50Hp6yI07OG1C6kyJf1/fH3GPfSn9tW1aORFJumdIy8TwRqtbLG8o5PULE/awwxm0dTUZVWR0Txx1jwusLTA6FcqQpa29r2vbHH1c24o0RxyfGeTfDvNarNc4E8dOlRl7tFLl5lMaNICQzaxfYA3AA3+5wSn8G5NDRPJLmEiGWQylmtGrso0sAWIAG+x2v9sfPtLxIJtTef/J13qtP0i+Z+GMrjjNTD4pihjdlVWkQSC54FwwFyfKLbX9ca/UfD6SbQPnSZbaIY2jZWYAm50cgbffnDS8JVaeGWx8hrDWTW8z8PVVK8hZYQqN0JL+Qh779j9B9MazVUQadx1T0w2o9Lg/Q9z6458tPa1g1w1FLgDV0cjNIelHEAL6ZJdJQjtYC57cHvhvLo4flirRaonN9pNTJtvsSN+bXINsTSUbZbK2qGEzURQTwTRKtO8ojOhgr7LsAb7YXNQUSnZYHC6mARF1GEjfzMD3ud++NEqawZmmCq6X5aWSaeqljnkNxG1mAj5sO3G3rtxhOaQ1ABpZP9RWspACtbuGA49h9MJJb0/gsTwjKO0LLYK0xGovHYE733v8AXjAumsSFVVpJGPlLJyfT+fpjMlG8os5Kk09PHM0XyxhFtV2VSHbuSebfQdhj0OhNIm6SsfKpbsO1tr3tfDKVKokrszPLTrCQ+lAzWWWS/pbTb3xGWSM9Ppxli2m1je/Y/QYkJuKd8hoIkTQ1B60OmTshNip729cTmMkrEQ6byfvkHX9Njv8A84rnfSD0Lx6qfVcPOL7GUlbD6DjC6TSqJC86ylm3BXQqj++OBhk7VsDe0zV5c1Okego6zDzR6wbqe/G53v3wFpxltK0cFbPpiYhYkN+oe4N+21u2G0nJ2lyFPNlbW18yuWMMKSSKf2sl9V+dwNgB+eM0U9LUwxzCpXqykxi5ADkDa3r9cSSknhZAniyyiWmra6N1popT0yDJUP57WsbbW++BTRdKJEiqAk6G/RVDYgA2Fv64qp3gNnps0SMSdWaJI4wRMz3HuANt/wCQwvl8NNWkVlRKBIRYIW2H589j/PF8Ytq0BFpSUtMY1MiwSMb3Ci6/0+hwtJJFM3QNN+xYkBhGNI5vv733+vtiXirIk1li7rMOo8dOrIoI1X0tbuLmwt7/AMcLQlaaDUJI4gBuzHUSL7ce9+3rg1awxcslHSZVmAqJalpadolZ0UQuRKSDYLtwT6/UYDR0lHZ5GeoAJGpp5SUFrCwv3tbD7mo7XyM8v9C7SGm6AQysURTYFrow++MGKKo16YenG6DZQLkb2P5YrgleSOrtmAnShFNGqyaRc05Cs73Nif1522wrVPVUyRgtI+m4YFBsPbft6e2Hja5FywpgNVJAKWpZ4ZVZpNcBV4iCALji5FztxfGTk9N5UkqXkPGhjt/G5wspqOaDFVyBkykU0k7q5l1kKojBAAH/AKnnf1w/DAVclpAJLAkO17+vGw+3fDJqSwFJjcVI8lo+nG5bizAkC/8AfOCx0zK/7elkWIMA3SAYkDkAHnudz27Yr3JyFargwMvigeSYiRiPwR9PcC3N/wAsCh/bQ3CSRFraldgCN/qf49sRpxqgK+A5y9LosaSSNpNnQkgcb7nf0xYw5TNNG0QSolZVGsMgJa222kX9MaYreySe0LqpI3jjrA7wuygRJC5sQTtsCRbufpi3oMmq6wwSUphpTIpl6lRJbVGrEaVAFwfri2Ebbl0Vt0G8TZxW1WUulTJTx0KMlqWnlVgz8B2A3Bt9e+/bGrx+JDAIqenVuivn6YBAJOxu4G2233wkpJSSvIYxxg6TNNH8ukMfTgjZdNtB5PAPp6YoGlmnlQCSJwltRRdB27bbeuMUotJ0hE7C17x1QtJUHpaSQsbWPcW3xXlaaCmEBp+sbAfiJdPrvvzimLr0j8rBS1cmYQ9I09NeFmVSHQMG+lzta33xcQTTUNOZZUp2nFyC5KgfQ/8AGLpNLoasDkGaLOkjyppNheJCCpHoLna/rh5aeN6OOV4npV2tDI4Nh24JGKpLakL8FjkthJM9/liukM7r+77eu3pxi8/zTL4w0NNUwSzAi8btY6ieDf6fbFTV5FbyVVfnDxyMKYKRGDHd2ujEdrfiPHOC001bN02igSkTSrlnUydS53CgEFSTbkHFdKKa7DSMQ5e+bxy07wySRB2uruTG632BJA9MPLRw5HTvBQwCOFQrMsTGTpj6E7Cw+mC5ScdpOS4pa0SQsFeUymwDeVRc/W397YpZfClZUzTJPmlZUksSkiKsSptvbSLDb+uEVp2KrISZbLl9Ot5aieenSyCWSzTbd+xHB3+uAVFPPWZc5CtC2g6lkXUL2BI2PHv64e2xkgL5mtPRqhilZVUaGIUKPc39PTvhP/5DMsj6UM0NgVYtpdjbi1vLf74eksIamOjN+pFTxxh/mJEDMZG1AAep4PPGO3fC+bMJvB9Ax0SU7xsrsnlAKsQtgbdhjvfRf3flRow+VG4NM2dM4p5KdqbPKEVVAPKKqNNTRemocge4waH4eVdVAtR4P8SxpEJEmRHYyIrqQRdR27HvYkY+qSlsVr+J5+PNM2zwnm3ib/Lo5s0y7KI3UtHKYZTEQ6sVYb37jb2tjdaSuFWi2Qg2303K/ZrC+Ofqxj+US1OsHL/jxVUXhTw9Nnmqio4qciWvmliO0ZYASMVB4b/dzuBc7Y/Nb4x/4ts1zmpq4snloq2ihkMqz12XK7zMNSqQjAhVAIIBJJIubcY85reM3q5S2v8AqaPuuMcPJwTMfiF4t8edaq8S+IJ8ziZrR0jyaQtltqVFsBYbXt2GOof4fvilnmTyw+HJvEuYPlc0yrHFVVH+kxsALm7AN2INgRuO436kFPTcILoz73GSk2fSmY+JJ8nzPpZvTvJVxlo1M6M0itYXBfftsCfXGuVWcV5rHSClgWiYGwjcNY3G2ntzcbW+mPD6uo2qqj0cI0rXBUNBHFLB1IwCLENMjMEYm5IF/wCGJyxag882nWoJDAHdRyOPvvxjBhJtcmhHnraejDO2t4yoOlk0uhBF9PN9hztiMOaTGnvFESZZH0uuoPba172HqDzi2E21Jc0Dl5BRVtPWU0r9aKomUC7RjyG4NwbX/v6DHgmlkWFpqdI1CsCwQm/fYi449MVuVSpIm19hzI8V2jjjbVpBLMAQL73PY4UrEbS8U4aVBfzILo2221/tiRhjLGpcFcQYCjSStHcBGgiJsoB9Lk/p64aLms6iqI3UDSra7Fd+42vbfA4CCuskBXW7baGlvrW1+BfjcYJU0zCGOSFhGz3Zif3r9wPbnFqUbG6MRoZZBLHIJQDqVXFr7bgEnY4xOrKTriVGLNswC6SLXFxyMU/i3YFYOpWGlJigmSoqpF1Mim9ibHn19cJT5bDmSCnq6czqhDMiNfcG4323572w+9bcBaPVECVNbSPBHHTguQRMPORbcixsp4/XGKmkpKM6T1mqy7BDHdVXYmxPYG/PfBg5YoPQqKCmp5dZKyIsZYyu5srartYb9/vgtMaKskR2gS0fnMJjsDz+9tb2GGk21ROVkMZXpoAmsBbkJtqA9gB273wqtOsdY1OcyrevbVbq2F+dNzcgW5HpgW08IFbuTERSeUP+zqWa46hD2jPqSbexw3TU0scrSuIJFZbrILWA9B635tv9sNm8CNWYirpCQUh8jWQHUGA9QNPb+GGFqkQDW8cl7EtECdI7j32POFrc/gsv0iVfm9JCmoyLI5BGlGC3butjf/nFV/nLPHKr5XZC3likAGoDcWAPrxi+FJtyEtrIzSjNKynleClekQks7Sur32F9m/LFlBllWgjaaSmmVlH7NmMul7fWwUHtiqcoKqHaSGKmneWOKIxU0ZAtqBLOx7j8NgPbc4KyRRpJGFaVgApuSFHq23PYD0wspRS29ipt8no1NRJErRIpJuquw2H1w2tLLHqBi1gbLcgd9r359vrhFNyVLgm3IOmaSoqekItCbMw1jy+52/TDtLlggVIRIUdiLO7aQ31J2t9cBLDsZvNClRlsFRPC0aOkkYszg/iBPm5NsO0NLSJFNbXMFvcMwBB4BN8O8tUBWxqKopaTVG0wDFdkIBP54jBOlQ+pYZGKkKdSAB9+Cefywm2VrcC8DNC1CetHUxhAx0ieY26ak8H2FsX9NkFJI5qGievVxeKTL9MUTIx3a7ci3fc7Wx1tLSUllYMk5beTNdVUGUQCOfLKqniNtJsjubDzEKexN7WOAZjLQikip4ZamjZAHeCMFS1xsoCAAE3Nyft3wML8GNbkxCg8Qy5askcbtKWfzXa7H2N9/XFVX52avVDcRLIQTTt5QRc9rcd/TbGTU1Wki5aasrzT10saPCEgCsG76yo9B/1gEeUq9SXXVMjAi9rW252OK1NXZco9G6yQxuGbUVjLG5Dm5vbn+74CGVCQt3VT++u31v2wzqccGK80Jyq1VUu8NS4CkEqNrgfltuePbA6uonRJ40hZ45EsXjcAIO1jyfcYpaap1gsdVgTpqWeRViaLVHrHnnZ21Wt+Hfn04x5YpGYIkjdSW40x3cBR+dvviSaUxbaLPLcmossWeKnWKKV2ss8o6jA22IvsN9rbDBL1qzomYZnridgyXXcW7GwtbFDm06kRMsR4hpqCpSKPMEnV10dPot5RbezEbfXDsuQUrTJXQa3lYXKlgBY2Jvbfe3r6bHErNEeHkaSlmipg1TOQwbYGO6W9bm929xhmhnp6zMKiGOYxqFBafqIWDf8A6gXHbnCTw1Iiqy8p0kSmF6iNIU2DA62t6sfXbjABmyMLQstQTZSSqxWX133J9ucCmn6uBrwFymUS06vNlxglVyQvUv78j88NVniOOmUh7o2og6mA0C3a539NvXCulhA5EJczjamm0VJmUt5Y5rEgm3HcDbjFK2ZVp0zSxMIv3QZPwb8gXxE/5hXFEJI2qUkjmeOSNvNqhDG/oCb+nfFTNKKJ5CYUomPMwHnJt977YaDrLCsMgtTJFKYmCPEAGWQIbvcfi24+mPpf4T1MVZ8HMslEassc9Qkml9iwc7bjcb3x6n6GpPym5e1mLz3+7TRCm8SstfIaaRUrIvxRtYrKnv7b2xsuQvk3iaoL0Mr+Hc+sCRBJoD+9uGx9Ki3WOTzrwWtJU+NPCubGGsoaPN6Ctn1RVDnzJKVGxtwG03BtzcdxjfspzjMqqWNJ8uihjbmRJi2nb0tjNqR05+q6Lcp4Pzm/+qF8Sa7/AO4+VeFqbOurlkWXw1FRl8F1WKo6kmnq2Yhm0tcCw0gj1vj4Rjzjos6WYEW3O5sdx9u2OXK5vIWmpWCpZ42EomLBZAQ2na23lI+m32wjU58+SV+WVbMXaKYo227pte/5YKbg6Byj7Pyb4h1XxMepzWWCM0saQxw5gWcx1AEYTVJckGUEFWGwtY23uX1rVpAsLzx08gfWyhSSy2G4I2se29/XHgPP09nkTS4s9L4r3aMWGnzmPq2aRDEbaTrIYbcAfl39cYmzDrtaB31gf6arYAd7XNuT+uMLe10jVVFdJHdhJLHNJUxpZlYncnYm3fbHp6CKGF0CKjOuoMyuwsSLg3O2DvT4FpWO09Oix26iTwPsY476TxwPth1pVCAxbKoBAfdjbAc1dIdZFXiddcwDJHILlW5G3IucBkdFBCqS4UaC9wFv2/P0xVXRGr5FmRmjIKIHHDI539rixwKaVFqI4TUSrHoB6Y84O2wDHj+/ri5U4tWTFjJrCGGiyo10bQVRVsPfk+2CrPqiYTI1itlJOxtxtiuKYvyDMhVHUQlSoACJZS3G4uf54ruvWBnvA7coqyEKGP1t6YsxdMZ47B5fmNdJKxOVNU1UYGh+qnmS24DACwHvucDzsZpTMXkouihUCNjKJLb7kC4sSCR6XwahHFjrIKeoNK6Ru8cTuFcksSRsebXHocZy9AsQlUMkAU3JjupHff0v3wIMWmmMooXTPURtLGtukadizSdrAbcW74LPO+uIRNcSAlVZORfe9/f88GUuaZGnLBX1eTVNZmaTtWSwQqp6dPAosNtJuffGWoJnQr12lqEKh5JywFtja6gX444xWtV2lQFGhy8blXkeJ5dJJUKyqGt6drDC7ZfHNCH+URtO6MY9IX69/rjRbzTJTDdA1HTjXdiu0cFroPUe+Exk80tRK0imoXXquAqEKdhw12Nuf0xY5YEp8MtFyIxx6VWWZQ5Y3RURb9/1/hgXSp9Qlld1DXaNAqgEA73PJP8AziubvkLuqLSnpSKVGSeN0O4MikG3oQB9rHE2p5Yoer0yi8hyupCAd/Yff/jCSg1UYrBNy4IUNOzQLUwr/mMOxPRdbOCfW223pg6UxWljqDT/ALNyUOsAlfQ2G1tu+H2dgiMNoaFmm+WhMZAVH1l5PUAabeh5wuk6VEbtHDJE6rb/AMdbsT2/O2KlCLk7Gcjwkq45H2iMbDX500lve1za3ph6hpHkY3KSM9kaNlup25G3H1wVHdhg5yyD5NmFS5hRYWifyompldTfYW4O2+LLw14LrcwpjO0sdMd9HzJtId7cWsB740Q0G3TK3JJWbqfAtFRUIq80qIZZIEuFJVYgLdyB5u3OGGzFcvqY7ZZSQ0OhW0dUNqJ3BQ6bWHoeBt2x1NkdN8Gfe5uroVo84ydYq6VsrSY30wMZ3Ci1wLjgWuTxubYQqfFlTIhpIWjy2NWvqpZLswvuCWvz6ixI9sZ5aqgklz/yP9tvL4KGsmar0h26kaksolawA72/598UlbUPTRsYIneALpVlnCpzyBuCfTHO1ZtOvctWHQOnSWrRRJTtGVQaoHGprnnjnk4djWKPTErp0gQG0kjQeLD3/rjLNbaV2XJuyKZesfkhvOtxdS5ZuOBb7bYnBMtQphQllS4IKMhJJvbfb22OG3/7UWNj0cc9Uv8A5REd9yIWB/XFYcmWWZ5XFRDoNjIxIUj77Y07m8GFoxR0sogLiTRT6+mrwvqBFuB639cWsElOIo1eKZNrjWQylvTUPpiPDvoTjJmKmpayeCYz6o41Omxso3BsF2H984KKhJKiOnZVDubIZF/GPqOPzxXKLbtjZZOSljUVYZRD8uLCRpF0b+3bjvgVb4bzKr+Wqo69BDf/APDFsQdr9u2K7UJbkuSNoeGUtT0pspriSbzSRqLgjgDsL/3bBIIhBKaiSHp1C2SRi3mfsL7gWF+3vhbTdjVWbDTZ3HFdpKiKoAYoIVfUVt23Nh+f1wT/ADGOWFKsUIoJG2kkSAErbg6lvc+h3wq5WQfBZ9OCslhRXisqBmZls68XDNa18LwdAyIlRHDUVAPUWVFUgj/dZdlPYEk98K7SfyTkG+cGrSdIumrM9lKOVBtfk3JB9xherkkVClQy1e/4nUc/+qnFclviOkiolGiSMrM+pl2DnuDvthyDM6mWMLULqYeXZeLW7nfA3OMR2r4CyyjSyM5TUpJA/EOO1vXFU80SQSrTSaBxqdjKxB72tcW4++LYQWbGpJWxWG0IaUVPzLTHcIh2UAC4ucfR3wQzqij+EmcT50ZqHK8trGIqOmSZtYv047/icEW9rgnHqPocq8rb8M53lq9Nfqcs8S+Ks0m8UU1bQ0H+UxpJqigkbXIy/wD+Q+45XbHTKOsizShgqnR1gffULho2HNj7Hvj6HpSbdHEkkqNxpfGec5JkkpbO6ety8JqjatNnicG6kP7EDY43zwd8V8q8Z09JUQ51RwmQAvQ2tIrj8SEnuDcbcix74eWlGV0siJ7V8H5Tf4pfh3nP/wB+fE2WZswM09e9ctfLcxMk8pETmThVsQCSQBoIJxxz45fCPMfg14hpcrnro8yp6qHrUlXEoUVCBrF1sSLX737jHGSS04zXu0/ijRJXqST/AIf5/E1DLcpnqW1kqNXmBAJ/T64r84gpVy2N6qnSrYztGiyOVIF7BtvTtiTfsVRVo+tP8MORUHiPw6Moyuq+XqKaWUvkxbUwIRWMjTM2ys+oC4NyVUDvjoc8MWWEWoqSG5spJ1MfqWsLY8H9YjOPlJXzk9H4SvTPPNTRD5gqkgDAuSNWj7fwxCphpXQxpTqYZd2Q7Mf/AGv/AA+uOO4y3Wa5cE4WWnfRTRSKRq/1gGJtwAN9repwmZp2MsbRosl7kLcqw5udhgpWra5Ez0M09PLKyxKSyggXAKtqPIv+m+CVsS0rCHyPY2ZgeB7n+mDJW/0LUqK+WSCRCSjbNZ1cgqbjYr7Yg1TGqjpr12Ngxa7LyOSOMOnv4K1zYMQlmdB5XVfK7Ws244GIU9ELowj6did5XLED1JIsMVJNcEVJ2REES1KqAS9y7Mbb3PY+m3oMMKYaZniZUZwdbxKd722Nv3vrxh75cRna5K2r1VUTsuVope+tXcKTbi5vth6OGcRqRI6rILMiOdQ+rdz64vd7LQM9npKPM+s3y4po2UbK0Cvr72IPYb7g4FVPVVaxpNTXTYkM4Bc382wGy34Bvt3xXmLtqwv4YKqofnI36cevSQVBcq/JvuO1r8/yxmpgooI5HrUihkI0gxhi5FxsovuT3/4w8JKLaXJZlkxDJUPAp69KGTaEqpV1P+6+4/4wJKcRwr1HU3FwUWzEA7WNrn7bYWcNrbBLCCFerEvTEq6RtIwDA3/u22GqajTpksyzX3CrEdQt3t/LFGXyRZyyTJE0NgumT8BXuPrcb4IYi4jjeJUj08udPfuBvi6N9EkLNAsTuUAAX8RjJF7+/wDHHp1WlAaIaxGdRJXUVO/Yb7YdXaayV12Tp80ethKBlRQofSkJLj3v724/pheWWq0G6pHHcjq9RTcH2O98O5bpXwR8IaTMYt0YXnjhEbuY/wAa87Na/psP0xiE+SIdVUAYSL5yTe/t/PAnOW60SklQwtXTCpvHA9NMIzpeKEXvxcswP9nD82bTVMaCaRv2dhyQx9CbDFt3H+5Xtd2zEVaUdUQrpI3e2oj+9+RiVFJG6KJFSJlN5G6Wksp9vphE1wxpKwlL4fvUrKJ0pY7ktLJL2uLWQC97/wAMGWrpawOYqqJ6xpNIMQ84uOeP5YujykBu0dE8K5Jl2SViZhX5jUz0jwljDHYve4uC1tr7AWN98M+Ia/IIK6pmo3qJ1lj6rVM1XrDNqNlt2F+3rjpShGEUryc+UnKWODXo/EdbUqIY5Jo0pvxASAW3JDAe9zgX/wAZ+cTqSw1gUG+ksZL3Fy1hc784qcHqLc2WqokGySanoBUQ5ZXT0z2LVS04CKoHqTqXa5vbYHAqTwimZPTxpVdFJ/NpEDMTvzcX229cZ/2dzaj2OtWkXtb8LZKKVgZ1qEmBMIvov3P4jwAPpjX4fhpnaVhgYBFlICmNwCb8XA7W9MJPxJ7nFZJ9+L5Lep+D2f04eSOneCPQbSwsJFBGx8w7/fFbJ4NrcjiVqmemUuf2ayIDqt3Kr/G+K5ePPTT+4iyGtGSwUFR14wEoqrRKlxokPlsTvxsOPyO/GCwiq6IaVirclEJ02v8Ahsb7H1xmUFubZfeBXL5XdxpCSqLXk1bHc37YtzVU1SJI2jaQBzrQggk2vsf4flh25W20Z3IqM6oGrUETtNThVB0CNSDf0739MVWVZpULJTZZRUZkhhYs3zZZVAJN77euLIZixX7mzGjjaAGWSGSYA7KQl7XsBba/8fqcYOa1VM3ysbRyAf6wMmogdrbfrirYqeSbs0Zqo6mePTBTQGM3ZpJSH173tuefr9MW01NKyRwlQjICBpB22tawvbFbSSTRMID/AJfUzQai76l//Csm5+42/s4jS0jTIQkLrINunMWUX5P5DCONr5DZVZpkte1TCkVNqERN2OylSNjvz6euNglqapory1FRCIo9LIg6d9tud+3r3wW/TQFyVUlWk1IkbVqhZluFDLqmIFyDp737DnEJM1jyxRAWKyaTaNF3Qj9Pax5+2E21+g6WcEFrw7s0D9FlAZiQN1vwCOB7++J/MtKXlYLJGTe8Z2Bvtu304HpzgyhhyQ6eQVFX0ebRuKepiqCLo8cDBwGvcgt6+2LFkpvl4ZJZGWEH/T0FStt7259t8VtU6kM7qkBlkDt1kaSJGtuFvcX/AEG+KqWnWGdVLyRKS37MRkDc7G/Fv1wqlvtJjqPuJxPTu4CsBLovpINre/6/kcfZ/wAMPAQy/wCCeSy5zRtPV04lq4IJ5CgjDuWVmUX3tY+u4x7H/T+m46k59cHJ854S+Tk2Z+E3z/xfNU1lXHBlVDGZqyaOPpRQoN7XO5J7E7nHRsgyODPadpI2FLQmIQ0qMbAW3aRv4fY4+gxShfucW7NaipAKtrJDURLZikq9SCRTwR9R3GIU9X4fpPEdFNQdDKaqrkWmqKRnGmRz/puh7m/lPezL6YkHFtP3Jnjo5/8A4nnpJZwKuOeISU3S+apJTDMhZSrprHCsLXBuD6Y+FJvgb4Ups1gpf/luZUyHyxQyxRzsoJ3AJt67bY8jq6+po62pGCtW8f5/Y3faTim/Ys6z4b5L4Y8RZTlEUlZm8mbVUNFDUVtoljBYa30IR+6bXbbvbbHM/FtBH8Tvjd4hl8Nw09HlkmYMsDRRHQlOj6FYKO7aNQG1yw43wdPUlOf3G8JP9DRPSjDRjGPLZ1rwhT1Hws8WeGDmUCrVwZoHir3lvGITuuplstixOx4J22tj6a8f+FYKZ4/FGU1KSZdmUheRkvIkEjX2X0U8j0N/XHmvqGotV6epHh/0N3irY5ab5NKRRVyyRyMVN7BiQNYG1iN+edt7YAtGabVrIj1PtIo1Eg8EAn+IxyH32zRdjVLNpWPqTzaV3laQXBH2+1vfA3qBGEIlksrEiJ730k3Fx+WFcqiqCQnzL5SCoepqooYEQkmVggAHLatv1xzzwr8Z8v8AEGeRZVNQSZXUSp+zklmDrJbsSB37X5x0fG8WepHUlHhFOrrrSaib0Yl6w0xFVUmQBbXJ979v77Yz0pZ6heorw6jdNEmoL63t9cYMQVltjUdIxeK663UAmW9j9eNz/DHhGRM2pdrarnZWXtuPpgt2tz4GfuS6fRpnhalEb6f9RWLLbm5B5xCkiijdmjvG8tlYaRdzb6dz6egwm1RQ6TYSGKlhqZWeBRNpCttpNux9+MSJLMemgGq506rAWG23e+G3ykqC1WAZpXmmRhXVMZG2mJVQH1O/fsAcNGn1IrAM8psCqLqJtx/U++GeYqNi0JrRxyEuxa7HRJcWb2v6/wDeIPT08SQjVEzKOkhlcSta+9z22sfvhE/t45Hp4IioWZAtUmk/7NWolR2JAsMGeNJgWqCV0tu4Oy2+o2tbFmo1J4wC3wYBVWMUc7SSH1a7AcA7DbCuZRtC0SIkiOrA/siRxta42/P0w1cWgbiFNA9PB51l1Dy2ZuqHA5O4w1DO1TcOitIm7atKkKDsLWv+WBFq6bAuKF6mkTrQtIjBSoAjju6j6jt98E+Wl/Z6CoQX/EQCD6A4imopkiqwyNU88MTaIjCuu7tHez27XvsftiMUzzw6odQjKn9gI76voT+lsG74B3RGKSWXQWjEUighUlYIw9/0waGqjZVjbeTUNRiazX77Hn/nC04xfuC/cItWQESFVSn/AHuowAG/PbbBA0UZJkdmEl2D6y1rW23OJFUrsl9okjLHCGQSqzA30gXWx/XbvgkU80dOz2dAbLqYhtvQjkHCrjPsFMmIUCkGJWlax16iGG398YxDUVFEwagMFNIwsny8PnPuWN/Tk8YsWpt5BLPI+ldJUovVBkdVBLagQp7jzfTnCtZV09ZFvPrKOSFlXUF247f37XxYpSbuyppcJD6ZrLpg6Lh9AKiPWXB9BYDFnSeMMwqKWqWEy0sj79aOLpEqP/blfTnF0fIllJivTjIcl+JXiDLKLQomejEQZPP5I7Aea1iT974hkHj+qETTGBZZo3LxzcNIOTwLe97YaXlSdSayJ9lK/YlT+O8zmrTPKpi0EvHFNP1WkZiNRPNh7bY3yD4gVuXeH+s0sFZVnSRpIVo1LbKYwNvS4ve2N+lrS2WynU0vSqN88Bf5lWJmFXnNBJS01aVENGGZUjReGCk9+SP0xz/4x5zl1bnkC0tLHEYYdEjKq31k3ttttv8Ani/6iovSgu8FGin92k8HKa6mEx60DusrNZbRW2+tt8YWvrTCQkzPZQHEqKW4H/ttuTvjzaUUqOw8qizyamaNV6i61CgMG8vvcKvIv2w4MrdKuKoljYxqGsw4tx9rYuttmRDdXlKSs0+ko4BCmO4Om38e+NfnyE5bUCqppUNKIvPG6sQbbfi1bWud8UqgpOqs1bMZazM6xZZ3b9ndaaKPQVVCdizbkk7Ha3AxYZZSmAaII0lZ7a5ZptjbnY329u++NMox6B8GzU/Tuh6dhewQoSv1AttY4dSqCzSiU6fKbabhvcW7YraVUhk8YEsw8T0lNSzdaCRgliqxXdwwF1Fh3uOcTGf/ADOXxCFklqpFLRJMOkRYXPmbce+2KHB3aIsBnzOehhWRXjVFNm1+YKeSBff7841urzuKur4qqKWJL3ZRpLFr33vvp++G04rIchcpm6VSskpgWIHcxPsTfkf3fGK/OIBFLCGdZ230xQ3A7n6jf8ycCTykNdvBXmanR4o5p7VUw0trOkkj23tf0tg8IdGMTIgBOoA3ZT9bnfbEbe2iZDw1JyxxDBRq9UL6WUiOPkXvYWFt8Xf/AMghkmKTdNTpuy9QLqN7AWPb74qlG3RP1F5s683TMNPLAUDB1cML2Nr+4vfvipamEpMZnl3YalVzax4IOHUNjtDp9G4/CPw3lXiL4jZDlubVDQ0M9UoljJ8zWB0KW/8AZtI29cfY3jbx1m2TVzUuWx5TX3S609YXivv6i4x776BpKWhKXz/wcTzr3q8I+b/FueeIvFHiWGLxfJk/hnwhQN89mMFBOOkkSnd5SDc3O12+wxofxn/x6+FPDGWVuU+AIJfEFbNG1P8A5lJGaaigQghjGLa3NrgbKN8ek40254sw2lJbcnz74Z/xt+O/DlOsFLQ5I8asSivDINA50gh+O/3OOL/Fn4zeLvih4jfPc8kNRUI/UhWmJihpQLFREgPkA23G5O5JOMUZ/b04aa67ElcpNvs3Si/xv18vhTLsh8R5I+aVFHCIGzKStZpqix/FIHBuQCBt2AwjR/4kfDUlWKlPBtR85e6SCeMBfU3sf+8cjU8H7kpTU/ydvB1NLy1CGxxui4qfj5kWeh428PTUsFTGYpKwVatPFGws4iYqAjEXGocfrjavgd4e8LZD4cqEyafqyVMxMzNKpkCg+SNuDcDnsTc+mOV5mhq+P47SdxfJfpa8dWatU0bhn2Wf53Sf5dU0TVNPNq6kE9ySLgCQEfvC21z6Y2P/AA/Z+R/m/gLPHeeicmOJpWvpt+EqfyIxw9OSlpSjE38akZDXibIqvwtnE+V1NMZmtaOXWSsindSgHGKNYJpKWQyUyxtuAkknlY823G/HbHOakvVFFsnnJKSpqKZ0hWELqXWzaxdb23B/LGveKvEmX+B8qq8+zOsK0MCnUjDzMx/Cq783/PGvx9L7s1prllc5KMbZwOf4xZpnUeZyT1tXDT1cfSnpdJRZYwwYRsq3JXZSRexPONYyHLZfEmYMcvY1UpVjoBs219rdtu3OPpGhpx0YqCWFg8rrOU7k+Tr9P8U4fCWZyxNTVlPkKyaehPMJ56UNYFjJZddjftxYW2vjrOQz0Gf0P+b5ZJDPSkAfMKSFdBt7b8fS+PKfVfGjG9aHD/xfzOt4Ov8AcX25fwL9KWlIik64aEA6ob+RfW354cpDkyzlyxQkraKXz2vwRf1N+2PIzjKVJHejUVRmq/y1J5YwsUajzAiS+onke3fEEraOUFaUAycFlUAG3F2PHOEW66ZEw/8AlprQqvFpjI1AhhIAN+47++F5IKaGvNM7Ksth/qu1u5Pb6cd74ub3Kokv3H4PDEEkSNLIqutrIz7Dm17c/U9sBqfDLfJMyxfLRAm0pJ0k2NzcgdsK9SSVMZUVtJ4WmzalZ4ZKeaIL5dDHzW73wGqypsti8vTm6n40jYE7Da/f6e2GjqOPQm1oD/5MHTd6YmNgdNrPYW34Jt3wFqdKyFpousARYkqTpv8AUEXw0o53SB8Apy6oEjUBkJJIFzbfb9O2FY0E4aWKWyhdP7Mk3N7nnnGi0+ehHVkmaPQuqaQCwF1fSfqSMel1GSWS80rybsXF9PG9+/3xK9dgTXDJipjCiGUM7EXKkbH3wVqt5GdWi/e2sbBfzO+K8cIKtYByw1OmMiJGjc6CzEoRvufQ/wA8LQtOkrPqp5nJN2CHUg/PfjF0aiqFaXIZoJS6NeJTysoHHte2FKuGSSJkjqArG24F7i+3ffAnLNdDbQscvy4RS7EnUARueP574YVkRA5J6YtZWG4vgtLNgv3IQh5mPWrI44beWIWB59L4ZiWKF1CBlc8l7DftuP574kvxDVInHVFZmdAVkQakktqN/TEZUWsmkkqelFJqBbS42J9Rf77YC2yitwlZyElpoKZi08h0t+EkG2/Auu1icemMlUsL6UMbAEMxIsObKO4/LATbx0R0+RqoDU8KMquiIbEhd7k9rcm2CUqJOJZtUlQFchjI1gSB7evuMRu/T7AitpiCseNonp1RFa+0bkqvayjkfQ35xiXOHp69ulDUMSCfwsIxfZjY/wAsNCNOwvJsXgrw/JnGa0lNZqiVh1Ch8upe+y2x3Kh8C0uTSx1VWKGKkjUs8Bgcvrve5Pf6Efnj0Ph6fpU2YNeW3CKzx/4yTK6WSMlqeGRLJoYa322GncgdzxtjhuYZhDXTO4lbMDfgjdD73G+9/wA8cvztRz1fgfx4UrK1aqsmptSRJEqsb3I1AcE2BP274JT1EzTftInUsPL1CN/Q7E4wLmjel6aLmizQT01PUR0U8DsfIqjVv6XBthqPMqw1q08RfoJfqmVdOgc3uBY+2Gz2ZHyTSfMHMfzcpgYEhWimIiI7bf7rfXDVMpzCFKc1oeWIBXUSkzL3BY/zxFjIvZUZpSxx1ysKYmZkLa2Bdjc7my+vHGFqmC9TFHHCzu6neQaFjNttrgkd9v54ZZiphwCy+qqZNHz0yyh5SL0wZQALi5BO49tvXD1dWClDSxUzVMqkJZXBI7EEjcEGxtixadO0Bc4FpJpjLrkaCmkUEvGNIY2HlF9+STuNxjTavOK6iqZFWhlXU4ZAHVzYi5Ou1wDxzf0GK47XywrDyWUed1EwHzauWRQdTMNTG/O3PbHjmvyxGhLzGxYyjUTfkgKb8gc4G19IKeCNOUzSWOOKVFN9ARyY7sTyb2Aub3/phyurZslWakZFXW37WenZHJtewBB3F+45+2DsSlkaOWDozRtAjNqB0srrYiWxIuSw45tzi3edJ+pAqiVUW0fUiB0LffUexsfqPTFEqTaQ64yMyRqkK6CsagXsrklvXa254GEaikmniBUG6MLAKBbj94nf77DAUsjOuUIz6Y3ePVH11GlUVupuOeAdyee2BTRCqjjWtj1lLNpvsCBycabV2GnWDWfGPid8o19Cp0zA60kj8rAjdSPcY3nK/wDHbl+ZZFluU+PMsK5lTakOeQailQpAAMirurepFwfbHqfoXk/Z3Qnw3/n9Dt/V/pu/wtJxxOCv9b5ONf4mf8QmVZ34by7wz4QqIf8ALswY12by0xIMpuRBC7bE6QDIR6svpj51y6pkrpWkqJAFUAC9wB72+oJx6bU1Ld9HzqaalXY71li1MfKQ3Hr/AMdsVxmNbItpSqMbXJ4PrimtzQlNH0nm/wDhn+Gkvwiz/wAZR/EGiGYZfIyU+WR5lTTy1cSRjTKIiFkBeUhQg3A3ubY+YKXJ6OCdOpTxsQhBftc/y9sadbT+28CRnvjfZZpDCFJSNEXi30/rgokliZtDvGeCQ/v6Yyq0qH5eCzovF+aZab0+Z1kDEnZJ3AtfY2B/THUPA3xXDZ/l9fmM6U1bEqRS1Ia3VK/vMOzcXPH0xzfJ8SOot0FTRr0tWUZ5eD7Zmjovi74PNOsoTNYE6lPOtr6rXK/Q2t+WOOVDT/LLA8bGpiZkLS28xB3Xfi1uL72x4HUi4ylFnpZZSkDZxU0cutuo6kgpE3lU9ufr9McZ8a+Lqrw38XMhexljy2MPDAIkOqWYFNRDAqxCllBINjY+mOv9HS/bU5ZSTOb5rf2HXZpf+IPIqXwh8Y8+yeioWyzLad4GFG1R8yYVeNG0GXStyL23Atxhyo+I/hv4cZt4S8TfDaGryfxLlCpJWVNdoqFlqN7skZXSFUnYNc73Pa3uoNpbo+551547KbxLnFV48/zGrqXiFdmrNK0sllXqsdRYk2sCb/S+OpfB2rofAXhGDw9VZzR1uaOz1V6ItIsSPpvEzgW2I52vqsLgY4vmxnPSekld/wAlXv8A8HQ8VKEt18HVIvIJo5AgbnVIL2PcWtc+nbfGXHzU5108gKk3ttc+luee2PGzSaSZ6FO8gpZ1Mj6gUUkljIO3J/s4xDmcfTMaVbwRM2giNdAb+Jt798RpLNDpjiVPSaR1q6pWK3u73BNuBp9jhgBKqrWVjJFKLhpDcGxA4N7++M0sXJdjWTFLBRRymlt+0F9KltTP2PPr/HAq/wASVtP0/wBtWGJf3UjEh1bWvcj8/fFj9Stk/Qay3xbXU4SUFlhW7A2JVb8WAHqT3OCy19Pm93dyr8+W1wbnuOMLFLKiHd0UmZUstOzRpLHIrkkI7AXF97WxGnrJ4WtpaMW06w1lHobDDue6S7BxwCq8zd5QdC2sLNGzAqPUEf0wGOfqAXknY6wWVCBcDsCdhhpJOO6ypq5B6iaNkUwK1MjR6RqFwxvuCeL/AExXuJFSXVM0IZQQEB9eR3wyb2qxkshFqYTIiyVDBTexjUIwP3/vnDTsso1qxkRTfVpsB6XwsUqaGunbAzzrPTNFEGUqQSwuV+t8KUdbEDKFlR6pSBoZwDfjfuL7/wBcTtx9hG02Hpo0/wBWJnKPqJJuwPrsff0x63UiihWZCBbUNI3ub8X2++BtfZY3asE9A3ScU9QsOp7KTH5f/wBedj78YLT0apOZZJBLIoutl0gC99N8RS90V/I4iSyeaOnDLbTpKrqub2Fz298MiOeKn6fRNRe2ouwCj6bYfdGs9h6AA1NHbyxQMwusgOs7cELtb6H+eB61NQks86SOGBsVBIJ7KeR274RNRqwcnokGXSsYoj02H7o3vzb1vc4s6NY1ctC2mTQTdmJ1b9rn3t2xG6qiJUZi6oO0slOhW7FGI1b77ne3bbDP+XzpNpbpxwKbkxAEH13OGc03bGpdkFZUlLRhmQ7F3RAtz6WH998Fpus3UKMTq7iUglRyLe2Ei3NtvgDxwdB8H+F65WarjEoiqE/aqiqWZL/hUsQEN7742XxN42zfIcthy/KMtnIJYPUVFSraRtzdSQRvwbDHfjqz0NFRfBztTbOdM5tn3jWPPq5nnoq6IU7MjTVBAHB3P1IvcH1xqr5/FPHJUUkUZOsKTCyvbe3ci1/XHP1Fvl6Wa4JpGDmRFPap10zo5BWYrdvpbYj3viYnjkKgCSUqtlIjtsdxcjb784yfbk8y4NXKN1TJaWnQMyKtlswUWVrj94d+B+eCtHDVQNFFRmqOxfSvl0/wHGEVqVt2zByV3yy1sfSlp+k2m8ZVLhQP3bjt/PHhURsjRR0h1bKXmAjV73te27Yfc9zbYXk1+vyYNLKZNcMrHT04WdbWv3HIsN74NRyxvTAswYWv1FUiWx2BAtvxucFzaSYGkgZho0WanaVZZC5kEU0Kgk379zx74WzN6n5WOJZIstQhQz0yNckD0Iv6b3/PFjk3m+QV2apVVUqUs0dXUCscMoAkDDVY+qgW7YXlzud4ZEnRYgyhUsfN9QRsePrh4U8JcEorsoFYKOZy3UkAbUGbzBfUXHJwd45HF7upFmKNJY+3AG/th9Rq8DLgsqeqlDLHNAVaRTpdBfT9b/fDU0zGmcNJ1Cborv5e3bT39hjNbUskeAMdQgjVmlL6Xu0UjLe4Hvvtcc+uLumqhPStGUkjBAJNM1irc2Dev9d8LJe4YrJYU4geOW8axSgBTqYsyjg+W+36c4Wlz2lS0a1KmTt1oTZew2W39jFP27ykWfk66BGd6xgKeUyqJDcLGY7EW41c35vgtTU1GVQyGQEHSwYhhfYcb/3vhrbTS4LoRvUjH5X9zhPjnNlqKmRSTc+a7G3ONHp/DsOdzu1ShKLuUBIB9vztjv6L+3DdHk+l6+mtWeyXByzxJN/mOZVLw/sqc1IiXSLLZBYD9L++M0Fc8UaxE+RQ2qxPPAH33vj10VUEmfDvIaevNr3f9zLVzaJJGJUc7getv64QStdZYwjNvyQOD/P2wUZ/kPHm9QDpZtRj2L8nnnDsVVG+nUCgJtc8Af0w9dEH4KhFiuzAE8i/8MHMyhNPlLE21Lwe18N0KkKvMsS6lUFtxsbcYV/zmooGXplQoOm7Gxtyd/4YqqrsJ+n3wY+AviGD4E5N8QfCXjGLM8xqMuXMIcqzKFEpZ41XVJDrUGRWADKGvyN9scxrvGmV/EWli8SZPE1NTZshaWhmtennG0i3HobNf0YY8t9b8CGh+8h70/4na8LyZakdkgYjNO9OjyRIs1oVYkgtISLDTY7E7ffHVPiz/hDjGW02a0KUs+dzZYlNNRZkWRZ5EN1nSQbxtqJXe40gHnHhfL+rS+iSh5W1uC/KvZ4X8b4Ojq6K119q6fR8b5x/hN+NuZZzXy1WUnMJq9gKipGYQOJQGBVmLNzcC2Nx8I/4Dvifm8yRVyZPlccvlLVFcr2ubC4QNxjrz/8AqB9EUa09Ryk+Eovl/LpI5/8A0rXTzSX6lH/iE/w7r8GauOgqfEEGePS1a5fUDLkskVRJFq0anO5VSCxsLYY8ERUE1RmE+R5ZV0S9KPK5WzL9p1HY3JXTpHobnj0OPW6nkT1fHcpYp1V3/UyxgoasYrN59jsVNUiXRErhyiC6DYLb172xipMcSyCJF2IOuJzdifQc3559cePcpSuVHfS6ZXzLSgXUPrQHZ2LAXN7jfn+GFhE1LGvUmBnkTVGXQRgc83J7emGUk3ufQG7eDYsuySWolgMaiqldNcZicDV92sLX2vfH1x4P/wALPhIZFRS52kz5y8Ykm6VRdEYi9gCO3r9cbfE8aHluW90kZvI1nopOKsu2/wAN3hhaMxU1TKKckkrIkTjcdjYY1+T/AAo5J1i9PnM8K7lYhTrp+/m3/wCcaZfSYKXpmZf2+TfqiVFb/hSjoYXGX55DGZO09E7lT3K6G7+98U2Y/wCE3NZopbZ7S1AdlvK8RV2352XYj6+uKl9P1IvDT/oW/tkWsplI3+FjxJl1R5azLq5pDph6rlWLAE2N1IA27XxV1/8Aha8TCExukCPJZ9NLVIbC+9idyPtjM/E11bjEsj5Wl2cr+IfhNvh54mbKatunUxxqz9Y6283BLA2P2xq8NSxdmECoq3XXe5tfke329N8ZcqosvUr4LKMQy00rRMkxRdSKDbV63udvXa+AL+1ZUvpcG4TVptfj+zjS03gN26BtGpgMvVLMDsmkWve2+rn/AJGGWoGknQGMqGUEDYi49B7b+uEwkyUgIoJoZpVMUccDjygN5uLHa1h7d98TjgdkeokjhqJYwV1Io1BbbXYgb7DFCm5uhsJiVdl8+W9GaNqZqbpl5TEANAB4up2b3O2LFVo66kDLK0aBvNK4LjUDwT6+2L3J7QLFpiIM8qK0djGWt1EUhwB3/TDpmQy6PmACBcF2u364bdduKIkuCwWpjpWQlUBUgq7XU79yADfA8wK1MZVpWk0gqSNwSd7friiLp+ojyI0dDACrxJHHLzaUabE2JJtth2RkWBnIldIbAmylTc3sLceuDLDcWTugMcSUs3XWqlhV0usavZfq1h9Lb+uHgqCaCoVgzHUbygb+1wBf8sHTitqXZHSwhmlZDOdbIHZfNGha9v4WwJsxgpagRxvKbjUV06he+1rnYYH22n6gN+wZ6jV54HDKx1COwA97Di98WOSZR/nOYU69S845VVtcA7bd++H04NyoknSs7RTTTrlr5dFEqVcQD6jC/SYiwW5B8xN72JAHtij8b5i2XZTBFO8U2ZVD6BAyXQ6Te+gGygf+xN/fHc8iW3Tb5OYlcq7OWVQknEkYpki6tyWKXYDfYEm3JGK+nySKJImhcSOrFizgG7X35/6xwouUG3Z0kmsEnd16cMv+mqkKzaTvvt9cF8P0tTNIIZQI31AhIJNQtf6fTtbnA5bbxZYk0rOlhEqYNaKqq2kq1hpHYDtt/e+IvRCnpUSSJXANtIDHX/8A033+uKXcXRjqkU0opVqKl4Y/kljLKwEVlluL8Dcd9zhNKhKvMbU7mQCMteFNQG1rG5ABt/HFqbgvURmvVlFLRRf+LUw0M5OhpJkA1AG5Aubd9/qd8VVXUVtJIrJpklmAdpEtodbe5PocWWpZ+A1eSumq5Xl1xpGJVTSpLi4PoCb8XHpfGarMamOhgZpoq1jt5brM23CgbH9MXppOmLWBGtKyU5ACwSMoCLUMxBJHex4/XCVVl4rCjm01kLK0Y8u1gDzcD+uApqL9IVlFW1AlM8gZjFIbhQu+4tvf149cS/zBm6qTtEpiNkdZDqsAD3GGvdLJHdB8vrqyWRJKQMspNmWZCzEWtwbC2G6eqaWdYswEMRUllAUmQ2HPoP64XPYErLOmo45o5ZP2S1CkOVCkvIu/m43IsLg4hJXJSRnZ0k16jIxCqPTYkb4o1It37D3QfK6sVADwzRurg63aPQ1r8EnnvucXMdfGmmKKON0Yc6WIHG9z/wBHEy8hTBPrnkaQzIgFrOfNqBHBt35OKnxFURxZTVy9V+oqFVQHyHtuMGNVSNviR3eTpr5X9z57z6sWWvZNQ1H0/vtixy+kkp/DWc151dOipJKmV72t/tXbe5Yrb3x2qxFe59D19ZaUNTVf+1M+fXlcZdHMx1SCTzMd77G/6kYUoagzjVayNuwO1/7GPYHwt28sPUz/APjl0IYu1iCbE79wfoMKoFaoV1sluADa4tx9cRIUY1bghbAMDYbWFrG2ITVOhm6ex33UW425+nriW07JygsGZXXSzX3/AF5GG3zlrHXJqdiQfv7D64ZXQOA1PUxyB78fuudx7D+OFcykSrgdFIWogbzahfy25t3HH0xX2FZZ+rP/ANNHxJ4wp/gW0niOopj4ZSZ6fw9Q1NOFZ7B3nbWouUu2kXuDuBxjinwn8Nz+HvC/jyLO6F8urkz+I0lEBpADLIXEer8UegoQ3BAXfGL6+oz8WTlzS/mmjX4FrVq/f+w14xjWGiFVqlhakmiq4nRgxjkjYMpsdrfyJx06u/8AqAeFvEpp38U5Rmfh6qVFjDUkHzUD2H4l0kOAebFdrjfHyT6p9M8v6v8AS56HjVu3J03VpZpPhZznB2pasdHVjqTJ0n+Mf4PTyAp4wRnYhRCKCpMhPYBenjnfxV/+oNlFLl65P8OYaps5rVMa57mkHRiplvpLxxEl3bmxYAAjg48B9H/0F9V1vLivOh9vTWW7TbXskm3ng06v1LSjD9222fMXifPKzOMtpMrrqybNY5XXMZJTLdjP5lMhNiSxvweScdZ+FHhOu8G5TTyV9SlZVzkyrBLGzRQagLeba7779hcgcnH33Xn+z+N9qK/L+lHH0YOepubujd5ZklgiUvoTSNRiIBJPAvsTxgbSy1MX+vGiruAqWufT2xwne3B1sVfZXRTSKGfrNGy3PmWxIP8AP+GHqMmsC6qrppf9o7sEG3139rj1tiUkqaJHDyfQ/wDhj+HcVbnD+I8yy2QUlMVaEVCEq822llB9NiTxe2PquKrnlqXcKAxbe1iHHr/3joeNcIVE53kO5Z6MmnlZAGCRx86Bzb7bYLDquRYC+1j6Y0rdGWTG2msDBRANnYd9r/lgbzWuwNl2B33xua2/iU84E6phKrKFEtjfSe3qb8jY40r4hfEKHwV4ZrM0q3pzIP2CKjX1Sdk+3J77HvirV1paOm5MaMN0kj4N8bZ83izNaqqnqZZ5KjV1JwNBYknc7m3/AFikyqipZKQxxzzBtIUTamYkDjU7XuceWipN2d54xEfATL6g0cki1CunkGk32I5PPfF1S5XExdp4eixXUsaDyt99/pxjZe0meWJhJ6GsCzP0hpuQQSDYcGw5vbBMukhWgWrWZTKwAKNqCpv6Ebd8Zk3biuB1gzLPEYSArF1LSMNBUPc2AuOf0wKNzSh3Bn0nys0ex3t2784R4awRsjBDIxWllnSnpdZkfSi3ce45JPriOYNHRh5LqgYXNtyB/DjFrqLr3DSaF1ds2RUp1apa9mIk81tuB3t3GGp6V42EaiQh1JuLEH29rb++Gikp02RIRPXqJQS8gWO+4RRcerEEg/2MPU06xKWlJqCEsZYfKt7bGw5+gGDJwYiXQvR6pK8JUQSSwHdiXB29h3P129sWFJDPTO7Q9KKJ/JaWZtS3G9lG36d8BU8rLD2C6bQFhIrMbEfiuLjDEM4K9SomkKRqVMcb/hudzax325GBv3PkDSTCqSzCVSWhe5Ebm9t/X7YAq1vVmp5BCDIp6TTftEQewvzv64aUl3wFLkdocqmQXnnWFmCqWhBchhfzBSdvtzjYaGKqh0rB0mnkj06am2uSzblXQ+XvtbfF3jPlsq1Hjk3Kp8RTrlkECUglLkRu4eRbKPUgm4523vbfGs51mk+YzMod5DqKqV/e7C99/wAuOMN5GomVacVdsop42p4poKrS5IuAvHsef4nGaGphp0+XjEaAAFdLEhvr9vTbbGNSuzanjAWikbqyKj2BABBK2N+wv9OffGw0mX02W0jTyS0cfU/E6gAj6gd+cJtcqBuXRYUC002UkiL5dxJb5ZDqF77c8e/1574zX1skGYwLAxUCM2pnkViWNrm4Pbt9cV85Zl97KjMqOPM6qKOZ2klKjqRGRukLdrHk2PPrhCLLzFTSiD9jGDdxJLfYAja/rixtyVDqgT0EiRrHNHAYU30v5ttwT7/8Yp67IqaopnVZTKALLFEp2FthYW2/TDRk0sir4KaXJI50MZUxKt5DEUVAFIHmsO31xX1WVxdYyMzhwx6c2u2prG4G/pi+MsUgVV2CVGSczyl38mgH2977Hm+MVFS6lY/Koa5YgEGMAdydsF1LDF4Fauf5osEqxOx86iMWW47MeMD/AMteSrmqS8pnkQWWFlEYtud2H2w6bTpIIFYZZKgWu9Qy6i0slzqIO5C2FgO2JSQywiJXm1AnYDyGwtte/O/2xPTbIlkejzCSGMJFqp9ZMZkdjZjbZbjnYHA4nd5GkbVJFe8cThXj1Wtqtpv2HfCf+rlA7G46ppKdDUwxUwCENDTm8YsLABfSx79/pfAzmTQwxpSyKYjuVjBBYbW3vfAmorES1Is4sw+Z0yMsYiVtHUvsp77+uNY8cZxHHkkixs37Rzq1C1xzsQNx7+2DCLcsI7P0lLU8zTT6d/yRw+KnfMs3PTudTfug9zbb743T4z1lP8OvhE2RdcNmmcoEkjhdSwAKu4Yci1gPv9cduEd+vpwXZ1frmr9jxHH/ALmfLeZVGmijTax0k+1+d8VVPM5YhW1hRttbaxx6pPNny0Zaodqe8rLYG9gd+Nh6YzDKWIJSw1WBO5/LEyhWiXzMjS6dZtub29+DfEmYaRJqJueTtsduMEPQEyPPK/SOs+l+bemGPmA0YBurKdmJsG42PofyxHZKCpXilh840lgSCPwuL2I9iDjaMo+GXjbxDkcObZdkNXPSOuuCpj0jrL3G7XJ5tt2xn1dfT0EparpMshpy1HUFbO3+Gf8AEt8SfB0/g/KZYpMtPh6nemyrJpqApGzSIFDlR/rN6AnlieTjdxLm+TeK/wDIMx8aU+W+IM5P+ZzZrmFD1oZKtlAnh1hrARkaLgdtvLbCeT9vztKMJvDeK7BBT8ZuXaN78S/C/wCIP/xyajrczyPN0nQnqUNLLrKW/d3Cm/Y9r98fIE1D4izPPZcppssmnrpnkRl0GWULGCSDYbLZSdttvY4z+P8AToaEnHT7LdTyHNKUmO+J/hLn/wAKDlk/iXLJMh/zGMT0xDK2pbBiLfRlNve+KyfL18QeK6FckVabqoIWqGiZmD33NhckAH+mLlGW9tdY/iROMaT7O+ZZ8C83ySny6vzDw1XS0dDKnTqaeld+vYktI0ViyrstlI2xtdXXxsi07PUZfJqVY5KmCSBb+zOoBtfi+PPeXDXlL1RwjqaOppxy2HWOnparTKy1TFdWp2IJ7A83/lgsksyLIrRRQRs3UjdZTdiOGsN9t9jztjktKMbRubTYqgkglh1WeEgEyQKDrB59ue18Epq8UcMlP1davfTJPLdwb7W2ttvhaau3yJyz6E+Dfx8m8I00NBVxpVUIGmSEL54j3k1fS2wx9U+G/FOVeK8tFZlM8VVSv5SQB5W9D746viy3x2tZOd5Om4Pd0y2mqXcKjMUN9tPtzjzs2xAuQLi22NMlbwY1SA/MmpdbExuvIcWJA/vnHqicU8LPKwjjB3ldgqD7nFitK5cAa6RoHiL43eEfDUMspzUZgyPpK0VmVTbjUbA/YnHzP8X/AIrz/E10o6UPluXWPSRWtJa+7MQBueDYcet8cbzPIjrL7cOF2dDxtJp75YOZSRmngqA0iFFjOoo4sfUfkd7emKvqT/LItNSzyKwDfstAHay7m17W3OMKlcrbo3U7Lmig6lNC7Qza5HZVDrdVX94Ejne9vphupr3kl6NJ+yCb9QK1rn/ab+w5P0GIpcv3LHgURqgUwSoqoCbMAxXS1xvcbk349sLZhSyuIjFMKcq1idF1O++rvhbSSsWKbyw2ZIqzC6SSlBdQtwv9L+3a+KgoFY2l6cpOkk3JIP1NjY22GGeRwtNC1fTqYnErKReZrIA3HsL9rDA2SeNRBPXMqlxYySCz+x4t24wuo3tpLglhI2naqeVpRUU+kqoRBqJBG5tyLX274bmzKalh1J0YkYXMh2v6b8j6/XEfqqTQHaIQVMWazqrvHIyA3WN1YKe49TbD1PR08yNAmjqhidas6o/1UcEXttgSkkiPJKannSZkeKOnC2JPVIW/axH5YY6kkcY1mJC1tPTQG5483ci1++GjJqFkawCqcxSaV10ydQknWECC2/8AtPoMLnNmRo5BSLNC4YBlbzKSBuARsLX59sO4KPqYqsZmVZTHwSQFO/BO9sMUyR2EaBIxv5lF0I722xQ1vx0NbLHLD+0LPqKk+U3DGw77Hb77Y2bLqCOlbUsoeE6WsG1Saz2Bvcjt9MdDS9Ktoo1MOkNTzvGmpUkhEwDBg1gbHgH0ttcb2741quZZanSs3WKpqKSN3J5Denr/AM4GqlKwaap2VFXG1Ro+YhRwARp2WwsePvieoIo6KlZNgAoufQbgcc4yJKtrLSdJSyVNWImpyj3JDruth6/bG75dRSNBThZCJQulOdKgDk+uBcdtJliRrclZWCtEQzaSrYzC6NEqKBYCw9vck4PPG8kklRpGmK4VWQLt2s199hbjB1ItNGRLJKepPTjmjutxqsreU7Hg98AMtM+Xgz1glae40Dy3vfgj+OJKNKx0gTVtJFB8iJGSnhGgljq07HYEXvthTQIaEoh68NzKi3Uhk7nQAD3/AJYSO7gNFPPNTm0HSYKBodSgBK39ALfbfFfVGlmkSNojDLvqVSQbdgL32xE8bXyCnlMFPBG/l1TWG+4ABA581tv+8Jz6KMCZrqse94lL6h9j9r4se9LCyRv2PQys8aOIgpL3ZmULYW5uf73wtUwpUIsLqzwgbFHuFHKjV9Te2Gi3WBOcGIpWgFhKZUi2CCIszjtbffc8XxYTvSVTaXeKRNI8skd7bjna17/3thpKUl+ovGUG6IqQSsARDcCRSAo9+3a/88VWbUNeJ1NPVWj1g3Rd+NrAH174DqMVFMs5eRN2ZIyDDISCTfSNiDcE2tfE5J6mQKlOV6IOt16lzzsRY74ZUiJfIoWOX0xp5KZKiwMheNbE3Pc+p9sar8QM3V44qfSI2dLlf9q/f2tiyClKars9R9B00/IlP2X98Evh14fD1i1BiVuh+20udKsRxci9t98WPxM+GVH8U4stSozlMrrY3Cx1JW8QDMGYMOWHJ23Fsa4Tlp+RHUjyuv7k/wBR7Z6kdH2j/fJ8q/FPwZmvgHxRmWRZpAyVNLKQhUWSaPUQkkZ4ZGFiGGxvjS6RlEhASw7/AF39ce3ktuD5rwN1EbRQQJq86hfxdrm98CJEkgQsV35J3H/GJySxsJu7A2F9h6gHEFYMbXG4bzcccYIKBRSIWWxZXIsR6fptbFtBKojXquD/ALBpIkPoDtviEQ3W5DUZiKmVaZr0yFpNG/TVeWa3AF9zj6++EFRHlXwo8MCWIppo1Dahb94k/nzjgfWIr7UU/c3+H+bNwqqyGWL8VHJ0yrCOQq9ibkEdwdufbHI/iJnLZ/WKsuiSmoyREkYIUNsGYDtf+WMv0fQb1HKaxHj+IPqOps09vbN9+AHxG8RZHFmUdYstb4QpOlFUzySAtQNMxWJl/wDQsLHsLjHUvHvwiyvMM3ps8y+sm8O59Kh01tDIqtISvm223KnexG3OPVOUZSex+qPP91/Q5cE9i3cM1DxD8DPEnxbegpPFXjzM/EVJlepqcVgWQwBgAdOtmIuAB9sbHTeH/h1/hty8V1Y8SV5T9k0n7aslH/ouwXfuAB74k5Sk3J9hW2NV0c48Xf41vFGaQtTeDskiyGKxArK09WfncgcD8sfNXjjxb8UPGNWz5r4uzPMUdi7QtO6orbWOi5G3vgL1xbFUo9nUP8PHirN86/zHw/4gPWrKWJailqZrNK0V7FNVtwG4vxc46/JTyMVXU583mDxhQdidVwfU+m+PFfUfHWnqy2cM9J4k98Fb4F3VKFLifXTr5R0/KnPoPyvyMRQtVydKQx9Hy2Om5ZSPw87b98cjNO+ja0rLvKGaknhDvE4WTUQJQp0+gBNid+PbG+/C3xZmvgPN1kyuToliRPFI90mhudjfcn0P1thoaz05qSJKC1IuLPsbwd8R/D3iuiZ/8xjp6iFA88M8ioEBGzXNtv19cKeJPjZ4M8MxyA1r17jgUdnU+2q9seil5fj6cFqN5Zw1oajlsSOP+L/8VlQKgxZVlkVM7JZajT1ZCL8BjZR27Y5rnPxKzzxTGJq12kR1N+tLcgX5A3H5Y87q+Tq+Q7apex1NHx4wjb5NMqMzbMRJGzSxwKAdUi2FuT+eKh430/MwTJI6rqVFOoaAd/yH8cUwg3GjVS5Gf8mpppizftEmS5LqNhYGwH54FVpluQxzSCRgHjtpFwx9LActvgzxPCFashUImYOj0s2uI2LXZlYn23Fx9sPM7yGPZo4go1IF2c/xGDGMoJ2R84KudBM8jCe+o6EXpgqtjsRfuPX64ZVZlnIlnszNqAUAkn19rn09cFJJfIywCqKioM0kcgvTkEKyjc33tj1LPHVROwkYqHI6oUo2n/bzivSk2nFBuzFTRRSSsEVxKVuFaUlAfXfYH6YUSKVoDqjpuow8rIRcaeNR2/LFqzl8iKlyMmriipryszA2DhGW2q9z7+vf0wpFOUqmvIEhTYiU9vZhxtgRadxfAG7LOMKzM1OKRLDSpJAN77n3OHWFVF03qD8xZQLqbCw/v1wrUXHIyXZXu02mQxTTSG1ghYkgE7kfb3w1DEURo3YbKAv+/nff7WwdO9rTBVci1PDFTGVoZw9jaSNrkgX4t2xYqRNASF0mwJAUlAOSL97D3xYnvX6EbTMSwBoQxRRdfJff8wfz9sZp/lYIAeqhYmxMbk6CN/r7cYrVJt9EulRd0OXJU6DErTQMCb888X45/u+Lqgo3SGRWjLJESQzNZxv2B4HqLcDbG6C3J2USyUNS0kaiIs0s7yMwZpWe49SWuAPp2wpVTFVaw6UoUsnTfUjjm1ufqe+KNSbk6ZZFUV9MqSSXeKJGlQA3JP1uD/HBqem6V4InC6uXSRjcX2tcWxmkpJ1Q6aeWXnhairKWmdugs8TNqUCQsy29z+tjjZ56swpE7ssUAC+RtRcHn0thJVL1IPHZqUU1LT1aUcc2id/2hWZdKJ6hWFiw4xGorY62WopyuiIFEDRTWZt782sQN+5w+2SSlIz3kwmcpHSyCMAxq2nzIzlPvaw4HGFPkqmpgiLNEtOpMhm1G6qLngX/AOsHdl2NhGKtoxHTMkwLC+loY2UvvsbH+9sVNTPM+axTJT9OqU2Zo7lAARsCdwePbAk0+CNpIlVtKkQJrlZkcgaUF1X1I7D2wvLVSU5t1XlcGxZbLufTa4+mC3mKiHlEIhDX0ssipORsrKbFTfa2/OINRwJAIxIKgg8tGArD0AGw9MPHUl6kDlUySwTxw3mp4nYtYxuQTa219t/pgfSrGqF6pjclwQi06pGO+5429MKpO6AydPRCkaURzkox2IXdLg3s1vX7bYy1PAkbea+v9+PzhxtbtyN/4YOpqJ8EAU9CEeAJHDHp1X1R732sebY9UZV1FHUleAb/AISVY/Ta35YnQLRruYUUsDxroJQX/apLuLDYk2uSdtsV0rzxrG5EkZQG8eoBSdxuBc/f2xtg4uG4jVMXzTxjQZI9HDXR66qpLGPTH5VRQSWJvtc7b7n740qWZs/zg1E9wXY/iH4Bf+mLY6epBKXT4Pb/AOndq0dSd5tL+CVjUXxRp/CPiTLYqeqf/LjHUUddJHEJRIkigeUcnTpuSN9tsbhlHxJ8P5y1oc2hy50AtLWAwKCTYFTYm3H5436vg6uppRnBZ/qeT+r/AFDS1/qGpOH44X8lX9yt+PNImfeG8taCDLsyoIqZUV5IhNGJF2dkJAaM33IBF+bb4+YFyGimrKqAxpGyU8jxlAVKuouL7nbY7d7+2Oz4+vNxWnPlHntWEcSj2arnDq1Q5FyokIFz2GwvgQYipUXHBJFie2wP12x0kYmNK7JrOk6ie1gOfTEJLoFKSFCvmH9MQHI7/l8OcgvE6QVVzrDCyk+vt9sWdFlsNHLqkXqVQ2CrJdR78fXATC2bJ4I8Q12SLX1lHIWFZSVtBOHFg8M0ZjcEX7A39L2x9P8AgOneDwTlASN1/wDFjcswtva+xHbfHF+rST04J9M3+CvXJmfGVfT5PSrUPAonqJRHDIQttViSSebhb2+uOP1k8tSSxNxf8PNtz+eNH0iD+y5PtmL6k71lBdI+svgd8HPE3hr4GfEytzKgiWi8UeFxW5SY5hJqKrIyawN0a5U2O9vpjVa//EBWfCXwouXZtl61eeUswy2vyypZQ6tGGKyKWUkAjYMOb4r8TzNDV8zyNkryl/8A5ilL+T5LZaM4ePptr3/q7ReZf/iAbPPDmXSZd4f+X8Q5tdaai6iuEsf9RgvmdVXe5AHA9caD/igy6m8EeGfBGV1Omu8W51A3iHPM1qFJla/kghjB3WJR1DpHJ54xf5Gtfl6WjB9tv9Kf/JSov7M9Vr4/qcGoKjqkefXpAYb/AJ3+2HY5EWOP8Njc2YXJH9+uO5CNo5DT6L3wdniZBnAlWNRE4sR673F7drgGx5tjptT4mzmf4ipkVRTSzZW1AjrWU63gWXRqYDkg3JF9RBBHpjhfUNNbJN+z/odLwZS+5tNgSgljcmlFRUtpJ6UhPTBNub3/AIbdsYjpTXPNTT0ksF/3uxFrabjfe/fHiFfZ66mPU+VpTXMcQi8tiyKGva25t32GDwSldNPFEZAy2Emljx2H6i33xS5RbdjJMckepgpFYQxwmUlykkhkJP8A+ov7flgLzz1b6qiqVIU/c0h9V+Tue/vhFbV9IWlyNUKvUzBEjMrEala2/pcdvfYYzXwxRTx65JVZrjpCIs1rd+bYLyr9x7vCMRySJGIgwd9k3Yiw9we/32xCCBUmqHaQFhcaUay341E99v1xHmmhU1wKPItMscKa3m8xRJG1C1/W2DQ1DSXViWhQBenqUhWHqDfscNV1Y15M/KxswkE0EjBQpBi02PexF/TGArkFJYmB03BhNwxHPO474sy07BH4B1Py88qxtHIZR5o0VrXJ9fz5xlKRqgkTzdMHgMoX2G/r7DCNX+IzbYX5JJHcSVHkS6q5bzAjsR6fbC9TGRGSZxKl92lK8+hHqfTCJSWE+QVSBw16vE0ph8sS7Mzqq/Y2334XC9oswQTz09IjLt5WL6Tfkmw47DnfBlK2o9g/UzJRwCjFP8sPl5+QFBXTzck+uPQxwwyBIw9QOWZRte5tsNvywN0lwTnJKCnSql1U8R+ZcKCqKVsw7he30xNnzKnjjSoaGMWFmqI7KT/tCKb+hxaqaysMVDdDUSyJFFo643Kl5SFB9MTfSqmRW0sy+aDSdG/a/viK4JtcDN+56lJOmMqULHUQVA1fc8dv54r6enzHL2cNUSzwFyTc6mUk2sLdsNHMSlrI4gbqCOpSNnIDhjKSVv6iwF9ziWVpRw1+mXppEpBtHEHeMcAntvh4ablLPA97uDb8sikkEolqGSnBClgw3F7gaO5tb159serp6iogqxBVRwWdnadiWYLp2DXO1yTsO1r42PCSRmb9yhzaqnhaSGdZisagrChALnSAO21x/wA4TFW8scaKz2jXcMuo2v8A7vuPfHP1JO8GiNUApqoRTzaahhP+NLoCF7WAO3/WC/OFDpqa51jvZWewXT/Lt+WGacmsjqsmyZTVQvSpLDWfNwc6hLffvsDa9zizoc8p0UaqdhCigM7AlbHaxFv1xS4etpID4sq2qoIqmBUad5XBYSMwUv329hzt+uK9srWqpes8ckIDadLNdlN/ci1rA8YPdMpaxR5MtaKOaJnd6cpa9NKCR7bf3vgFFSvC4WFK1YyoIVl02tyCVNrfXC2l6ewvizLDQWM7NMwux1t23vc/3bFTUpGPNQ/NSRswYK02kgW3G4va9u+GVRabJVqwhM9OZjLE8byf6irZi5NwdX0HpgSwgzF4tKSuRrZluNNubYZONt0Hh0LyKoYmCTqQtv0rKRvYE7DCxoQoeb/zIyR09MRDxP8AQb2Pe44tiJ1cgWQoqdU0w0sbuyMWILGQobb7s3pizE/y8iRvVlISDcTKLs1hx7DvhYVW0KTYSpp/niUZDSUbuQJYJunIfT3t98Nw01PFRl2kVolJCksS1vffffCxTT2kaoQXLaSStjmLLLDEupI21b35ANtvti5r3geJBF1mfcEOmnQd7ab3Jw8oyUFbCucms51ly1lO5lD1CkajO0YNm772+o2xq9SBGwlJ1avKpRQWKjg2t2t3xbpxtULLFNl9nnwr+G3jjJvC0Ge+NK/wZ4rq4nb5Sqp1emq42lZY3VjZVGxG7DcY5j8Yv8L3xD+GFF85SxHxP4eCk/PZYWLKm588YuwFuSNQx7TSivtQTXCOZp+ZqablDTltb5ObQweH858PSV9Z4xp8uqaRTEMmOXytVPKVOlY9J0lOAWJXT6G+F8nXNq6l6dFldbmEKGxNHSSTAE22uF7kY3pxijn7W8s7VlXh7P8A/wC0mcR5z4fzPJqWKVaillzSJYHkLCzqkZOuwspuRbHztQ0Qn8RrC6ACTVFsO7AqDf6kcY5saWrOS4/8G/nTic2zSCXLq6oppAVmhkKup9QSGv8AlgVMBI8kpbsFUen/AFjqxdrBgap0HhdFLN+EWKm24H54lUaijgtpGx449sMuBOw1BGX0tGgurbliAt/W5/li5jkSmpGChUYXGpSTqNv1+nscBhOifBL4eyfE/wAS0vhqmqYqLM6ikqZKRZIyRUVCxs8cHsZNJUE7AkY+w/Efw8zP4XZgPC+c0ccdXR08Ky9KTqQkFQVIOx3AJHpY3xwvrUJLS09RcWzoeBJOc494Pnn49eJFy7xLklJCWkfTqSOS5QPK2kMfYKrED3GNFqqqtDq9IwlkAuyyDc/T+mOj9M3fskX7/wDJzfN9XkOzt3+HrM/in8dfF2T/AAwTx9X+HsiMEj9GAGeOlghUygaNS38yrZb2vbsLY9/jT+CHiH4VZzlWb+IfHEvjXMc5kfq1VVQNBODFGoBLa21DSVG1rY5/k+X4ng+bo+IofvNbc00lXy21nNfxNOhoT1dGeopYh7v+RsHg/wCD/wAQv8OnwppvjJlef+Gqulhgjm/yyenkM5+aZYwCWQKWBO1msADbvj55+Jvxtzj4u+MWz3xCkpqmp46SOnp4kjhiiS5AU3PJZiSTuWOLPC/Y/N1n9Q0MtXG89POP17E8mOrpx+w3jn/GUNNmcrKFFMsGrexJLfX09MWFPmxdkLyRqNNvXV7f36Y9CpUmjltbQ1FXu1fVUqtqlReul/wsvpbnmx++O1/BXO5c3oJ6J5CcxhIaJpLMTEtvKR7C4xg8yK1NGX6Gnx/TqJnR6zNKtIozFKTIrAqojVb+ot3OAGpr0cTJMhR0VjHLbygX3B/2n3vxj5y9km1Lo9ltfbGYZqtnUpM4hlAYGnJIsQD6enba2GJPmo2qrvU6Y7bKNQYWuRzc78nbbFCyvaggqcT1EcjokcBVhoWSMsv0UX4waoyh5W1CKCKRAZG1TaefQAj8sOsbUgrHpJSVOmYtMWaMcMgFj91Nvz9MG/zOldjI0koUoBqhU3ufpuf+8N8kbaXBXZhRwVKDUJZV12kMS6WNr2GosDz9MTyzLhSxyLpXQwu0ZbcexI5OGbUctCV2PJCuaKqmGKK1wshYCx4tq2/I4zTZJKiOurpnTpMliVHe4xQ5W6iWNKhd8qVaqNS+pnA8txv7gHm9r7D64zNFNHGBLNaOwBcb7elubnFm+0qAq5GIgJY2QussSW/A12Ukceo7YWqo4qiRSUtAVuWKnc3sduO1ve2K3Ej+Ak1okVoaeCSS3ndk0+X0JsTcYSGUUktYkvyqqx3ZvViNt77nfDRdJoHeQk3UeYKJoLQkLodVBvbixt/3gdXRnJqZZv2vRVlLJE2s+bmwvv2J3xZF0luBXsMmZS0JdIkGzF7b2tY7m9ucejIhCvOyqAwKCLzqwB7G1vvbC202iXeCvkqRTVJno2j+ZlUkKwKrYNuNR45/jgk7VOot10he56kh1Org24P6X9sWOm0mDN2eqaVXJvKxtcgRsNTg83J++9sN0SGJSIUaMBR/qOHP0Fv6DFnMWiO6wYq6mOeeEBpKd1a5VDpLc3vf3OMNDI0rOwaZSdRCWLWJtzcW74SKTVx6F+Q9Hlbx6fmFlkiZ/NFqOv6Xvttfn0xYHKTSuqRx64iQCrMxkFxvvfbjbY++OjDQm2mlgzy1Ix5LaHxNTulRS0fWnjhVmKSLbR5rAFiebnfYW32xTyVX+Z6pViEcmvdVJIcXsSCwseLEe+HlpSdxisiqardJilZOMrXpPUJCi2kTUwjJ7XK9jvinrfEeUN1Uqq1jPGhc9CN2so/9rCx37YaP07U1KFl5cI4jkTfPsrepSkjhrJVaMuDKhjV/YFyCTzt7YbpWaqcRf/Hn6bsEjeqYHUSCRaxtvjdp+Do6P/7JlMtfW1fwVEjHnOUVNCkUlHllHO/SQrGXZZGF1JudIFwb4FWZfmKvEJ/E9SqyTdFjEgjKqwJVr3OwseMVLyvGi1LS09zfbI9HUljUkbw9RVU6K08BkZRp0hgNV7XN7X++2EZM5p6OEqzlSW1BGBJbuBuLn/nHnYRzRtbrKMDN2qepI0FRoVSSemY73uRYEXP0wo/iuNpfljTzSoNgDC4/COWttb698NDQeZjXkWGd2KyRwM0QshKftLsb29BtcXuNsAqBVoWjjhp+m0mppRKTYbdgb+o9MFrLQE9oiMxenqEWZjLIWJRdRYDbi3b+X3xBa+nkErCUF7fi3JJHttb74i03tZE7BnNamChVo4BMdXlDkAk3tvxf6YIK2riaKMpHLAUNm0hCp9Nr7ffDpJRr3An7iiVdVXGoHXToUwIWJL+ZzY2Ja1+RtvxhjL8xr5qoRmbTUaPwMAWI5u1hcDntgUnx0TdQSWvhiCvPpdrFvOFNwL8dx9cTgzY1SMWjRKZR1EQFSBb8P3ub29sJKFJtAt3aJ01bHMS0tR0qe1igiDAjbgEjfa9/vhSqz2eTq0jMsg7W202NwCeTiKUpOpDr5K+SvnneNGR2Cx3HTe7Am5sL8b974q8wymXN79J6qOplL26YZRYDfzfzxdCW22hX8m9VPiLIPEnwvybIfHnwyk8U1uQRfK5VV5dV/KSzRlyxVpriwGok3BB9L42LKfipF4dpaXKvB/gKkoMppImSOLxFm1TmE5YPcNaNwmnTddJJseDYAY9GvqGnDTurfscz9m1HLNfr2cPzv4Yr4xzyuz7Pp5KqslYyEJdFW9zpVFsEQE2AHZcJUXwxynI6lXpkKOqAgiV9Tea43B2UH+Zxz9Xz9V3tZ0I+PDijYo/D9Pl1WtXGDMwGiR2IbqKRYqxN2Nxe3bHDPE/ho+G/iVR0XUHy3zEcsUhFh0tQN/yOH8LUk9RqT6K9eNQdFz/if8FeGqGoyiooadWzPOw1TDWU8wCrGps6SrfchjYG3HfHBM08KZhlMVKZFE4lp1qI2pzqGluCw5GO94anDSrVfbr9Lwc3yHFztFWtTFCAhVbDdydgx+hw7BDTyxK0lShjVd4wDcbkbY6KyZuRqGKiijiYQEjVZdX7xPYDF3lvhrOs5YJR5POY2sOo9oYgLjl3IHNt/rgNiXR2b4E53D8A/iBl3i6ujovFNblcur5CnqCqQhrqz9YAgyDVsACACTfVbG25p/iXnz74i+Jc7z+dMwyzOa95KZ4VZHhUjyQhGa4jRFRbduQbkjGPzND9p0Xp+3A+hN6epvONfFnxDT538RevQE1kMM9OsYdjZtIB5O9rlsWb5fT1jtVU1QY+Qj2I0773vvjZ4mm9PQUHykjN5M/W5o+o/wD6e9BUJ8a85khEZqKbw9UyGoCgENJJEgv9ifucU/8A9TmXOU+JXhN3zCjrojkrBIo0P7J1mfXqHvddxudPsMeP8qcP/uPRjN//AMnX673dfwOr4Sb+nTkv+7+lHOfiV8a/ihRfDGi+FvivKKKlymOKjr40SHRLNCE1QN1QxDIb3uByLGxBGPnqWVOowfLHJK2YiW/0298er0PH0PHgo6EdsW28e95/mzmaktScvXK2hukr6VLB6WthiG3lAbfnfvgmb1XTpVnSkE1BIfLU08uoqfU7bHGxpWVU+WxKHNHy3xDDM7s8atpF2uOmQCN/S5P64+vP8HGXZDmXxIrKPN4Kdmq6FpKN5ORMrAsq/VCx97e2Mvkxf7PqbC/x3t8nTbWGda+K0VLlviZ6eioUoIIVUgo+sT7kF0t+DbykY1TLpomJjipZhEVO+qMWPp9Dj5pONylt7PZzpOkMK0UA+XgDRMTqdJEuTt5vwn7Xw4xSHVMWaBW2H7Qi7D0APpjO1JxyyHpQyzp/5JVb3COPxDfvxY3B9dvfAVp0nqE6ChJkIk67tfTbm/JN+Le+GbaWQLnASrrqqtcM8EMU6/h02Y24sdgBxxiuqWqS5VaaOA3IYBtP2OxBU+oti6KjzJC3aYenSZy8iU606KdGtRye6hibdx9MEkaZ7ro0KLEDi9hsWIF/Xn3xXNKOAgq8N045WqZHZjpCJKodCbXCm3F+/wDC+GKGoqf2cIeYRKLqzyWub9/U4lJqkBtE4aGBGdo4VDsPX8J9f73wCUo9Uz9SSTSLBFjsFN+55J++J+Lq8BeVgTqIZlZrs7OvmJUBTxf7n3wNa6OUOjxS2jsCyygEsf3bDc2HPbjFzSmnTF5eQb5kkelYxLFVOTeQA2A9yOcYniWRXnmnYSkW8pZwR3On8u+E0otPIeSypqqWSkSKrhEgRfxGMEOD7HAEiDSSzKKgQAhUVk0C30Prt6Ys2yl0RySARTTyFCmUuVDadRfYH/1PrbfDkMNboVpanqxNfQkpVbHnc2v+Qw8PH1ZypRKHqwjlsjNHLKkTEQxofKwWbfcE8He30t+uBxUkMMCpJVxrKrLrAY3G2x35tbvjdp/TdZ4aKZeZpRazYYZhlytL1MwjEwIOlRub3N+fUfrhObxDkkQqGlrpFiGm372/cbX324xsh9Lkl6mZ35yulEW8M/E/wtWGtV6VJniqDH1KksgYdiALXGNf8V/FjL8vrsxjyqipgPl0khemRyS3m1hRuNgAdzjqr6fpRgl/UxrytaU2l/Ivvgb8SM2r/jXmWRZjG1NSxZWXihKhAx1oyyaR3ZTb7Y2XxZ8SZPAua51klRTVEpSsmkidVZU6LnqJZxa4sSOe2N8lpaEIezX9bMst0pNdnMo6LNMzzIZ+a85fSVQmghoGEivBrZSr2JA06luAdyGvhetyUeGajLo6zNah6KONKdqtJmhL32Zn0G19entex9ccqX1Gp1px+DoQ8VbU5llmq5Nkc9HPLmIdDMEmVpppdSFSLEEk2DFewwzn+d5bTVFGaaNiIHEpgjpJGaQKG1b2sRYnsRxjmzn5GrKO51n3o2JacX6UO1tfV11NSTUFBJMlLMkjifpxayBY6Qbk21W3A74s6586qKdJYqGhjkpZFmEBqHZvKfwhVXYc8k4x+hpOcv5L/wBy71O0lQp4hynM6+niD5nUUMEbh+nHBpMZBNgXdjcWvwByMYzLw9JUwGRczq6d4GWWHeys672GkAXseD74GjrR0dv24e/zYHC7lJl5USRPSCO1TUM7ag2vS/Ivc3uB7fXEYZh0UR1eRla6yPISLdhbtjNNVTTAmLV6daQuixsl11dWTSw/sDvib5lTaJEhJmQDZ5HJ7H8NjgxTcUHsqXllFNoYRhGYHSLX24t2/MYhMahgskUhiV9tGogk/wC2wB39/rirco5QasW/ymWXNopUprOpKlmU733Nve/pibzypT9JQypZi1lW453Y/n9fti+Lc4ioG1BJVAzRyx9FGBIElw3l5v8AcbYJT5YtKkoSYCOo8zroP4hYH02B/PCxTTabH5C1OUU07orNULHCBLbWwB2G5NthftfjFhFliz9V46RgzKBJLNMys5PZTb72255wqdsDTZB8gkoPNTdKJqgMGcyDbbj1I/u2MimpaaFImLy0+gDWI9Q13vY/7d/v9MCUrTj0NVvBHL1iaBVZZEkOpWR4mHfbUfytictDLC4jMcaTMN2uSNd/9thcYqcd1S7Gj8jcVIz9NWJnZgNjGdJO+21yO1sDqqAAp04zrc3vG3mv324xYkk2wNpilTVihqpgpQzk6enMZCjDuygX7EDaw2w7WVvyUMZeASpL5D0bi99x9fvbDpy2MV84MRVdOKuM1Cyh22VkHUB5uABfi18MPlUUscs0LRSiNhFINWxNt9j9L/UYM4UrTCpZKv8Ay3L4KwszKusCMtJJp0gdrbgDftjlX+JPxBleVZX4ako6SB6iGkk87rqLHqMBdjyN/wArcY6fgrdrRyVTfpkfOlCM68S1iZdUO81dLKKGkjmJIVXe3P8A/wBNf2x3LOvhhUR5hVVEqQmKOKGCAREXCIlhsbbkgn6Y9dJOMUksHnZNJuzXabIIqWuFJLRrFGVtKaum2KkdiwO523HrjnOZ+DKWqeR1y1olkdtAiBVbEkAi3c9vtht1hzFWWPg3wpHlXiCmlnjOh4mTqTR7xsVJBvY9xa+3OB+J8vqKWaVVqnqZFPzEAJY6AreZCT3sbgDfFl2qJ8jE2YD/ACpZY5GFPIULgchSQDb6e2+2Nu8PfBCs8aZbm2YUFZlcNLlSIxmrM0gpZJAw2VUkYFmNyRsBbi+Ek3tsix/E5nmubS+HPEa3j1ohJ0Na7paxt+exxscmb0WawxyOlSDIha00RZCL/wDr7/e4xbGXpM84SfqR0v8Aw4/HHxF8Cs7zmvyHJqXPZKjLjTVIzSbpxrGJFfUlnUk3VRyTvx3xQ/Gfx/nfxm8RJ4i8Q5vBRtPSxy0+X9N3CxOWLpBuQqgjT5jzvjn6ng+NqeXDz3H97FOKfxzx/M16erqQ03op+l5r5Ox/GzMswzL/AAveBs0zxEmz2lzuTL6ermhVZIqL5UyNTkra630sQeCNuTf5eizOkzOe60ssSgC8wUaT9N+B64PgtPRqP4ptL9LF8ndvv4QZ6zK46hQKuKeQcaHvqPv9MPUVMmbVrwCFKiEIxkOgGJDtcW/esLk/XHSaTVIwtOrZzzNs9TM6kBbx0iAdJEXT5e5A+u9sd9/w711XmvjLwxFSsy1ZroVilUEkNqBJ+29/vfFEnthK/Z/2LnB7oJe6/ud4+KfxXyih8Z5pSZnXFczp/wDUpo7qsim2kDbzHa53AHc45fX/AOITLqVklqfDk1VS6kYy0xHUjttcxHnn1Ix47x/pc/I01Nuryj0Wv50dLUcKujpPgrxz4d8fZexymojlDm7q90kh3NwVuOd+P642yGSlRoyrwxx8iTXcEcbkG9vrjj62jq6Mtupiv8wdDS1Y6sd0CE1RIlz1FaInSUZb6b9wex45x6KNZ9iHYkFFa5N/W474zx3Ui5e6FRMphaCZB1yCjELfy876eedjzgzwUy0MCTVP7cARHQGLOqgcj9027nDu+kBtJ5JaStMRCFdl1Wkvcm17A2OJ0UXzKNOqPGzqAbsV3BPdSSBsfzw8YSa4tiSklyzFZArRJCY5nW/KopXnnU2/qDt2xJZUpaZgojZVLFEEqoeQdr9+Da3bGrT8HVnKlEzvX0o3kUqKwVXSYzxwdMi8aMD6XBNvywKnrKdZWUVZnkLX0kX1HtsRfjGrS+larvfgo/bNOLpZMS57Syh7u84VtDHRe+2wHp+XbC8maQRjQIJhCjXZAgUAG5Fz2F73vjTD6ZDTVznRnl5UpfhEBHm9KKhaOmgkepjtKqO1nIJIPta+3OKus8cRZdX09HUZXPHPVo5jDzKpkKkBha/mFjyCLYujoeJB1utgnqeQ8pUMQ+LKv5uCjgiojDInXVeodSH8JuACdiR3tvipzPx5X0uYJRfPUSCa7R6FkkVWBtvYenf298aFr6UGlHTKnpznlyF6vxZPDm9LST5lVSxzLqY01AQquNiAWIvtbsT/ACHJnFaPEawU0uZVMRTVISI4ShsQBud7gHYg8fm/7TPlJJNBXjRfNgKl8wOcUMBoq2cSkpIWzAHUp1WLBVHYEbbG+/Awtm0GbDNqWKjyjL0qkhLSfPVExikTVYXvsN/Tfk2OKF5Eptfc1OuEh1oxV1HsHleS503iZmzGgyyCnenWKGjgkAhvqJuZLM17An/+rG0tlmaCupZKelo6eGOQoAzM2lSDfst2sB34ucc/W14tR+221Wb5/ia46TzdFT4k+HFTnWc09dWZmgkcRxu6QdRigDXUKbqoN+bG2Lan8BUGW01NDl8zU7CuWaQqqlpCwsw/DsCNtIAFjhP2tvTWnBV/EdaMU3J9lRl/hqPw58bqPNIqyaOqrqZyzMjedkkjAUHgDSWv+Z7Y6n4yosl8ZT0+diGrFfGYljeVxpKh9mWNtr872B9cdX7ktTwYt8x/+DB9tR8i12VWeUbzQiN6ip1h0YRSk3ZtQtd+AAAe2F6rLKSpouosUJjDKVIABDBhY8E6vfHAi5KmsWdF0hieaNoZhFShemNDhkvsDy3e3e3JHphmqinqaYlo5JCgNmRLqobYBSeOeMNqX2xk208FvXUclLRzCZUhZl1gyShUO432/hhnMZZKTL6iN5IdK7rIGDML8WJ53xTFxUUlyFp8oBmtFVTx1JFTIUaPUpVVLni9wBsN7XxLNfD09FFIFpaZoW/FL1xqG+2xPb8+MWQ1d1RqkLWGa89VLJURaXlijRQf2dySe17/AJ4gKb5iW9m1avxyHa3/AOoOBTisiNmTSvp0okFSxBPnj1WF+bXt+eKuogqIOmzxmcRjUqLGFUgeluPQ7cX4xbHKoK4yekqcxakRi6dUgHSsY0+4APt6+mADMK6YGIVDFANKlGW1+Cb9v4bYytpPJKtBabqUitG1RodiQZGsSQdtrm1+2FJpKOBhND0y4v8As0cLYdyAbb9ucWxS3bogwidNVQBF6NRA1Q9nMMj+bTzayX4F7etsONUVNTPJFDLFHbmRUOlCLWueb/3vhZRax7jxdOzCZrW0QhiqcximnJJFPAELOF52Iu32tvi3p85qJIEklbpxSIBpI8xB7ED+WK9qWa5Ak2yxpqFPlp+mySvLYaI1uUI347fphWoqKilopZo6XSsT+cOmmzMeALE3OK2kx6p2gc0X+YSI0tKauQNcRVM5QR27kA2DD/nBfmFlp542MSSobaaiQE+w23tue+Int9IvCJrCutXe+sC5jRCdW3Jtxv8AniaZfQyItGkDBiG16FY3DdubA3FsR3ZBGFo6GpeGmFRJNe/y5IdQL7m59vXt2wjNUVJnkgTpwRK2ptTsAqn90mxvi2pcLgkkL1EVVTuj0tXKYCwLKiXUHgEkW34474r8xqsygiPyMwTQba1uCSTvYnk7gWxbGNkrGSvNTmLGV6mUx0RIC9WK0hY9rgatP9caZ8Rfh/N4yyuhgWKOoaGomYGRip0NESrEXBJV1Bsdv4Y6Pi6kNPUVFTinFr3OZfBGOnm+KNRVzwyzRZZSvL5TcJI1kVrcnbVx6g4634o8SRfNBDpPTBkZCd9R/CD9Meybwkebkm5M1iuzd4hDQdUtU1LLU10ktibsP2cY9LLuQPYdsLtV0tBl0SVUKTLL5vytpN+wve2BiTbYWmWWRVLTRXjHTFj5diLb2ufvjSfi3BVU2uthGqen/b3f/wDIOGB9iD/DFd1KyKk6Obx1qx0ctEiCopakF47G2lWPAFt7frh3LaQ5t4iyqS8nzUEa06yBbsy9rgkarXtYmx2wVaVjrODunhX4H1/jDOcvpKqc5sZJ0pafKanLWhMjOdIJkDEJa+s2J/Dvi5/xM/BrKPg149ovC+SvppxllPUyu58rTOGMrgdlJ4UbAWGE0dSOvG4cWNrRelycp8A+Hst8c+LMuyfMc8pvDuXV8zRDN5ozLFCSCqMwBB0k6QTfYNfscfR8n+AXxlR57kKyfKeIMly9mdqun0rHKuoyKj3fyLq2LeYWvbGHzPL1PDcF9qU4yu3FXtaqrXzfP6lvjR09ZOMpqMl03VrvJ8lePpM4g8RZzlVXncOdxU9dLKZctrmqMveoP43iJAU/7dQXe3JGNZrMsaJg6TPcKLqxuON7g46UFUeKM8qv3GafMMxigRoI6YoVI1CFQTzuLc98bL4MzRZqgvWVo84CQ3gK6b22sPewv7Yui6RVLTvg2LMf8OYy2my2VUrHkqNSzWi0NDKrcEC9wQRZu+Pqj/Df8L/C3wypjmEcD/506D/yq+T/AErix6Y2C3Btfk443kamrqaLjp9/2O7oQ0dOSnqPg614v+AHwJ8aZa9bnOcpReIZkBnzKhrnL9S1rmMgo1thwOOcfKniL4E//G/EciZX4koM3ymNlMGZIGh1rY8ow8retr+t8b9GP21BdUcnyZR1pOS5srqf4QQeEPiSM78K5/T0+RyAulNXxnqyC1tR0WUnVfcH2x1mDO8skjjMlVC7ON2dAdN73IA3ttttjl/UPEj5G1uVUa/F1paVqKuycGZZdVU83SDzkWRjCblRtz/t7EAjuDiIzKnhEscFLPUdJxHJ1dyht+8foQd/XHLl4vi6MbnLg2/f8ieIqgMHiY1ccopsqSSqgbRKTIiIDyLWJ1XAG4Ax6hzjN6tp6YUtNSGJ9LXYtfbUDpVN/wAQHPY4sjr+HFtRjbQuzXnVy5HKaHOHnqI5WhXoaQZI0Y9S41C17WsCRbfcYjFleYy11XBNVt+zcKkZkUFwwDH8R2IN++JP6gk2oQSoi8VP85CsEdFLW1EM1ZO0SBWjkeRVdSVuwYgb72+mFaaDLJ6usibMSmloyh6qk2t5u/rpH27Yql5fkNtR6LYePoxZUrW0FPm9dl6ZzBJpjSX5ZSCAxJDNfgE3UH6Yn4c8T5fTZzWU/wAiMwOhSzrCNCc/vHYsdQ2W9rYqk9fUct+MDp6cFaiN1+c0j55MaPKMyjk6Ai6jRdKJQLMQCT6k8emElrK6pzpZTldRSojCAs0yi0Z1NfZjq32t25xlUFzOa/qxtzfESdfDnUudpWUslPBE6FGSUmV2sS1r2ULuL973whmHg2pznPFrcyzJjAimOBYI0BUMCXUEgmxsLW9PphoThCTklboj03J+p4J+Hvhx4ayWujahpJBIYmjl65dmkC8arm53ONkTJsvocxE8aoodFXpLIbAhSBZSbb3vsORfB19fW1KbGUYwVIBVUFLHmgqjHHKSAoMkBkS4B7/Qn0xkU8dPWNIgdWlcsVEekA6SBx2tgR9STk+hnfJmOSOepidWkMiPb9stiBY//wCu3thp1aoqIZIGQSa1JYl/Q77dr8XwlKNZ6A7lwSrJ5ESIzGNCXvdgCGPrcnkYxO6PNCoaG5kXV1kIdtiRbCQnG1GhqdjEtNWVMUUqrMImlQBYVVQ1j273FziX+URwRw1D1dU79VGkdmZbWOw3FzyOMNDc2p1wK2slR4rpgfEPhOrSRpLV7ROBKT5Xiawudhuo7Y3OvgSuoY5HZFMc6O2gCwVuRZfex2x09GTfjte1/wBzNOt6dlZU0sb9JmKvEXUq+sqbkjte+PSdekRlYrIGkUsDFcFQRa3GOWoSlhs0Jq3RY5hVzVctP0oVsCvURv37m17/AFxsRpnpqWUNSQNG2gBZCSGs4BG3At6b8YRQTpSeMj+qQvm2R1BhqXMdLVQ61kZ5SqaN+AhF7W2w/mPh+Gmy+qjgr4kkv5YEsAD2HpuTt9MLahGLWWIs8hs4y1KfJqxzHE2saGQTXsSw3Nz64rKr5BYapGplhIQMQSxMhvc2IvwO2DCUp217hdI5zVw1FOA0nUBIudBIAI35OMUU08irNJSztExA0wEM6i59CN/Uk8Yunl4eBUjZPDtMlTTmRsuWmqgDZjd209tXocCzaF4oVkzCBYEA0qouzuv0XhRtwMU5q7HprBpc2c0uswUfUhbQf2c6PcG+ygsRz+uHsvRTEpKiBhABpRemvPr9QO2H5y8hdpZQpUNDLSxF16iiTS8kkpGodtxaxv8AbbCNFlbvmLqs0HyDbwomssxPrc8Dffk34GGjqRSsXnkeoIYIswDLGnWKsXMYsAR7XvfnGx5cikaahkqJlDFbDSg2/Dt337n6YqlqNU5ZER6moZWqRNJTQrKYgHmXTHJp/wBt7bi3v+eLOKRKCN+uI4t1J6aM7adwNsVptFqdEqKBqSZq0yLEqMenqj2A4uxtc8emGpZ6qdWAqA8bqHCunlK343G/c74zpW3IV+oXWCuaOZ6OjVIrEfsrKT28q9/fEIsnlpAkqLedhrllmIQMeLM1r249LYdy9KbGro2ihpdASqMQhgf9m6LIDqI+u3fbFQ9VSxVFdSSVU3SRySUhY27BQyXue9+d8TdNvLI65LF/D8NZonMl2Btbp/hHALbb4p8yymCihLS1KyLASAIqe8oPcEi49uewxbuVpE5lRr9dGiwyo9FGz7OkFSHTT9xz97DDaTRRxI9bSKsipYCH8XY3IuB98PK4rnAFghHBQTqxV3ilO5EhsCLfXn/jGnfEWqy7w14QzvNK2GCogip2J1INUjk2Vb32JYjDabm5Riu6Fk8ZPkv4Q+I5coz3OMxdlYPSOZLvuWLAAD7k43+PMXzGvimmZuky9V7E3CrbVv77D74+hS5s83/uZUQZ5JNVfOyuerNN1XcLe5JsB9ALDFq1WKl0XUCY00kNvb2P64CsPY/R5g5NUtOsk6J5CsZOoHUOLXsf+cM5/kdX4oy+ORMpq6lpE3i0SMAOTcW9hhtr2gXJoeS/BrxjnOVdBPDOYRdGd1pqiaLood72DMQLX3ucbT4W+EPjSl6FdX5XFSNSss+qeshGsKQSBZjubfnhbW1psa9ruz7E8BfEDwr8O/GmVZrnFVTUFLE8h0zzgyxXRhZQSBe5/jjRP8SeZ+Hfj38RYfEGS+JqOlolyqKl0TshlLLqOoAOBpsw784y+FoT0NJKWabLPK1VqytcYONUfwX8JZVTRrmXjtYozD1P9KJXZfSxffe9rXOAz+G/hVl0QEvjbMijrZqejq7BlPOoqlh3235xuU9R2omFqD5VldJVfBzKoFjgpsyrZLB0VHmIAtwx8vf2IxYJ4z+HgEaweDPmP2Sl2mUEbqL7FzffuRvfAS1G2mwtu7ocovid4dy6Rfl/B1JFIUUazBCGUj0Gkix33+uL/L/izVtCiw5dDHYBAdKKU/2mwFu3thoaFupPAHqtdH0d8OfhRmXxF8OQZtlOZTxRs8yRTyFSHVCFDadyDvYi4ttjbfhP/h5ywDN5/GPiKLPhQzmOOKlPyihLald2DaiedhYeXvhEkpWkbIyjSl2bz4P8HfCZznsTpklQ9Bmk0CrPXanij0oyqRrud2bffnDnhCq+FeX5t4loYo8hknoq8sKZaXrPEjKNKW0sbXV7Adie2Hak+QqWaR8P/EvxhS+JfF1XlmVS0xo8szXMJoi0XTV0mcaEVSBYAJsu34vfDFBU16GvWty4wK8h6arMtwrG6lgPLb2B7Y819S2tRUpG7w205NZM5RmWaQV1aKqgsjTK61DSxoZCBY+Vdh+Ec+uDZTUZotdWvOlDSwzytKiq5clbWJZhtewFhbHL1Y6Ull9HRSk1wM5VQ5u2c1RmrMuWKQKwRY2LA3N73IHHG1u+LvLfDmd5Zm0rNnZf5iMyNFFFGjR3a+2x5FgPbCL7UbqNp+4NrSyxSp8MVEGaNVVGf5tDVyq7SRyTIIRdgRZFUWIF97k/TFJPkbZNnbtUVU9aZY7a6mrcdQ31HSFsAB7c8nFr1mm9sUsexPtxaSYrHklHQZn1zl8lRUz60L1c5msCwNgSSBfi5w/JlUaSI9LllHA7L+1kh0FlXVv+Ibm/ffY4peprydXhr9CxKEFgcXJvna+OR7U2hTYImlrXBs2new72vhX/ACo6o5KuZusNVlTWbi4sLsbA73vbCQjJOp80ByTeEEjpWlr0hE07FlayIwYjy8bkAcHb64eEDmeESSGUo2ko0ihkaxtsL3HvgUoqnyBuRCpRqWSItCFJZh+x3YDT2swBuf73wdYOi8ba5Ta5KyQldtxbn19DhYW3FxJSbyREYgaJ1aHZmDRhrH8PoRhvpNG8DyQrrVzaRPwsLbgD798GV98hk1wgTTTrPGoik06yCQp0jnE6qo0yrpQlWc20BU0CxBv7YWKbokpOmjK9OBkZtFSk123YlRcEahp/mbflhaWokhmpnijhiVdpEvfUN/7uMNJqDS7A05dgZqhooXUJZdYukamx39xj1TNMlNBKrExGVQzyCxsLi3N7D1/hgwbnToDVvJKCiieSJ56qpqGikjC/NG6BdW++3874uaj5NekBWpEsrITUVKm0ZB4tc3HG9sXxUm0uEVyriik8Y1VNSSUsU/yrtDVxVrONK+QEqCNxfUSRcXtjbVp467LamKKwWyyJLYEbMDcD6XGOjHQlDRTb/JS/z+hi1Jpya/QUnrYoqaF1cyxOYwhSLSGJIvxxuDt6b49PN1aMsxmi6jLYowLHzC4Ora9/XHHcIuk2dL3o9VBoo3kRpZHD3JVNRvceW6j+7Ys1OYLEsUjzlVKvqdFvuy8ajzhZbYV2FJ5stMxojBTVFTLK1VPt545tBuCLDQBZvtgucnL6iiKtG8RKXs0t7XPIB4Pa/OItRySSxQMcFbUS0IWs6dMUdF0Os8iuFF+dge1u/wBcWedVBSnndJwYViI6MkZ2vYk3uN/e3BwJpya3MmFwaQcyeeNR1rw3/CdlYcEG++PS1tMUjRZIpFEodNK7XBuPuMCbUVgL+Cxj8UmWSCGKSngia+oOHLv2sO1sKVucvLNKrRQP5D5oiTZAL73FuewxXhrbZIr3KaprpawIUqEawBTqoAeNvKPwbcX3wtRQM1LKFpljjFun0WLK/ctcm/8Ae2GXpuRL3YBVVGahNJKxyBTbQ2rketu3r7YrlyhkRo5JJqpAQA2phdRzcn+zi3TzGmDbXBZZPl3RlYUoWOMgsXdi5022IBtbGxUeX10sjFqzrIQF6cMQTpiwHO5v9T37Ypck00BKxmPLmp3EYVzJqF2Zb29iBv8Alzh/RRwM7GZY5OXLbA27Wve30xS25XGh1hB6nJ6eqWhrKqMA7MgKEqSL2/s+uHxl071F40jCdMMWc6SFPFhbnnn1xS3eCcBcsnNDmEqvRMQ1tUhcMvvpAv3txj1dWtWxyUUVLHCxBKyoCLgnlvS5++BTcUx+cgI4Jp4KWGWmV4Y1s7PdUte42PqQON98XVTCsNDNTDo2ADusKhXNttK2PO/3xZmTwrRU2k8sUTxPGkDST6qaDbYodZB9VFvYcd8UlXmNNUxaY5tOsA9NpNLad7rtuP1742w8XW1OIlctWCeWVoqUqKl5qmIS1LiyU4fyqL7EaR+QPpirzKGgmT9vUVFOke7Romw81gxYbj6Httjcvp+tJK6SMz8uCdclA1LlFKH+Yr3lkZbrM9r7Ec+bGlfETKPDHirL1yPN/FLZVDq+ZWJDHGXsNrBidW5IAHJtjpaHhwhNSvKM8/IcotbTTX+HHwt+HrmkzPNs0eqlQSzrO4V9AvpKqif7tue3ri8OZfDvKaQTQ0FZWUVQrRiWRJmZuDYKSp503N8d3dvjvXZz5XGVUUND8Rfh5SakofB8jSRuVeGeFX1MBcG5f2HbbDsfx/yiOsiiyvwhDBMoZmJMaFzpPkXShFuecEnqZHL/AI8eIM2y1J6agy3L1JJhRYGN7fhGkMABvyB2whL8UvGmZqijOp4Z4pC0bUyBdJF9rW35tY4lRTuhYwzk0eHxp4nz3PKulzStRqaKY6DJpROojXDXNze9tx98SzT/ADbODTVNRmssuXm6S9aS6BhuQthuNv44spKSkixRSbPoD/Dn4hyHI6nKa6bLMunFDN1Vq6yAWBZWKB36bHSZBbccdsVf+LTxWviTxBR5fJkknhyPLcuECwVkKRu4kkaXXpW91bUCt97c4p0V6puT7Jqy3JRPnboULRpLLWmjDx3EYhLFhYi+1gBcX5wNWyrQklVPOrugYxRoCbeYXB3H7t/a+LrcSulVA56zLZqunqJ4KlY5oVjRY5F1OFJGokjYmx2t25xcUmc07wU0j0AJKFYQZiPIhtueSbnDJyqyS4LSirJZqClqXjpZHqATGSp/ZoCQBa9tt9/rfFvk1XOapFkrC8U8Z0ERovT0kaVBtxuf0xfBW1Zmm/S8H33/AIZfhRkVF4Xy+rqo5q2LMRCtRrkngelqJEZxezi6vYC/BDRnHTfDHwz8E5DP4vpaXJ8tjqJ8wWCVqi0rszMw13kJN9D2+2K52pNI2QdRVI3kU3hr/PKuGKjyoaooUASmjPkRn9F4FgMWEOaUgz2qWBJFkkpogXp6V11KruPxBRfc2wj9TyW3I/Or/E3F4fpv8Sj+HfD1Llvh+koZo4KujpqZ45J6hoBNI0gAK6jqA7W5POHCgqqiNRJIySKdXVAZSN9rkg7D+PGPIfUlbjF+z/udLxIumxeqkgoqlpeoUPTAVY4w8Y7G/oft2xdZRHBWVelo0h8lyXJ0sLk2BFrHHNbio5N6cgFekb1gEMyuvT3GojQNWwO+9/f0xGZYJmsxYyFb9NWJuwto0/Xjb0vgaOolHK5DKO7A5SpV1ciKJJowVZhrYgjcbX7H6YTromoGHyZi1LEQfmbsL34FiPzHri5SbkxJVHgVlRJCZBK0IMYupm3ttcbcC9/U4p3zGegJlToLewBqajSApYW0kHb+p3wUnLEn0VtxTstEzKuMgllRY6kAgzDUwO4NrHi2/ri1hrVMKmaEuzxtrkVAdyOCp3Xbj/nFbgo+tvodS9kZTOusI4IhG8SFlQgqCTp72B9P1wOpzGGkijmpmjVtRRnMZtqIPpz6YEJLcmxpNu7BPTipUT6QxsYtMYsNJG9lO9r4V61TK7wyRoDES4kjkKki3vyD6YdPhRK17Mm1NP8AL06v10XRcCdS5B3OxHa3F/TFm/WlgiFpS7OP2qwqg4va2w49uMNUXhgcmuAU0sqBN9LLIxJkqAigEHjTx/G2JGoNTJTdOYJHI5YxmdmC7EXvbf6el8Vx1NNOqGpstq2iloDFMxcxvazA6lA3H4ex9PTAJ6Lp/JzwSa1aTSxSwCLbc7gm3PGLYrdzyCTrALMaF5DT1Ds5TqKF/agAbjft9sYmyZ2kjRhA8QKHqSzgGRuykWsLX52vxjPBNgtJgDQV6F45DCpuo0x+YuNQtcAetu2Cyy0Ao7mYlVqERk6DMqnUL/UfT1w0NKTpthck+Ch+JuVZdXeEKuZaGSbpoGR5Ym/ZaZFN79hzte299sbz4eVaeSF2USQSoYxwqhW4Ngbjtbbtjo6LacdOT7f9ijVqm69hWugVqOeKJ3jguOrFIdywNgSLi/NhiJyiYUDBpodJZBZC4YeYDnHLe3TSfJotythhTTQ07IrNoJG7sCQQw333vx6884tanJatcvDyOhkLKqxq5ATzXFri1jzztiRmk1Id/IznmXTUmXxmTT1hbqqZtWo6uRY7MPS9sBzOnnEcskSO9OylWApgSdxyR6fX9MFScvUyOkGzGgEeT1IaKVpJJC7GRDdLbeW5Gw4NhfBKt50y2WFYotCFEWO5uqDst97e2ESbzJ8smOkaVVU7sloZYWU2azR7qf4k4r2epjlOsiGNktpRQwvwG33vzhVKNX7ExWGNyJpip/nWOhWUiSQgEgA2JIt/TDddQfPx6qSvgQJpdysYu3pe1udxfDRtxtoNrgrndqFBLVGQzGQsHMVjyePtbn1x6Ot+bdGhnCSMhAJia2gHfy8egxFpzkvgEubBywVPV8wjmA0nSnl088Lxzvvc84zl2WVccixTUgEsr2vEhsb3N2uf7OHehq6jtIrerBLLLVqCopp1kig1y/uiZtzbYgDGEzGZmV1kgRCRrVGN1I/dsBv9sadP6fqzTxRS/J0/eyyyjMKVmnlkrl5IeMMxAAG+25J439+2DQ+Icgmp2XpvJCt0WFburHYm6i59OdsWr6ZseZ0Uvy7dKIvTeIoZJqumyzLX6y3ZrDQ5HCk77egvbjGaXN87q2qKaHKppZYxd0kkVHRT3IJAINmA3J2xY/H8ON/dndA+9ryxFUVkFRnj5jUf/wAYkVSkZmMjSIR0iQtySfUW27YxT5v4hraxKRKqjpKiS8hIm8oGwGwUG/P64da3gaUUoRsb7evKVSlRZrk/iGpzCKCfNg6yRl1kjV2VbbW7X3v+WEcx8L5pTZxRU0mYTzx1SFzKhAChRcqN7EEm24J2GEX1BJbdPTr/AD4J+yp/lJsFm2QwZNPSSz51UQB9fWSQw/swLBeQRy2FMxgyekrKGODMzCkh0ydapFpgRdeD5dyOOeMV/tnl6rT4T7S9g/s+jFlbn+dZJRZjRQzywyRI9pI4ZZJHAOyhgL2ubEX72wPxFnGTZQKeaCGapeGoVxHBSmVl28wPlvbcd7DFd+TqKO+WC1rTWFETznxNPFBG8eT11U1JL8yqw0RGgKDcm/4r777jHL8w8H5tnfxDzHxq+XySR01vlaOVAhGgCxLMQDYgmw5J/PV4u3Sbcp8p8ZK9WMpRpI1D4r1BHjSKtzWOZ6iSFUjiRVWIqb3Oo3JN2uR9LYWqqk0mXZXDArNNEjhGlICg6tyV350ja/rjveO/3UVF2jm6qbm7NYetpMkzyqRKJJpBJdmnkZrt6BRYAXxV1GcS/wDyBKWmp4aaeOTpmZFLm99yNRPr9sbKYlUbvnVRNS3oaWUxBFVFaMhWJte9xuORidd1qaHoowAeEboORpF/qb73wqyB4NNoMgzWbOleTLZflzCSjNEETSBbcm1+2/0xu0GV/wCXZdTpLVUQimj0NE9Sl9Qcj7nfYd8GTqiWuDsHhPLanKvAhodMNNBWNTvWr++UilWXSt+GIWwtewfjAv8AGTkuWf8AzaHMsukky7Iq3LaafLzKkkxeFI0sBICbkBhcE3F98ZNDU9TXswasNrz7HzpmkWVTx5XI2aVEZNMQyCiJJs7gOLsLg37274SzQZPDS5TIZK9wadlIjhjUG0j6W3a/59/rjdbrJWv0JPWZUmXZSfla5iEnRXepjUkCUmxAQ25I2Pphv/OqMZTQzRZQj6I54leWeRySWG2xAtvfjBi+mRmx0Ge9PIMrkjoqJV1P+KEuwGx2DE9+Prj6R/w0f4dvE/xqpI80zGvfJPDVO8k0tS0KK1R5dooBpsQdJBf8I35O2LIKpb30Jt3YPujIj4fzGjRkFGjtBQwPE0gupUkI1iewMe+D+H6jK5fFOaVaNTn5id6xERATs7RR8Djys35YaVt2zQnXBeLnkUedTmNalx8rGkfTp3F06j6iCQOTb9MfHvx38eeOfhV8RMxqZfHlXDS5vGmrpU+kUtOwZVVoVZtAWzaSCCdzycYtRtSXsJqRtZZxzIvCqx5jU+I83c1OZ1szVSSVSkOQRo1sGJIZh3O9j642mkhfMajSKcOhUGN+oGCgne1txwMeS8ucdbVbbwlX8jv+NpvT00vcuBl1KKgrNJad0JMiAkg3FrkDnFdWA0kZm1wFWuNcMt2QA2ud9j6jn6YwOcbqrwanYtLmMazCSOqhlUgq2hFJJBHlv2O+CS19Y1TCgmdVCG9luNzytj+v1xZFS23tK2k1bPVlBWK0k4qmnYLqZVfe21x6b8exOFeoK5vnPlhSRPsEknUtyPKCOW23Hpi/TUtRXQk5xWEOVbwql5XMYIYROlvOptuD+ex9MJTVFKHpys6tESwMRHUU7AHtYcYE4KDSsEJdUGFYzKqOZOgQemwjDIptuD32AtfBFr0pjoeNipuXYRkEEbDa2ExOSiyzLMZrm6UUcNQ0qijjDF5yyhYzba1uTf64LDmVPMA9HXxSdZ3QmBeruBYg7bNxvz6YEWkriLtcnyGqFkaeRoKZXUXYlmZQBpNxufXcbYzNpp2jmVwRa/nOprb3tYb4ie52RUrbBmvjq6qIzTanDFUVzpbSFA3O223bBp616VozM8s8SkiMGQMy34Itc78f9Yrm4xpPLY2WnRP5tavpSLHG/nGxQk3sexA7/bB3naqp40dhGQ5UqKYKF3IAvwb8bYkZJ1aoXPuOyRPVrDLNTIySOq2UkllF/pxtz74nJl8TxUvXcQBHBaSd7AEniymxH674tcpqq7I4x5ZiuSKbpmYwCJHjSwUqtg1wBtxe23N7Yfqo4Y6KPrKAjyRqzAEMw1AlbD1sOfTFGmpRxLFkaV0G/wA+6k1MogqPmIZUtDISAguLXHBv7fXBszZiJOvQsziSNkiEY0kBgNKkggb7234vjYk400Uu0V/irKauv8OV1MadUikidUZbM4bj8VrWv2Hrgfh+okn8K5PUmLpytDCxCeUtsq32HG35jDePGLmm3/uX9cEkm7T9i2zqmSnaUzNqWeVQA8LMJLkE2Ynke3H2wSpyzoUjwUJmaOMrIW2JFmANxufqcZdSKTkortjafqimTzDKJoEVEhqJFYpLaV9KqdXJJFyeONt8NZzlYpaCX5qpVgXU7SFtAuNhc89jjPbtP5LPTWSizE9PrxienqVUiQtqBC72uEAvbjnfD+aV89LTysta1QsYJlAhIKgkX3J7/TjFrW7a74HtcUQzKpkrInnExjRmVwJHBLqbHYG9hfv7YZzfNyaSpkn+XkqzGVViSZUW/FxawNucItqqvcNs0KorcqnSdkqnLKtnWnjMhBt68fc2tvgC1eXUdKDKtXXaDqWRLWDD1IBUjHooeDoxj6pZOatecsRiJ1NdlFYYKz5CrnqkQmAPqZb72OxKn2Jth2lzCnzZ6ephyhdckZHVLsgBBturHbcbD74DXiaSuQH9+XGAeW5rX5hSv0lgp1R9KiVLiy8/3fBsqlrKylaY1i08EQ6RbV3AG4K2/nbjFT8zShahHgK0Jt5kJ5NJPVU88pr5TEZulHMPxEWtz6nk3/hgVPW1VPNVwO9XKIqjSpDWZ13Otz3Hv+mEXm60lKCikiLx4VbJ0WaUCZjXQ1FcqKCJVRqkWjQi5JW/BJ74BS5x4ehzStgesp5nRLrE4LhQDbbkDc9rb4rep5M5Sir4LIR0o8INk/iPIV8S1i09LLXWjViaWjYorKvGrgnzdvTFxHmdTTeLJammyHMnhqadlep1LEnlUG1i1++22MurCTmvuSStdl27FJcD9KcwlzWnqYfDbUyVKrGGapg0sAC92Au32tcnEqAeKpc8eqmpqJYahTH+0ld5YgtyAulUte7bG5xVt0dzuV46Q1SadiFXk3i6lziHMxWwQCUiMwCATAo1/wAZYg3vY2AHG+Hc2yWsqKimrp/EclPGrJFJFS0sYYIxIOq+ojcniwPpife0VBLbeKyHa75A5z4ZjqswpauXP81qFXTeCOoEcbC4sCqrcgaifyBGDZp4WyyujoqyepzWoqKV1kgAqpAttXmJHBH1vwLYH3njakq+CLTj2K5v4ZyPM0ZM0okneNxNTRzyNJpUW4a4G+kXH5nFjn2V5NVO7rQ0hqkXXG7wqCptvYn7YqWpq4Tf+MZbVgzVwxyU8y9OHQ8Z/wBCIElub6QLHEJcxSGgkBQtE8bBm0mPnYWFhzfEUFXr9wuSWDXhRVdbHeIT1FMWD/LiXRGbjYklb+m18Z+UWvmjeRBGjL5yp0yNYX3JYgc8W7Yuioxll4Ed8dGt+JPA8HjaloRU2KxTLpkJ1MU02NweLWHFu2OJeMTRUPimWkNHKfl/IFee2n8l3Pf749T4j/dRo5Gs/Waf4xzOmhz2eVsroi4YXb9o25AIsC3N9/viuizuep8bwqaegUVKxSFkpI72MSnm3YX39RjqRWCiXBs2e+I80rcwoqennKLOiSLMqKGFwBudNxa2LLMKCrqOvL5yXsRLLKoDLbm5PtipqsitJuyro/h1XVVJk9c81CtKweB5DJrIcyErYAb3VgQR6dsdw8J+D8oyPKIhNS/P1kDmMVKQ6pRbzDQDte5PGMnnzcdFOLpmrQS+4kzbFq6ZlYpHLCjeUJMDqUkA8km54vvjoWS/DHLvit8A6vwlmlHKq0FY8uWZ3LKLUzShHRYu9lQFGDbWJ9Mc/wABqWpOP+YLPJt7W0fCvxH8I0nhDMaXKs0p81gzCl+YhfU8Kq9nuNtJuDq2PFrYqs7SjpMhyz53Ia2OZOuIxLWaOomoFSLR2IuTuOcejSdPJg4FK7MsvHh7K2/+P08rM1REvWqJnBN1bgMt/wAXb6Ys4uquQZf1cuyqgSOaYK1XTWtsh2DFmbftYjbthUv+5i00jpfwwq83qc38OjIsrTxJUQZhqGW1NCny9UQq3VkUeVCL7lvc4/UXwrnWQV9E9RBRUeWs2XRRy0J0aqY3dWiFtvLci4249cXYjG0SG5foWWUUuU5fnMxpCin5SIgRoW3j8iWsD3Fz9MWL5pFlFclJDS1jlqEBQkJXyq9uTa3P6nCTbk0W8mofEX4gf/bzLMx8R5jQSmmgoPKruoDuJQFQAG+5YDHwNWVtV8XPFNdnGY1UuYVL1vzNU6xgRMQLLGPMToQBVX6Y5vl6myEmnlIijv1Ixs2x89BWWUyIURTrCm5U3sRx3vhunNLF0amSvjpFk31ODqJ/2kX537+mPGt+nCs9FFtlkw+WqjTpLHUppZbKNJ7G1+Qf798a7nUZp6ViFjpndTqRQsi3uN7274ELjTrlBnnhlSlRVqWLoUXQNb042YA3sw7WuBg1XRzT/tNqiIEEx9UodPt73sd741Rk5RTE9KLmlo+pGk1ZAgqo2cRNDLpZ1tZQfXbfEjk9HTxjRqpiXd2dUC3JBtey7nn0xocttJFLVvApmQeJopHaPQ+6EX/rtheIpHCraZ73uSHAKEi/5fpiiSi6kyzKsnRzUk9YelM8xX/UDTG67He1vX6Yd1wKxEMUlg+kmRyxJsdxv/e+K90U00izLTIVWdRxyR00p6Mm2zR6/Kb2ABFr/TDVSJFZJKWUwWIYxlCLjSebccH3xXHUnFUlgVqgFQ8pgWOpdHmBOliwDAW2uT6+mBxZnTrNFFDOHtYHQNWlwCbHspsfp274sUW8vAjkvxQaFVllp+sslati/ULaNNtxdRixrKpYaSNYT0pdWwtZRtzcHb8sVpQUqH9VMElWy9CQyxfsmDdRyCpHuWG2LOWnkrHScROHBC2gAUH3IGxFri4w6lJ4rgmxMnKqs1JPIYiodLWkG2/DN6c2Pe+M/NJE0SoY9DzKFMkgGg327YDUpSSsDaoYkq4Zkd6qYWDo+lQCqjUAWUtYm+3HphuauosvLCNvmDK6aXkQFyCwuQbcXGKtrVbWNu9kWNfm1IYxI+XNOFdQ0iyEcMO+/bjFpX50rZWr02VQITo0mqka91ZbW23329++CntistZEttMzU5rWVWU1VP8ALZfE+kyfs2Nt2B07m255Hucav8PaaubwukAlhhSlllglREbUenKRpItY+wv9sXxlDSbr3T/qI4uXJseYRCooGTqWmWTSsczBAtnsNtzc+g4xa5h4YheOpPQEWhAyy9ViT51vcbYOvPbqtR97Bp/hTYXN6enhpao1LUge2hWeS7k6hsQeOwP14GKvNYhVrXpViFKWnkJQUzsyWv7C5+hxgnmm2X9UiozWCGipqkwwSPCr/jUsTub7gm/5++GZKWajpaiXohlluwidwNW/NuwsL/bFkUm7vskm3kUzZo3gqWjp4UUx3CSoZEQ9yBz+WKKoRHo5pYZI6iaMgaWjUaT99+Pzw0a9ryHa+2aiKqokyhaZMrnQrrj0STonBsGbc8+wNsKUqZjU5dAJcspYJoSyorZhq0ci5Og3xvcoRu5FFNpUhyihz2GhNPLFl1GL6FbXJIdBW4NrLcnfGckyrxEtA1K9dSpDG9iwpiW0Hcbat9/U4rlLRUG2m2wKMnRJckzuKWopHzQ1cbBZQ/QiWwNgQLe4HPrglJ4WmytWjjrswp4piG6UlQCgtt5AFsB9tr4aerH/AGwq1+o/2+mwNB4Kiy/MJZZJZpmlAZj81KbEMTYaiLc3sNucep/C+T5fVyOsAMkoIeWd3aQtfYlif/YgWwstbVbpYwI4Ri76J0OWZXl9f1Kaio4C6HUzxqWfgamvuTt9sWZq441RYKiCDSpRhGR5CbMOByf4YztzedR2WboxeC2lZopKUlZyQ7BVS6Brrz7XsefTBa2siy6no2k1CFXAQv22PJBJtvbjFbgtqa6I3aHxUVM9VDqMYgDhenqaNxe4tcea51X5GLDMZKqP9v1UXpmNnjiGs7G1hcjc3O/54ipVu5Fp5sUrlrswpqmapLU0yyWCK4OhQQew27+2FKpoYsvk+TLlVcBp4ioaR1H71wLkepxTDUdKFdliS7ItSGaKeIy65T5XV3AKWub9t9sDl+XWmekpqQNCwsrmddI8pJvci2/p7e+L03K2BVfI5NBSyUcVNJHEiaP9UlSWB9he4JtxbA62IS0lKy6rmMyeUBSfLblQPXvfFH253aGpN4GaKWStplfoSxxmAJG5s1/LvsO3tivpgrUMaCn6kTAKeoVUFgN7XYm9xzgv02282DirRSGsjkpXj1QNLAnlV7WBXa/O+FqRTWU8crK1LpGoAAAXHqRsb784vUoNtiq3yMdT5WmRI9LxqrO0ney3tvfuRj5g+IWax/8AzKvc0VGXaRSZXDHWbDkatr/THr/Hi1pxr2OJNNzlZqHjbxJVQZnTiKno0MkEbAx0UbORpsD+E34tf6Ynl+ZZyZqeV6ytQrlLBYrabOJGUW2Ha1vqcb1VL3K5ZLrwXlVfVyvXVj7umlXnlB0gX3uTt6fTGwUeRUuZinFTW0+lZXMnTDPfgqb2sfpgtLn2Avk6BmVNRz+G6dVkKCGpFmSM9uLb7/yxtNLT00gb9pKtwZC4Khfobk73v+WOV9Qp6NM0+O6naLpqXKKmVpZJP2sYEkbtJpj2UjcadrAY2fwV8XKTwvkeb5fU1NLBS1M0UivG7TWcAqCAoGnncnt9Mc3wJJa3p4o2eUnPT3exzP41+Hsk8dV//n0azVlOto6guykXGw1Kb27/AHGOe5fFLk3hA5CKOiraCOokQUdXGZVKkAg+Yk3uSbixvj0Um0tqOcldGw+Epso8P5RIMvyaiyyoRrr0otbo5UXKu+phfSL79sM5R8Oos6mnqZs4mSgqak1S0tDBGliy/gLlSbgg7jffCac3/uyWSil2dw+Hgy3wmY46akigi6QVy7F3c3/ESxJJ7Y7V4S8YRPn0UNOFdWpQJXjTVoQSXPA5JNvbn0xpTTyVP4Nm+J3x98L/AAdoKfNc/eriSqgMVLDHAddRIHBKKDvsCSTbbGreFPjflXxAWqzrw/mU8rwRWnB0q8QaRAvUpm1eW7Wuhuee2GTzfsI5K9r7ODf4rvjZN8RM9i8F0JlSly+VIKqegkDLNUE3Y7jdUKkL/wCwJ9MaF4Z8Mf8AxJHpoYlJaEM6vLdLAWIFhvze/rf1x5z6hqqNxfdmzxNNyl9z2CLIZdBgSH5bvoVrqPre3Nh9MEppS0ivE3AIayhQG/8AViL35+uOPHUSaa9jrKNXYWkrKmjpkltIEQFWFwQOOSo2/wCceStmqTIvTGhB5pNZOx7+/wCuJPc5Jr2E4Z56dato2ZY1VLjzvYhrdx3sP+sFiy2Gpq1MtOYSW/EpG5twPr/TB09Nqe4ZuNWiwipxHVIFWpZdRBEave5AuPp+m2BLS5NHXPJaqMkzKHE/nCW4A9PrhlFxWRVK1gFnVCk0YB1BWYskgI8vpftbFO8QjqZZoZIqjlFBe17A33Xnb7YSX7trA7uTMRZg9GFaSm0RA7M2orqPIue97b++HKOR5ZdV+kzOA2kAi25Nr3A+vOArbW0O11yN/OPWMkYZ4mDAFtABO5uRY37fY4xmqs8aBCtXNEzGNJZSms6fwlux3974SKlHDBxyVcMRoIaaaeI0dbcosDsZCCSbAMo9N9/rti2WCQtAJadqqV3Vgqqsbrffdu67cnFzcU0m8C37DP8AlaNUJHCskc5uuhmJIJBFxpO5277YJLSTwQQSyKuskI9oxfg8n29cZ/upfiiynlsco8ulrXpnVDGpfQyggCT3sN8WVTlkEzRs8bUqwuAFLXN7/XcYEdSbeEBpJHq3K52pXWcPNT+Qy1UUOkRMW2He3axF9/TCtNQ0OXUUoimqKhROrojN1N9ri53+wwVJYSYkn8C3TWunqJTDMRrsXc6GvcX8rC3p3w3PM75fHC8AlcOqrKjXUre+1th74ZOO3DIm2yP+WVKk6GOhPP00kYBb/wDqtgeNr4uaulqRR1ZEwMxI06or+UMLbXsp9rgYT0yStD7aLvMPDNSuSzSJWIKojW0TooLLq5ay+bf+POKLwzTS5fl/iKjlqDFLS5tOpEFxGC2mUW2vvq2wq1dyktvHHyr/APIKt3ZuNPHBVpmQrIpKaQqJY1qGKsj7C53va4J5xa+Jstyyqy6oURQicMFE8TdS1mBDbnue1sXeZuuLi+a/sUaXaKrMMjqooK6SqzRahHsFgSkbQALebtv9DiOairTKatRSvGAGYCNQBpHBN978YwNJu7x8l6eaRUZzEtRBU1PyjrJEi6LSaBI19jfj7cYTzyqlhNTTtIsTAEBGIa4503H6njGmHNfI2eGKZrU1C0zlZkF7sCVvdR3sON+2KnOvnJTUSPUSsi3JWNbMxPrsL4kJq0kgtLs1pQ1BR9YK0qB01OpUjzEC5v2xYU8kkTuZoIzAwUo7ArYHa5BIFrj3xrkoZso2yVFxQ5XUSVlgqmJ1D/tFuAOLXvxv6YaipqZM8jQ1ZLJHuAQovfuB7Hv6A4z7l0rDgZmgjOYx9J5AZo2IFrKbEeYED3OwOBKplzONZJi5uwCiQk2Av6+2HjKTp10SuzOZUbAUhFVTU5bUqg2d2Gm9yDte4xU1GXdKamqWlgndiF+YdAxa6kWvxvtx6Yqcpp7mS0JVvh2jTMerFDHFKxCuY4zuDxYDYC9h9cFjy2TL3iYRWVnUSLEBa527/wBjBtSScmFu+CzimohDqXXLolRmZ3A31WIBN8N181TLOHi6cFLBJYxki9gQb3FvTj3vhZSikogdkc4epyuikaOpR50fayCxINxc+m36e+Fqhz4gWmnTqQVDR6lEqhdzv+EfTv6bYEtVdIX4bLdPma6gqFLTwXDp8xrKg6rEbDvtxvxitMPSoB1ZEaUkfhZi2673BO5O/AwjaaxzY8KTtgWhKwRSAU06SxIzDrG4IH72+9xe4vc4ZyHNIqypp1iy5lMflMixkhjcC9xfv29jxi1xm1bxka0smxUNesVNCsUrCQMISzRbnSfw72tuO23bA4a6SpyiJaiJBMLqGfSljqtYXPt6EfxxnpqMmmFSToq4qgU1HGyR6kjZw37ZSfxE7AX9QMAiqetGUINE6TMWZdtXmvYbcWIwag+w26Katmp/lS0tTDTuTIOo5bQvm2I9CeLWxSU+YxMr3q6eVY2Opkfyje9zqN72+nGNEa2vail2TzuvWPwvU1CTpKJG6YZQukgm/Yb/APGPmfxLnVfU58rxIsiMh0OlGu9pGFtWm9hj1+g6jGziztzZQeOa/ORQ5U0dVV07+aMoCY/KGuPTbf8Ajg/gjwy1V4dnzKuqAHlmFPFI85caN9Q7/vAcen0xtlS/mCNPo2uipqKgyJovnLSKxICwMwsRvubcW9O+PUz0VLlCqKqod2lDKUhFtxa27jc4LdukJTeDpLU0NN4WpI2WZom0uHuqncm+339fXFtVJSSUy9RugqqCXVwNrbg7G3bf6Y5nnpygrNfjZkQyn5GYJGKhDq2DdUu7E9ge5732x174YeEPDPi3xZleR57RpLRVRI6M6BTJIoOgHfcbjbvxjl+M5R8iCUTdqSX2pWbv/iK+HFFVV8dZTimyuoSlVmmqpYo43RLIo0WFrAAfbHx7nWe1WWzVUMNVTTRxzqGaJo5U1EG26qBvxju6qa4OZBp4fIfLs4z3MaJ2poKuQ9RY26MZsDY2OwtfnD2Uz+JINc9TSVhRyo7/AIbHcAn19PXFctRJ02Xx07Rs1H4lNMrySSiOZABZiEYKTyOdrix+ox074UfHDw3U+LaWikrRFAjmmmdDZQ53szNYE3UDF+jNTwjPNOPJ39/DCZxna1GbZHSeI6Gtp3jK1WiQBVKWujal4PK2OPnr/E38GfDfway9fF/h+tlyRquRTFklHKdSGMDW0bncDzcG4BKgc4v1W46doRtbcnFvCuWRUlfWZsuXSxfOXljjkZ5XiF7gBja9rkXNzwcbTT1FW8EYvZJFt+EPckXNj23ttb1x5PytVak2dfQ03GI1E1BLJHTzpLFLoZnURghwNibWuLG2J09PUrVlDLK1O58sQj0qAOTcbW4/LHNTk0rRqpdjE9JG5IiqdWksjRxrxYfiueR+m2K+JDIsTSMptfdmUNf+Hv8AbF6jKVN+xPSm2gaUMMhAstNNrKov8gw3uf64s1eGNIxdo6tgw1hDsbbbk2H5X98X6LteplU37FhU1UkTwTvXPURXKliRcvbfURuD/e+KnMM2+elWdIhJSuCEdHD3YWGry9rk7d8WSlCVoRJrgQqY3uXWaUxOdPTckBW2BKgDbAK2NqcB4YoI2VhpXQ3n9QCDsbX7Yp3JKy1RbtsYg+ZqaIs0MEILkaIvPrFtyBbt/wAjD4oqyaGCYCRUBs0kTWVrCxVva1+2K3LblCqkSahQPHJUyRiMnYs+lVF/W/8ADGI5Ukmm6tldX8uq4FgeW+v145tivc5QTfLLbjwHYSfJDq07H8Dao5FCgX2POw7X9Me6lOk0NQWPRMmonrMUA3PlseCTfnAW2VCu7LWKcw1UNMZJVEkgEzs6gxg/h2O5uCLfXnDOdT1dLU0ghRp6DbrabhCf/Yg+YH0AxW5NfisDUnyydXAnyjpEsUWto+kUfSUOxIGrjjtgeYTaE6LzNC6hAtgTrOoDfa3vfCKEmlu4A3HNAJYK6ESTPNMYFdTdE3UlgNRG1+Rthx6KAQTlqeASAh9UJsWvYm+9icKo7Mt9heVgxWQS5fSGZem1Mr6enK6hnuwNve1uB+WH6arpjSzusZDuw/Z+YsACB5VJ9u3rh90Vx7kqVNFpm+Tx0sDukzQ+TzyLHuQDuGB4/wCMJTUJ+QraOCreGFVVo3Wa72vvqT04tv8AbCfdue2uBmsZLiaUUmWTQrO0wlD6BHOytbubEnFHlUdOc18XUzo9JJJHTVyHrMQ14tDnV6lo++LNOc7b/wA5QjSfBtecGkWNVQx9F4ZIzGdyLbi/PvixzSrp4MnqEpyWUodPTiJNvtbceuLdeOpLTg/85ZRpySlJJBMyrpZ8rqA8MkkqqwQ6QD7cnn+mEM/6gpamtaKVJBGdSmpbSfsAQe/6YxbVF89mh54B1s5qMqqmjeKOEws4M8bkjkj8Vj9MUXiCp+doSGjgYkH/AMgIrb25BNy2LYc7RlG1kparPzJTTwVEpjkVSIrqUEm3I2AtjNRJFJR1bTxKj9OywvyDvuvmw2nbVL3DiPY//wDF8ykrIA0MUY6b7q4e4XewNtvz7Yak8FvVZjHCxFTCwP7MKORZhf73xc5OsGdte4fPfDlNRrAk5k+X0PE8Kkm66dVh67qMIS0uX5hWUk8TOkoAALyNpKlSRsTYD1H0xVBzkljANquiGYw2qIQY4YIkcLdWsQNw1rbcdsVucZnSQNTC9mEuk2h1cgi1+2x2Hrgw+76UuycWJfOwV1RIYauRTG8d4lX8AJPm02uLe+LmogWWmW8bOI2V9DR3ZQGv2I2th9SLumwqSzgLmK1pSRkp4+nCQwBUF7332vb/AKwtV5LVukkwp0QQHW4dz5gPxWtf077DFSelHa2xv0GqjJHzCKUPLTosUWpAQxswFx2At3vfGDG1VDJFDmEVQCn70XGxFhf+XGC5xTraBJyIrSxVVAtTPI0nVTzImylrcX78YiBSxUEJaKoMJjBOp2LE2F7b83ucNTbaSBSfITLzTy5RGGS9h5o9YMx7WJJP9/TEcjhio6RUo6CTTdvMzXDEE32A2tbc4ranNO2FNWP0U9JNRpEYtRV2LuYTYkM2yiw24xQwUfytejUIlEKyuHpFjXVsTyCbi/qO2LPVFNN4Hcm0ky3LNl9PJLUSQxhpZF6DSKXHfcC/Y+2NWjzyLptAtLEgWQsqq5bvcMbbDn+7YVQjUkhHapoxJ4hlgLyaokUylrodxx2+/F8Ey2skqaqobrpFIbkP5i1yBud/rixxUVwCm2KTLJTSSxkGtIKtIzWWy2BuS3Nj6bnbFcnWqi8TRvHGhJIlRQbntt22/hi6Nxi5JAaao1jxzmM9D4fpoIROXmlLoIYyAeNgO3uMcFzOszOOASVVTUxanltG05BClyRsG2vj1eg1PSi6ORqJb3RrWc0hzWAyz5lCiI6oxnZ3YehAAJ/6x1yDwmuWfDHLo+tUmKmiWpQwxWub7nSSCL6ja+LNeW1RxixtNZZUZmaCLJZYnFWykqAyaAQNwbg9z69vfC+Vy0dQrIKapv149HUmC6QLjsu4tb8sXRTrgztOrOzZgkZyYIsasBHq/Ebgjtcc4o8zqFWqlqFhp1C6SzyISVOi5YC4BFj39MYfKTcE7NGg6boWyXM2/wAzkkCildnWUSRRImthuSpYf7drfxxey+PcySQZpllbLldZTnq3VQ5WVf8ATN9P+6xB2xyINrVTrg3SipJ2bd/hE+FObf4hMi8UeLPiFn9bX1XzZgpabNKgxq8kaq7yEbFhZ9IA2B9bWxo/x6+AGb+BJs0/y6TM1SZuvTpS1haK6ggBRqPGoc23x3dVLTla4o5kIxaquDQPgnDndPkOY09ZLLTVq1QkjM9QpkZdIJuNza43GOt1mbyUGXyT1eYU1TJDG4hp+mVCu1rDULksTYbDjHG8uDnqtxOnpSUdNWahXVFRmcMkDZhDIsllOnqAqN/Uc3I+p9Mdz/wUf4WWyw5bmHieBayavLyxGoBVYbDUNSWbzEliTe/mtjpeG1FOJRrdM63/AIoPDXjD/DfnNL428AyV1R4fzACGfIIWaoo6apBBIjjdWKLMvZbAFDa18fK3iv48f/firo878QZIuULSRGjFA0rNokjlDMbE2sZGsbj9wXxdqbvtuK5Ridb1LpmavxEnTkmDNDVRAKzaNYAa219wQdt8O0ebF6ijSJWp4gC3UjUjzW3AFrfX6DHmKabtZO2pJ8MbrqmoMnla8jPdZtTA2G5uO/8Ae2DVOaPURQJ0qeoCMfLLtc778c74zuMpVmkO9qQvNXOxjNXUwrFt01jQKTa/4T62I2wlK/VZlUQks1xJq5XgAjTb1784sUJYTeA3ykTy6lkpcwjIqJYkaQtGIlBKkjv2O+9x6/bFnNmJZYwzOyo37gBHAHFxvcn33w8UqoWTfQhnTxmmvNHNAA4uEJJtbc8drcfbC0VRTin6qSROGbq/tiWTSTyRZTtbjEUVFW/0AnJsk+YRrTpHG1P8sw6hKodIB7bk7Dt9ftiQmSKqaOJtUiWYOv71/wAVgQfz7YRtuNoarLal1TPCyCTZxcAWJ24O31/LGKhHbSNLsqlTapNlO/r352vhablFDNRjgbrJUSjpZFdGjMyMRJHdSPtyQcT+WkmSphEStEJUYsECsu4232te22E45B+hioy6WhgeSWIzRXEcpjYKp328v32wF+nVZaixtHaMgFSA19woJH52I98VppKkSm2OQ0b0UESTNJIoZWWOnazW7gG437WP88RzCT/wVZViE2pTGGmChBe4vuf074XdLUa9iOuAyrO2Vos9QWkeQOQIy5UAj8W1h9RglPWyQao6yoE8bMpEencWYWtvf+OGXqk02S7TpF1X1sENOUgpZ2WRQQ0UmsDcG5BJv98DrKKXJ6KR5J1EDAHYaQARsNu9/wBcVSSVdsd2si1Tm8qCpioqQfLggs86gjgkkXv6frzhurzopTkRMtJIwAIiQHzc349RfCx2uPzYHaVsxWZ3UGGfesmmYlGO7gnnVqWw+3vg+cSdagnM0aIWi3vJoItxyRviRbq1yFRQ3XvlrUEgmiijaZHQksGBJ3vbgG/phcZjT5X4uzGLqwpFVZJYMi3DGOVhfvvZ+B6YsgpydNe4r2rg2SsrWqKcL8sY41mDiQ3uyldJvcbXvxxhSpqsuNBVy0dC1NViMtMG1EccEk79zcY060a0dNKWLZVp41JV8FhV1dbNkryyiOF2jLMRKQn0W3O2AZxn0T0VRT9SMOyHyhWJta4NidxjmOMbe1vDL2rEsxqxPlrk1D2MTMLWCrccDn3298J5plsD5WDHKqSLGWHmI3te1hxvxbFsZyT9KIlRq2YVNNIiR1K9OXpHQwbWpsNyb974XqKiNoJijQ9QofOfMCPX6c40Qeo3bwRNHVqkUFPFSSakIMwXeW9rgji/0NsDqKOlhaKoWenRlnVnZjY2N1JYgjYYWM5pIouI3mk9LSpBM0dBUXdWEhkAVhe1rnjn+ZwhmmY0kdEsstNDFLFMjgRkPqAtckqB6kd/r2wic8DWlwaxnVeuhHbJ6nTA2sMHI82oG+kew78c4jnWdUNBQu5pqpWZle6oblr8nubW3xZGLuMLwRtmuSeOqHNVqEpcvqJJTca0p3VmHrcgAjvf+WLaENXqs0FNpJjZbSMNdiLkH3NhthtihyxdzVotIZJaigcIkcRkjJs1xYWG3lFjyP1weeSrqcuYq6OroSRKmrSukDjYm5/riuSjBukM0ywhrJKqiiZpf2kqAAxxgAkiwFt+L4WipZpKek11M0jaQGjQea3BC227c4WT/wC1cBS4tiSVNNS0VNG8jPVnyD5p7lgpIF7nbgDFXSZlS01KsCrCrjU2s7r+I99/bk4t/eOL3cCtqNIUpfFiUwjWGpUsjsdMbbEar3JF7d9hv3xL/wCbdFZBHK76GLaFYhSbk7n0vuR3wn2JSjh8g344KIfEF5UlqKlkkgGoBINelPW1zvvb9cCqfFE1Os/TiEYINh5Y1XYE2PI++Ni0oq0wbm6BUeaSvTShzHqsHN2OlmI2O4v7fbAjP062MM0chezOFBJBKnniygjkflgbVHKQHfJiQtDFU1EioGjsImXy3J/CDvueT22vjMFbNCmp6mOKZbHqJbuP9364s3NvgbDoK+es7ERO+mQfjSxJI5Pp6/rjEGYVMlSxjD2dQo6vnOobE2vb1PBwkt944FTSdM5F8V8yNZ4oZBbpUbCMC9tShBcgD0O2+OZQ5dGaCN3qoqeNVDOGRiTf0AHv+mPW6SqCRyJNbmLxw5VViqozVVlTIZIHXoQKgB1ldy7brZr8Y79GIKHw3FHIJZqdqcoASB01C8bDe9rd+cZ/Lk9sV8l2hlt/BzSsqYGpq0miaWEGK95mBDAn0HvbE/C9ZBNMsZpIOnG0b3Z3JWxYXBuNtzfHQT9OWZnKzsUz9ejjAMTRld/ICL7W3PH1xpXifNGo8wnim0RUwEKOwCMCzWADC21tvzxj8l1GkW6VWZjoswQyQQVLySuqyuiaV0R3sT+Dm97YLItfEaq0lVMkcQHSBYsdwSbC2ojj7cDHKk3KNHQSS5Po/wDwY/EHLfCPiHNsk8R1iUeWD5jM6U1rAiKVlRHFzvuFBsNgR747B8T/AIpZD45rY/D/AIQySXxnnMkc0aU0MRFOQ6WuTpu1rXIsB6sMdSP7yEUnmjmTf25uMT4H8efC7MvhvnVZlVRmuV0tYQkjQwTdSRTqOpGEYIBFwPxe1zbCVP4uyzotRVVTepphGTIsRKMCwG5NivPO52xj1K1LcXZsjJxVyNi8PZJlfjGur8ngzeSKpSLrdaQqYI7EEAtuVve122Fwdhj7Q+BXxqTwSmS5P4tWHJDSBw1TVRltS9MqCQCALm24BFsavGaSSrJm1527XB0P47/GmTK/BK514T8QR5tlcscvVGXQCUx3idVIsbrpYqW/9QfQY+UPC/8AgX+JT/DLJ87yWLw1mtVW1D68nhnEsU0RIbqfMMSLllkBAO225xoj6pyb4VFSUNRJWaB4ryiuyTNcyyiokSmzChqHpqg0biamQowDKH0guARpv/6/TFS9TXT1gp4WX5iNGdnDyaZTckG/4R5bg+p3tjzstT7+pL7fGTraMFpwSfIStlkerDSEwaQdUkigBnsbAEntf74hTPeToypS0zxL+KnYAswUeYryCdjb3xncXJRt8Gjcnmi2ywxxwwPVMFdWLsgQMQT3W42B2B+t8SqMxoZZVRlFPE40tKDdLkbagdh2wJNOlZFJ1gLV1lLTlelG8t1C6aZtIIG9xyO4wnlVZM9DGInkiSQgBKhR5m1E3DruxAIO30xNKnp7n0RtvJGTNgS0utKmRg0hZlYkkbe30F7cYk2by66eniiRYZF1MWUMdQ2tvv72xYmpSpi7L5Zinqnmq10tKhDMoiWKzGxFyTbvva3N+MNIs0FgQ5mEqstoztckaSbcc9+cVU44SGajxY+KY1ZZnnjiJbZWYARnbbm9/wC748smmn/82WHrs34qcFhzf3OwtzffBtrklrpFq7wJRzD5eaqeJSruOxuDupNtib4IviGjny5pqKKZ42W7HcBireZTtcEEelsZaUk2shbfBP55ko9Sl5NVrJpNwNuQew9sXNXljy5c86QS07xKrpKxDXsdibcc4rUnFprgdJdsWqcpjlp2knkEYRtmUnTvYnc7DbEJqKn+QlaGGRRGfwtHfg+vbbfFbtx2/IcLgRiTM8zgM1RSRRLpIEkNUsgZQd+Lb7dz29sXVXl0eX08EMhgmk1X0mXygDcgMRzff33+uLHGCSzbFV5SEb1+Xr04Mp1QhiJHMgVF0t+K1htt2vfD9TD/AODM00smpQSo1Ap68X3B7Yq3qEFWRkn/ALhvM9dDQr8vDLJLKNRkiiKle+/pbCGaRwQzNClSzyyqWceYEX/9rWB5++LEm6r3C0u/Ydko+pR1CdYRAi6aiCbdxfA80elGT1KVNVCCQWRSoY9xYaeT35wnqk6EbjEZaJP8ulPSllh6DMrRqbarbsAQfyGNKzPx1NlnjSjhrKKqaWYy0aSGAqrREBjpOw3te1ha2Op4UY72tV5zRm8hz23A63JVVFfl8qwwFY5IwbzMoBsvY33O1zgdVmEfyDaYxJLJTtJra5RDp2J/s4y7YrQt9S/uiy39z9UI5wHmiEVTWwgNEdMTqGJst+LgG398YVrHo1opmSZjK8dnU2JHlABHv7YxRq9sVz2XZKioVpcvm0yN5IwBZ+Tp3It+WK+aqEUAaO7M8Vnjnfb3YHseNj+mL4OTwsBeEVj1MdRC0TvEt1uVY20tb0XjgYlUUMkMXVp6mRNUYOhgCLEW8t+2NKTi/U8AtUdT8QVUIy2XpU73XTIyyRFOGBHa9uMJz56KPJ52lS621+SNrBvxW97WPGM0YOUNzZQ3dE6zOXrctqTCGZGiLsyi1rEm9jxt/DEqiR58r6vTnZFisSxUbkXB3O4/K98VuDjm7CmDmqY56NjDRzMrwbyqVsQw9Bex35wrPRTVlHTpBSxwiSMa5ZSzkal9R+WHSikm+mM7uzXfl6lOlIbSPPF+NGIC2Xi1vN6XGD5bUdKnj6tP0WZQpZQWBNj32ue32OLnOMk2lwCpMZy1hmcEEsjx9WNbbqSBsQbb7Y9HKtNTRE1PWdCI7IFUarkBbepI++Koz3J4AnnLA5dUFoJU0yCWIOBHJNa5B7247D88DyyrPRjZunpuwJMpPBOygnjfBcZRUpIjcbQDr0tOXXREoEr6IyNei5B/EO5JP0BxT19WXeqjlp0qbMzEElQAd77A7b840Si23bwDc0UtXXUU6GBaYhWe1gjBRsNiffFPVzJLNJHIZgrJ5VK2UqLAgb/xxcopRpvArlLoqJMypcvXRLHNTozdMO6hF3I0kE3ufYb4dOY0+WlpxTNLojZwFcyFuD+Hgm/f39sXyjUrXsLlOgnh7xDDmILx0s1O+rWwqAzHV7lu2+w7b4xU+JVpa0s0ccksjaYysA6iKTvcDexIN7m3Bwslyn7ETdZCVPzUtcskU5EU0pdiY08radt7Xv2xammae6h5WUJuv4l1drL3P09Dit2uB1XLEIaOSjg6zTSvIxCvHED/ALiL6T9ebcY9DLFQ5paokDSSK2iOEFz5RqtpG4vt+eLNPTbkmwOuji+W+Hqs02cZvXI1KgimkaeSNj5rGxvbm5H54p5UoIcvqY5KipmZIEbXTxBFWzAXs535P5jHqEqWDjN06CfDKioc18R5iKekqGQIvmqJlFiGVhZVX27nvjv+cos3hBWaKBnSmcKqG7d2tyO/6YxeY3UF8mrRTe6vY47nWYpFS1ca0NKbwrKUdWcbyLY7tsff64H4VzWV5ZmhpqVVUKW/ZBtg29734J5xvirWTJ+h2DJ6iWeBCrMoUeZI10gj0IGx3tg1ZlFTWPIVa7n8KgWN7ct6jYfQfbHP85PZUTVoJbslXnHh6dab/wDtViQ9MaNbsT2Ki41EDjc7kXxUyeFpcpoZJtcDTsuqNZJCpT2JPBIB7euOJHVcVTOg0KeGKpss8QQ5jHmFHVyLHpmpJJjKsiagTEwQbBrEbdiPTG65l8RfFLQ5xCKqjyrJBHKsOUZTBLFGCw0q8zAiSQgFgNRI23vfHRU0lsmZpaSm9xx6rWjpqSeB6yd2WPqosdLuCHU7ksN/U45/Jm9HJT5vFLHmk+qlbWCsUQVtS78tcX7Y3aEYrBVqNpVWAfhfOYqiDNkpoa4h6Hov1MxYMy61uPIoFuLg3BGO5/C//EZ4p+H1FDT0cMOdZdTRlly7NUNchC7BQZCdOzNwOfoMW6jUCqMHLg2rw7/iFkqvFRzbJvDNX4XLM81RldMr1FDU7FX82kMlwWGmxG5sbbY+l83/AMYZqvh3SeHfCHhOPw7LHAiUziZytCy3H7NdIsdLEb8E3ttjHra8oQqLyxoaE3JJrB8yV89dW1rlEq9IjLSk6luwbaxvY33uP+sI0mWLRzB5EqIbK29RVaooxyAbEi9zYbH8scbTjKKwzqSq6QSmEctXJTVdQimS0iRtqubAagbDsfTApI3gmlklrGkmW7vEQS7A307G2w4/O+FVbqYXJpPAeeoWqsUkrpjHJ05KEKFjkspsApttcixB4BwBpaaWAymlMhYkskn7Pf8A2kgEc98RRjFp80RbnwZy4UcdXGYYEM8ao6M8+qNi4NxcEcC/0viwlry1IojjjkjE2lWXzWPe5ufLbcdtzi+M4pUxEpXlilJJUUg+VhMXUj3GlfMbEkNZgb7WBAP2xOGorGhphd5pB5CyR6Skg7g/wxXPLTS7LFGKeRlhVSOLxTzPJIV8zdPQGsL3vY7flf2xYNS6IbyWUt+NXmNlI7nffn+9sLOTn6eBriicFFDDNJJLUNHKsIKkAk+Y3P1Nxz+WMxpQUpmo4PmpJUUuzVR6qm5vbUdjv2+mKnHb6WwJ4pIvpkjpo4rwpHqUyfjVRsfwj9B3wd4zJS1ckcKw6fMVYEljta49NjvijctOKXyRRb5ZYnLbUdRNFK7MNW0L8gnji+3fFnW0dL8s4UxLGItQRpGBG/ck73wj49JGlFjNclDTRVMiyai0Zv0gfLybgDYjthnM5pYMudIqZmibzMZTp1Dng7+vOM8lK8dFt+nAvXQ1HQqJ5qaCaOxCCmsoj39bWO1/bfAa6soZTXQwLClT02beNnVRc8W2H19fpi24ypXYHuaD5jDUS0tTI00jWiIB0WVja503Av8ApikllNLHLTyxyRyDyjYKTcXv/fphJSjW2PLFGs7yyorad6sV1WULgGF5CQbC3t2/PDVXRU+XUkoMnWcqwHWZVIFvTcH9cWwl6VFc2SldUEq6SsnppRGZKeB49CilUqVspJOoDv8AzPrgj5ZE1BrlSevlMLNFKyAEApuCNvbGd+l5DaXCLdp5pMn/APHopPPANltqsVNzufvtjQPjJT5hLk+WVUZR6qnroZIlRrm2lrr3uWG33xog4Q1YuT7oW7WTbHzysr8m68PRhp3p1eJhfdGW6iwG5sR+ZwhLmPytLThKiaGR4GXyLrU2Hf8ArjTpOEvH1E1dSRTJPfGhCcVU0cRU9SnkgLGZQqyRvax5FyOBbC9Hm0lXC4qY1mXTo1qJFcEDYkHbcbbX7YyRnvi17Glr5J1TdfK1M79FkjCXXyhrDlrnn3xWJ1YadFB+ZBjK3hAuNiBc33t6d8WQ35dB9IjH1PkxHUaJZEQbJGUJ2uCATvz/AAxJ6eOaCCZo9TxrdSXsV24tfg34xbH05YmeUdCrsz/zzLqZBAEDoR+IK7HjYdhfE6Wp+ZoYVemMlkO9wDe1j5twD9MVai2KrwVpYQSkmENFSzI/R1xqhheUFGJG4YAex+l8O01XNX5T0kkp4Z9l88mqxGx2AG313xXSSu2BXzQGgrS1IscqBPl1CkpqILXIPpc7Xtximiq82WOFaYRSI7GIiRW1puRuCbAC1+e+4w8owbdFmSOUS1qRy087Rh4GZA6RWDC/O/v2wKKNugIzUB9DstkW2wbt6/XCTdN0iuMbfIGldY6dl+YkuHYhGOmy+m1tiO/sMJzQ0YMjTqZnSRmQSO1jsCO+9if1xem6dLkNRK3qwaJIkRJUkk1BG22I45JF/wCvrgdPmMlG9SsVNC+k2uq+YJb/AHEeUbYeKkrUuBGuAUeeNVrMkrtpL3ZQGCJsOL9zbn2woGV0nGtxCLBljAuCOAN+fbAlBXl8Bd8IlSZbK5KGMXjCsDfkEW3J3J5J+2HEy+PqSGRQ3luGubsbkEe31xJ1spEdmvZtlaz1B1mRYlVjpDEBtrWO/Yb+2KWGlkyFI1ipfmKSd1AWK7lQAbbkna1gAOb4vhqpx2JA/UCVr/m1eKPoU7uoCkJ+Kx/eAJH8tsOVFVUUfWki8tNGqmSZxphYk/u23JG3bcnGlu4qiuWAE9MU6MkdRWM6RiVyJmDyKeLi2+57bk+gw5T1kZlvNMysrEPGZACeLWBO/A9jftviJTmkiWqHKmshp1gkaJ6eRz5OgnUa1uDyouAdx3x6rVJq2BGiKsswZpX06tw3odwLC+3P0xmUHvVssck1wI/Fp0i8C5l10kiifQimHSGPmB79thjg7VGXQx5gFpah3FKSTNUWsbra2leb9j6/fHrISdI4xt3wejiSCpkgoIYGkZvxFpCQfdjt7Y7NnyFsoVSYI1RCjDysmkqRdjbb19RjmedNqcIpGvQWJWcEn8TTZnnOZQ0EcTxLSOotTqwKrptfy+wP2wbwlLmtTUsrNWOOmwCxhluO42AFjbjHXUk1ZklhnV8qinp4oYpAxJux1tb3vucbLQ1MNCWM5Vj1NYEigEWUg2N/6b45n1Bt6aSNfjfnb6IZnCtSoqoE+XcWQzSAsAbmwH+297YqqjXI0pqhDoCKACCWJHqAO+3GPORSl+TydST7RWxZTl1OEqnjWKrkNwsMRKaeRsbEf898HqqqliqEiQGLUoVgAFBt3JJO3Jsexw7m5OrtiPdlCtZ4eoM0Mxho1qhKADGjWK32vsP+8VsHw0yionESUKwpKuiR5ZWAUHv2JI22xfp6zivSxXp28l1T/CjKaVXFHQ0czNZGcQllZS3fV/x2xYr4bnoWVYsuSFbmNemiAnVx6n3thf2yWq0NsjG6GYKWeJYOrI0csUgKiJ9Jk7eZRa4IvhLNqeorXj0O0Uct9LtIQwa1gWvsLi1rYy1qyafQz23bKCLIXlrQ5HytmWMM8wKtY/vEb2JJNvU8YckjToVNJ85HK5OpAxJeNtPDWvtjfe5KmK5LlDcUayESO06qi6ek6gMp2/DuL7739MINSrT5sKh1ZgHBlKIQZEt+G5vZe5FtycUtRtWF7nbRiGryutXT0PlZZpWt1p7dRr2stvw3Hb+eCw5mkVO0CpHI3UKqXbVrjtYF7222+vvhXCKwgU/cHl+ZS1UsUklDHBAzhqZljFnj0nzDchhcEWO+HZqeoScVEMQjEh1BYQuk9hcWJvtx24xa08V0HZi5MHFFUJPYmdZmYeVOA1tmHoex9bYBW5dPXEh4ZZliBvrlITUBzY8YzLe5KyS2pllT0zywLI6LTSsumReoTa34trkEe/ocFqaOWUK86R1dLCQUYgt5fovJHIP6Yabr8mFY6HmFJ5Vp6OQgNa5UA2H1PHp98W1PRRwyTvFBpfp2InOlQbE3HofoDvhYyjaY3qZZZhB1KaWaomg19NgokBkVuOD68XI7DFqIaZ8tnLVDyTGPXEy+UHbYWN+PqcVS1FzXLDWchKvpHKZtcgVn1WBcg3A4G+9/64KZFNAydKMBUezRsZHa6+tjb/nFOUnnsjfQ0YYhlrIGmqQ0BI6wVQNvc7XGH5JD/l0zU0aACLzRs44ttc2O+49sK0km/dhzdCub1ky5fPHHLFNeJmsim5uvrsThQ1nVjmWkpilVJCFaSWIDTdb23B59N8BSq6RMvkaWUNSBJneUtC2iVQRYFd91Fh9/pgdcMraELEmuoEOtmkdbvYG5G/r62PphXKV0l2TCwMZpT0lZlDsJYwqrckPY8c7c4xpjFJJcskixlo/l9QW2jYHb+G38cBRm1zle5FKKdIsoKurmyyRBTvKGiLhZHEW2jkBt78YqkroosuMUMEwkMK2FQ1iNuxB74SUFa9VtEzwkGp82nqsnp2ZBoMKrYk3B02tcDn+98a54ycz+B5qileON4xTzJOCz6CHW5sRvbfFqUZaqr3A1ihnJPDxyvwzTZfFVRmniicIxQMwjJJVbn0vbDAiiWhmjiYq/RDKyqAQStiLdhfHQ0JprWjFf4mUTW1wdlOKVl6Dy1M5sm8TaRcW2F/bCU1bIJYTDK0UYhuyy0/USQhdxr4B+3fGWVcRLmlF2JzRx1kC9XQ0YRQqqmoHbuf5DBIZUWlSSnB6ZiBBX6W4O1/4YsjFJ3YyWbQs0ySwIwLBlWymQbgWG2AR3bLw1k0BbaH39v64aEoEalydLyiSQwKxVVdXddYRtt773O22IU+aMlDpZ4ndZHQaY2uLE89u/Pv3wsnBtooTfZClrpqbL3crAGWRgkqXc83Fzf0I3+uJ5fJU1sklOWVFh1EMkFlvfUQxJuRvhLSUiZfBXvluYTVcvXmMcKSkqwbSqk2NiL2tvvix+UWoWrpkrJLiWzlWAAFgb2G55Pf2wz1UlxwGuiuo6epSY0yyySUikhGkJNri43sBz64WGVz0c0weWOabWDoMhKi47friuctztdgio8FNU0Ykqai5iZDYg6+b+1/a/pis/y6NZpFZY4vKtpAxPO1zbFkVJqmNgGtRSrMxhkeULGA7CM7HcG22/B4wJI1o1YQPKqNGDdkLagCTaxN74Zqm97wBttpUO0oheVCoAaRTZn2A34N8ESkT5kAK6xgA6kk/EQTe+243w0nHmwZDmmnEqpEQBoPmlU77jYb78/kDj1dQVBqIpXB897GxN7EWA/PFMdvRGnyCekmaoVKhQtyy9NkDBx9NNrYLJTJC8MnUebSWBv5b+Xb6AW2I/PFsHKnQm3IlU5VBVTRrGWCspAAYBWJFwbX4GNczSiNOJWKLPFoP+oRHGtl3ALEXP02OL/wB5KlEZpNYKShyWebNDVT9JHdBGkoYltJUHpoQLW7fUdhiQoJaWeOojr3qqYOYY6X5ddKEEW3Cgmx2vfvjVCTaq8lXCpoK0DTvChWcQRSo4UkAKBcFQAeOfriwBjaoveWRtak76RsOQRfv/ADxU9qqT5QZNuOBD4vZnHU5ZQpPEakT9UKhkZPKIywIsL/7ccNjzaCSuqYEy2nXXSuCszO+sWG99Qtxj0+nxg5KT4Ol+EXbLMteoSOCkiRCbRxgXHvffnvi28WZxmOYZO60KP8xVoY4DSEh9lJYmw7j9cZNaLnqJvo1Qe2DNFosnzmALTu9bLI0MjWZyp1aTwTbb+uJ+DcqzB69DUPLspOqonGzci1z9ecbYGVJHRKFWlzKneVVSNf3ncHS3a4F7em+NyhSQhmpWAKyxobNq0vfa40+/qed7Y5n1KKWnz2a/GdSosZsqNMhLQVSyF0aSZWDBr2FyosB32wrneVK9bGkjSNMGG6rpRLn6+mPNqKVZOnT5FJ4qZJRCQ0wNgXCMApABuCd1GMf5YkHXtTQtSw7iSZGBNzzYcjf1vthoSi3ZGm22O1NWazLpBSxwxqGADPEDqUW9NxzhdaNquIzskeiwsqjjgG/qN/QYkNRLBKb5YWPI6hwZaWp0slghglFmN7d7Hv7jjCWZeFcwpK3qz5hIEv01hlYp+K3Hmt/O/ffFimsqskSisMr3p5mkqRU1ASGSMFHdgpU37EcAkD+uEKjLzQwhRX0s8SOBrntrjBJ/eHpf3vixW1fBMW2eSlbpUUcJgehDg6lDF72LXUfmdziVYKKOdleKQOLA2S+xG5NzzthoxeKFWWCy/MIUp3DwzxFAAhnGgyKONJFxf2HGC12bGlem+Yk+YnkTQupdJVgbkMF24vuDziKEHJXySTbsSroNOYUdVBFHOgI19drBbX0kAkDuNudxidPBLRzRCOCGIs5mdI0uFNyAtybE3sdhxbDLoZJO7LJKmUPT0VNCU0gM1TJYL3NlAA8xNwLbDv2waogqcyqCY+rHCshujuUY2N9Wobb+5274qUZL1A6pjlTlwqkPVmj6arYAdj33vvv3xGnpwY6iXVB0VJ0zROzlrWUjSLj8vXjviqTlFJXYXTXAzSZf8tA0qzyyxEMAxW1we1rC1uMWWXUa1EUkkWhYAhGkta59DyLgfffFWJSyyy3wOGBKaGzukfWXaIKNhb+/zOG2pw1GzJMrvJEPVgNuBf74dzisPkNOWCsqIZ6mJWkbTJIgVSFub29LcbnBqcmrpQ09QyTxrp1PqDjy7ntyLjbATr+Yqosnqz8ssaRR1ICBhIE6lib7k39v0xY01qvJHYKzl0AfygAoFNiCPS3pjK4O23jIVlFjHFT1OVxzCmDkqGUkeZbrzpW9ucCXNFyqigo2lSGeaAkiRdTgEbAdva+BJpXFLsK3Uerp5f8AI4fl1lmkMSDp06WJBtdrjew32v6YxRRVWZxM707SxdMEFG0Mu1iTxY4Cl6Worhk2qssuaXLaWbLGFVMsWqLzLMwIHlvqBv741mgylaSKJYc7qDFoDdNhFbTbsQpJ9O5wIzdtNfzEqNli1TTz0iyXdlaIIoWOxJ07G/H5YRneDMMriE0DuixDSb6G/DcGxIv9Pc4XbcWt1ZLrzaR5pqieghjiZoikCi1xci3G9/44hFVTf5bHqjAYRj/WO9re2+GuNu12ImyOW5pHPlUKtvqiAYFCFQ2O1iRf7euEs+ac+Bq2G6sr0Li5XYHTf35IGG4kv1BTqmHoSMyyOleF2mleFCS507lQb2t74xliv8o0c7yoZITdtNt7XuP6Y6Pi5lOMe7M+tFKCr4Elqlho4ll0THogCRhuLgfyvtgEYVKQKCgUINOhtiQOMZHBW37l9pJCqTRLRxJBG0kaoLelz6e2F4I9K6xdQw3UpYD0P6Yt2qnkm6XRiGsT5JLxothsQdV8QhnXpws8aG6HU8e+n+z2xIy9LwGSN6pYKtamoEVU5Jl1Fo47KoIB7j1xJo6oPUrK/lZw/mdVc6l+m52/rhItWyirPZVT+ar+aWWOIFSrOy2Nx2sPUd/TBIpqigefr1MzU5AlESKARcWvf7Dn1xPuXcUhayVmVmbOpappmrTGAGMkzXUm1vxbXGA5XTq5lp0eGN10uxaoLdyGJFwbmw52wrcmmuqG9MWWFHRU1DUyoamFppIwQBKXN76SdJPpbEJZ0hqmiikBqHjH4FBOzHbjmx3O/bC+q6+BrSRX1tVHT1CkQOs7oNlViWIb6e/GKknqTR6Fk3uL9O1iCDvc/X9cNsdZeQNsjHRiSYmUawyMSbgWsR7knv6YL0pBVwyAAayRe+wPofsMSU1SC32NVeUFpY2mKwhwbAkhgeQfofTEhk07NTqkjQo6tHrSO5F/Q324xWp0qSsg5FQrTvCyVM2pJTE4liFydJB3P0G4+mPT0M3V6PzMmYAuCUMZUAEHyEjtt9cKpSk26oVpEpqICKm6jWdSoJWQqNwQb+wv78YFUZdlgSEfMwyKskflv1AOx3J3/wCdsXRc5LAfSL1lFRoRo06RIFEoTSADtY2vuOMJZpldOaVUaAydJlDddDIF35ta3fDRnNU7JfaB1tN8jl5ZKdj0rMlOqhApBAsN7D3OKXO8rkipZmam6ciFWXTKSvlIIAFu55Jti6MlHLl2K49sRzGmr6JwTTGZC4kZmlAYL7AKb/8AGK1XkVh1YpUdWJtLLqR1P/6kWFtvW/bFkZweFyBqij8dT1ldXZc8FDHPSUdK6jqp1DqIa4K33uLfljjmU5vPUeKKalhio4SySKxipELW0MNPBN9seo0JrU01KzlakHCR1zKpcykp6Wn0zBpyLtHGFGkjYjgbna2L2moJ/wDK3nnKLWU7GOEySALGSfxksfS2+2KXb1i1tfbNHrMqpEq4ImraSoqZeos9XLOp3ZSObmwxUeE6WeirVheqpYhI9mCtqsLWBIUE+n0xuU82zLdrJ03KqVaVEpzL1KiZlUiNGY3JFgB37Y3RP8PPxT8I53mvi/MYZsi8LwQderTMl6UcscagIqhjdpCT5QNyThJ6cdeEt/A+m1d+xc1lNVPCH6JSIaWCxvpFyyk2vz/3gk+Q1MMRnciURvqYMxCm1rcdxvyceFm4t1VHejbRmsyOSennbyCVQSnk8jevPY8euFq7JpKaKSUAxzBVDW33A2sDtiKe2opdkaZCqyqWlgeKSoWOW+pVjTcC99z2OCT5dUCmqRJFGsdgqGKQ3S45G4w6k7tIMkk8BKrJaWGkqFZYygS51jUV9xvt9vTFdU0VO8c0ckKdIAgktqvdSRccWvbvhtNSbv5DaK2WkiSODpFoo501gwX07De1gdr9vTEcxyWWWlSdqiOWCNg1ofxNfuV+hv8AfBSa/L3ByhZ8spKlIw8cjzxqdMjMuwtcWJtyOw+hwrU05VYnMUlgbJcABxvdSbbEi3ONUWm+SvLeCFFlgj+YjjAqIndm01TMys4vYAbWIJH2wODIanKqmZmoKeFZozJGYyTsLb6ST3P1IwVqLdbH2PthYKY5usi1VE1HOpRlkjTWZPRhtYgEG47DBJaCskRkneYFGGj5ULuBvqHFtyed9jhXuq0VJcjMlIOlFBP07FzIg1FGAsTYsTv9bjk98MKsdLC0dTIkTMg0FpF1M3JAvyOPXa+KpNzdj4jQemlpYbxiRWV4rpHEurXt2sPXjD1NEPkVZQ7KRbZdPbY27HnGWem400+y2NewSF1mjVJWmTUt0EtgxAA329D2wrlGVf5fO1TTOZ0kIf5aeQsLkblRYG/IuLYdqIqTLqnknzSEdTQwOljqAKrYWAFxcWxmNhRJEsjlEMayLpN29CePUYz2pN0uCxroJRwU5y8LVu9S/TF2ZtOnb97/AIwHo0kqQQzRqykrrlBLkG21z35xZBum3hWD0qqDU7q9JSdCVr9MIkUd1iuCQBY8nY/rg9HWhqcotNLHeILqeQIWYWBA3J5GBLbbcmBW6SNh8PZzU1FCq/K/LpFGoR5DqJFtj2ucChozV01MlVLqcwKweIdj6N9rc4rfo/HIUnWROClrFhp9FY8aoFZ7EqrLbZCDtx3GGaeZKeggd5tiihjLvv33vv259cRt5pASoq5M3MWX00EZ8xQedNrjtwf7+2AUGZ6BTynWraAhkF7Ai3G4398JCDlcr7DfKSIQV8ckCiReqiwgAyWu5vbkd+eeNseGYU4y+FAZRIFAHUbjbYcbd8T0pNfI1yaBR5nIlHAqIFcpbUxDG1t9/UYlTZlE1Ci9YpL0xuqW022tvi9qC/ERJ9kaGulajiSRoXQoq3KW9frb1+wwvLPPNRdCZlkjkiCks2jYi1yAPcYqe+eUsEUbeWLeGaw1fhnLgrG/yyIzlrkso03X22A3xbZXKiPTs1QshFlEbb2vyPyOOp48ZrXz2ynWSWnQnEDSkxrdtAINt9xsbgc4HAl4EYnUzAAC2zWHoeBjPqQTtX2PB2lQlCzmGPSSx0AAXBQWHN+ftjyM1PRxOSoZj5QbMRyPvzgR9GWM77FHrVnMcQheGT16TEbC257dsTiE8tLEx8jEWug/h6YsTSWFyBJNWzotHSxU+YyyVEptoWQBJCNzceu5H8sYmko/8xkaOEVBMQGqTUTcHtfjY8+2Ee55XsUKkTL0xqWj+WjjLQgWJ2uG2JBPO/bC9fVUUGZQtUU0WsxEaEfkixHc39OL84Kg2r7GxyYhp8tmaO8sSGWEh/l2U2KkHtuNmPpiuqKTL6CshkjZxdWRpdFiTcG17bnvbFUozdKwbl0UldmFP85TSLVaZN2sYySRza/pte3bB5s8lZ1bUzXDWc79r72+mLNlpSRNzV2RqMxgnrIJgVhezXlE2k7rYbWNhsOO/phefM4qmenSJQwJKs2vvb6XO2F2qFIDk+GMrMKeVKiCnp9CuIysmqyhgd/c33scNM7EoBpMRkAPlJ0ggi435OKouDdsLtumTnlMK00hctJrJKKgsBaxBPruLYCcxlamj6LukYcG8RIv2PIvbzc4W+FXAccMxUz1E7xhpXURMrBUZroL78H3wCtPlJD3YSKylpDYb7cnbGiGUq4B6WqGKuSC37UxlFKHzD94Ebk8DBAIYISKZVjDsrNojI2DCxuBv9MCUZYjYyrigudwsYCYSCYWBKhQbWN/zwnmlc9NlldIlOZbRP5Y92NvftxfAq0mnwMm2ChzWbP8vqIaOmRFWE+aXVa9ux0i9z/DDNbTvPQyORF1dBZtySTa/rc84jnGEafuSn2AqqKq+RfRFtovfQbX5vv98U+Y+GZKhvmY6Vl/eDRqDfbclTt/LAWsov0ID077FT4Qr50M8PUiZBZGWMAsLjcG3PsMaJL8B/EFL4hXOH8VqaPqdT5WlgELnm4ZgRfYkX5x1PG8yUOUUamjCXdHq3wxJTTr83miLNcowmlsjAHygBjba1vfDkeXUFVlVXSTVCMtNKJZXVhJdvwi+nnc98dDQ1ZSldGXUioxOcwZPl2V51E0U1OoV9N4wzm24Ha/e/OHvB3ymV18kstSk5YHSqxnqDcDg2Bx2PyVGJ8FlXZ5l9NmFJTUubfMVnVtUJTAa4xcWAN7A/ckWxvtJX5747WkGbZjmH+VZb+0hyuaoZlOkWVpHYtqJtxYAbbYo19RaemHT0lqS4Og1dfLHQEsVk6i6hHKSQ1hff7/AMMPmvFWkkTSxwz6C2kxWuCNjuftbHipSj0uGd9WnTGC/wA7TzRftkRo2OpbppJS4I2tbtYYUXIGMTM1TUbqXVZpNQUhTuvphHqpvdBBUU1ktHgi/wAomSoRJJGgI16rkXXmx7/wxBaeikpAI5Y5HEWlkFitrffffnAb1JDLmwYlpxlqIWAaeEKbxsS1xxcDg8X4wrPl09VSRGngZ0ZA6s/MZK22Gxt6X3/LA057Lsbvgr2yisFIQnSmEkRcQzssdiFvqB9bG++A0+VOKZamOcu0iG1mB/ELWOkEbX97Ytctsavsqd3gSGR1NasHUM8ZhdpEDFQJAV2FgN1342N7HD+h8xoWZoVSJlGpZYypPl4ux3/LF8Zwje0KiBy6gav6YaFxUka1BW5A3uEN/wDvB/8ALp5pNEyxskiXXUl1R7Cwsdh/C/GF+5tS/ULVrLJQZO0lOEkjkbYEEGwA3vcevHbCU1EJaMVMCr8ysQXVNctsN+53Nz374P3JpJAqNDFJSfO0sZlVJGiVbOg1KNt/7GAyeHaWthWRESfpjUuuJWsbC9iwuNrd++JC4Zsl0sEYcq+cWn06YSIwwU+ViPcDt/3idBEqJcEs/SAIZhcAD+OM85QSw8kipcgqZ5JqVBNTFEJAOp9Wqx+xt7fXDdPQdKGCRpViBTQdiq6vQnDblyshW7thKOpaly+NampZFK6tSKAALW2tvsPfDGWUSyw3eod430hhMxIFhYb9trbYR5TcEPXuEo6eigVCqJKAxuCTpI4BJH9O2Eaas/0IIJGmUEhEQHy7kWANgPS2EmpNKLAl7IdoXhWmjWVJURWJClxa4Y+v33GI0tVDLSJdVg0ksdZN7DbY/wBcGe1Nqr4DklRGF6ONZQUd1LBAh8xDWLXJNtv6YTqZ5szoaeKWsnKKLIUfRpsfLxbj098KpSeK4Yso3yxmGdo6OJZepIShVhLIDr7bn7cflhWGvWnpkKqkahAGNlCqLnY2vv8A0xKm91kVJHoaiP5GKXqXCNpjbXoY83AP8sJrNZIpGurKSFLECw/n3wIq4yr3Db6QqKjooF3YbW0vuN9x7j298KxVcrw2JYNv5Vcto325wXGKSZLlaFYJ6roqflwJNJAGrynt2waCtPysSgXnVQxdRpAPewttjQ2uEgU7yxrLZaiKnjiklJjtbSVIsQTv6YYpmdIo+rrkHJux8tj3P9PTFU5OMXQLSeCj8IO6UEkEc9hDUTx6LA2AkYi3cbEYvMujlhjiAlhOonZImBvfj02tjbo7vvWymVOLwWldM61bNYhJAGEqrexsLd9974ronUoispLN5Sx2AN972xRqxlGUr9x4Te2NC9M7qt9CqQNJ6gudidrjY3/7xClnWWGIFUkS26xnje1xc4OFbj0PTvJiNjLSxrG3UkAtcWUj1F+O2JQx6KZV1MCBww9zbfDxSd7RUknTP//Z;fontSize=40;fontFamily=Courier New;horizontal=1;verticalAlign=bottom;spacingBottom=-38;" parent="1" vertex="1">
          <mxGeometry x="-3430" y="-200" width="296.67" height="222.5" as="geometry" />
        </mxCell>
      </root>
    </mxGraphModel>
  </diagram>
</mxfile>
